%TF.GenerationSoftware,KiCad,Pcbnew,7.0.7*%
%TF.CreationDate,2024-02-23T14:56:57+08:00*%
%TF.ProjectId,l3,6c332e6b-6963-4616-945f-706362585858,rev?*%
%TF.SameCoordinates,Original*%
%TF.FileFunction,Copper,L2,Bot*%
%TF.FilePolarity,Positive*%
%FSLAX46Y46*%
G04 Gerber Fmt 4.6, Leading zero omitted, Abs format (unit mm)*
G04 Created by KiCad (PCBNEW 7.0.7) date 2024-02-23 14:56:57*
%MOMM*%
%LPD*%
G01*
G04 APERTURE LIST*
%TA.AperFunction,ComponentPad*%
%ADD10R,1.700000X1.700000*%
%TD*%
%TA.AperFunction,ComponentPad*%
%ADD11O,1.700000X1.700000*%
%TD*%
%TA.AperFunction,ComponentPad*%
%ADD12C,0.800000*%
%TD*%
%TA.AperFunction,ComponentPad*%
%ADD13C,6.000000*%
%TD*%
%TA.AperFunction,ComponentPad*%
%ADD14C,1.778000*%
%TD*%
%TA.AperFunction,ComponentPad*%
%ADD15C,6.400000*%
%TD*%
%TA.AperFunction,ViaPad*%
%ADD16C,0.800000*%
%TD*%
%TA.AperFunction,Conductor*%
%ADD17C,0.300000*%
%TD*%
%TA.AperFunction,Conductor*%
%ADD18C,0.250000*%
%TD*%
%TA.AperFunction,Conductor*%
%ADD19C,0.800000*%
%TD*%
G04 APERTURE END LIST*
D10*
%TO.P,J3,1,Pin_1*%
%TO.N,+5V*%
X45555374Y-5103580D03*
D11*
%TO.P,J3,2,Pin_2*%
%TO.N,GND*%
X45555374Y-2563580D03*
%TO.P,J3,3,Pin_3*%
%TO.N,/TOF SCL*%
X45555374Y-23580D03*
%TO.P,J3,4,Pin_4*%
%TO.N,/TOF SDA*%
X45555374Y2516420D03*
%TO.P,J3,5,Pin_5*%
%TO.N,unconnected-(J3-Pin_5-Pad5)*%
X45555374Y5056420D03*
%TO.P,J3,6,Pin_6*%
%TO.N,/XSHUT f*%
X45555374Y7596420D03*
%TD*%
D12*
%TO.P,H10,1,1*%
%TO.N,unconnected-(H10-Pad1)*%
X-48337068Y17317603D03*
X-47678058Y18908593D03*
X-47678058Y15726613D03*
X-46087068Y19567603D03*
D13*
X-46087068Y17317603D03*
D12*
X-46087068Y15067603D03*
X-44496078Y18908593D03*
X-44496078Y15726613D03*
X-43837068Y17317603D03*
%TD*%
%TO.P,H2,1,1*%
%TO.N,unconnected-(H2-Pad1)*%
X-27167738Y21457787D03*
X-26508728Y23048777D03*
X-26508728Y19866797D03*
X-24917738Y23707787D03*
D13*
X-24917738Y21457787D03*
D12*
X-24917738Y19207787D03*
X-23326748Y23048777D03*
X-23326748Y19866797D03*
X-22667738Y21457787D03*
%TD*%
%TO.P,H1,1,1*%
%TO.N,unconnected-(H1-Pad1)*%
X22504921Y39794635D03*
X23163931Y41385625D03*
X23163931Y38203645D03*
X24754921Y42044635D03*
D13*
X24754921Y39794635D03*
D12*
X24754921Y37544635D03*
X26345911Y41385625D03*
X26345911Y38203645D03*
X27004921Y39794635D03*
%TD*%
%TO.P,H9,1,1*%
%TO.N,unconnected-(H9-Pad1)*%
X-26802659Y39617136D03*
X-26143649Y41208126D03*
X-26143649Y38026146D03*
X-24552659Y41867136D03*
D13*
X-24552659Y39617136D03*
D12*
X-24552659Y37367136D03*
X-22961669Y41208126D03*
X-22961669Y38026146D03*
X-22302659Y39617136D03*
%TD*%
D10*
%TO.P,J2,1,Pin_1*%
%TO.N,+5V*%
X6185374Y44426420D03*
D11*
%TO.P,J2,2,Pin_2*%
%TO.N,GND*%
X3645374Y44426420D03*
%TO.P,J2,3,Pin_3*%
%TO.N,/TOF SCL*%
X1105374Y44426420D03*
%TO.P,J2,4,Pin_4*%
%TO.N,/TOF SDA*%
X-1434626Y44426420D03*
%TO.P,J2,5,Pin_5*%
%TO.N,unconnected-(J2-Pin_5-Pad5)*%
X-3974626Y44426420D03*
%TO.P,J2,6,Pin_6*%
%TO.N,/XSHUT n*%
X-6514626Y44426420D03*
%TD*%
D10*
%TO.P,J1,1,Pin_1*%
%TO.N,+5V*%
X-10849500Y-33259580D03*
D11*
%TO.P,J1,2,Pin_2*%
%TO.N,/TOF SCL*%
X-8309500Y-33259580D03*
%TO.P,J1,3,Pin_3*%
%TO.N,/TOF SDA*%
X-5769500Y-33259580D03*
%TO.P,J1,4,Pin_4*%
%TO.N,/C RX*%
X-3229500Y-33259580D03*
%TO.P,J1,5,Pin_5*%
%TO.N,/C TX*%
X-689500Y-33259580D03*
%TO.P,J1,6,Pin_6*%
%TO.N,/COM SCL*%
X1850500Y-33259580D03*
%TO.P,J1,7,Pin_7*%
%TO.N,/COM SDA*%
X4390500Y-33259580D03*
%TO.P,J1,8,Pin_8*%
%TO.N,GND*%
X6930500Y-33259580D03*
%TD*%
D12*
%TO.P,H3,1,1*%
%TO.N,unconnected-(H3-Pad1)*%
X22832262Y21457787D03*
X23491272Y23048777D03*
X23491272Y19866797D03*
X25082262Y23707787D03*
D13*
X25082262Y21457787D03*
D12*
X25082262Y19207787D03*
X26673252Y23048777D03*
X26673252Y19866797D03*
X27332262Y21457787D03*
%TD*%
%TO.P,H12,1,1*%
%TO.N,unconnected-(H12-Pad1)*%
X22542659Y-40056559D03*
X23201669Y-38465569D03*
X23201669Y-41647549D03*
X24792659Y-37806559D03*
D13*
X24792659Y-40056559D03*
D12*
X24792659Y-42306559D03*
X26383649Y-38465569D03*
X26383649Y-41647549D03*
X27042659Y-40056559D03*
%TD*%
D10*
%TO.P,J4,1,Pin_1*%
%TO.N,+5V*%
X-8546626Y-43965580D03*
D11*
%TO.P,J4,2,Pin_2*%
%TO.N,GND*%
X-6006626Y-43965580D03*
%TO.P,J4,3,Pin_3*%
%TO.N,/TOF SCL*%
X-3466626Y-43965580D03*
%TO.P,J4,4,Pin_4*%
%TO.N,/TOF SDA*%
X-926626Y-43965580D03*
%TO.P,J4,5,Pin_5*%
%TO.N,unconnected-(J4-Pin_5-Pad5)*%
X1613374Y-43965580D03*
%TO.P,J4,6,Pin_6*%
%TO.N,/XSHUT s*%
X4153374Y-43965580D03*
%TD*%
D12*
%TO.P,H8,1,1*%
%TO.N,unconnected-(H8-Pad1)*%
X-26840397Y-39879060D03*
X-26181387Y-38288070D03*
X-26181387Y-41470050D03*
X-24590397Y-37629060D03*
D13*
X-24590397Y-39879060D03*
D12*
X-24590397Y-42129060D03*
X-22999407Y-38288070D03*
X-22999407Y-41470050D03*
X-22340397Y-39879060D03*
%TD*%
D14*
%TO.P,U2,JP1_1,VIN*%
%TO.N,+5V*%
X-39915626Y9882420D03*
%TO.P,U2,JP1_2,3VO*%
%TO.N,unconnected-(U2-3VO-PadJP1_2)*%
X-39915626Y7342420D03*
%TO.P,U2,JP1_3,GND*%
%TO.N,GND*%
X-39915626Y4802420D03*
%TO.P,U2,JP1_4,SCL*%
%TO.N,/COM SCL*%
X-39915626Y2262420D03*
%TO.P,U2,JP1_5,SDA*%
%TO.N,/COM SDA*%
X-39915626Y-277580D03*
%TO.P,U2,JP1_6,~{INT}*%
%TO.N,unconnected-(U2-~{INT}-PadJP1_6)*%
X-39915626Y-2817580D03*
%TO.P,U2,JP2_1,BT*%
%TO.N,unconnected-(U2-BT-PadJP2_1)*%
X-22135626Y9882420D03*
%TO.P,U2,JP2_2,P0*%
%TO.N,unconnected-(U2-P0-PadJP2_2)*%
X-22135626Y7342420D03*
%TO.P,U2,JP2_3,P1*%
%TO.N,unconnected-(U2-P1-PadJP2_3)*%
X-22135626Y4802420D03*
%TO.P,U2,JP2_4,~{RST}*%
%TO.N,unconnected-(U2-~{RST}-PadJP2_4)*%
X-22135626Y2262420D03*
%TO.P,U2,JP2_5,DI*%
%TO.N,unconnected-(U2-DI-PadJP2_5)*%
X-22135626Y-277580D03*
%TO.P,U2,JP2_6,CS*%
%TO.N,unconnected-(U2-CS-PadJP2_6)*%
X-22135626Y-2817580D03*
%TD*%
D10*
%TO.P,U3,1,PA02_A0_D0*%
%TO.N,/XSHUT n*%
X23660000Y9120420D03*
D11*
%TO.P,U3,2,PA4_A1_D1*%
%TO.N,/XSHUT w*%
X23660000Y6580420D03*
%TO.P,U3,3,PA10_A2_D2*%
%TO.N,/XSHUT s*%
X23660000Y4040420D03*
%TO.P,U3,4,PA11_A3_D3*%
%TO.N,/XSHUT f*%
X23660000Y1500420D03*
%TO.P,U3,5,PA8_A4_D4_SDA*%
%TO.N,unconnected-(U3-PA8_A4_D4_SDA-Pad5)*%
X23660000Y-1039580D03*
%TO.P,U3,6,PA9_A5_D5_SCL*%
%TO.N,unconnected-(U3-PA9_A5_D5_SCL-Pad6)*%
X23660000Y-3579580D03*
%TO.P,U3,7,PB08_A6_D6_TX*%
%TO.N,unconnected-(U3-PB08_A6_D6_TX-Pad7)*%
X23660000Y-6119580D03*
%TO.P,U3,8,PB09_A7_D7_RX*%
%TO.N,unconnected-(U3-PB09_A7_D7_RX-Pad8)*%
X39825000Y-6119580D03*
%TO.P,U3,9,PA7_A8_D8_SCK*%
%TO.N,unconnected-(U3-PA7_A8_D8_SCK-Pad9)*%
X39825000Y-3579580D03*
%TO.P,U3,10,PA5_A9_D9_MISO*%
%TO.N,unconnected-(U3-PA5_A9_D9_MISO-Pad10)*%
X39825000Y-1039580D03*
%TO.P,U3,11,PA6_A10_D10_MOSI*%
%TO.N,unconnected-(U3-PA6_A10_D10_MOSI-Pad11)*%
X39825000Y1500420D03*
%TO.P,U3,12,3V3*%
%TO.N,unconnected-(U3-3V3-Pad12)*%
X39825000Y4040420D03*
%TO.P,U3,13,GND*%
%TO.N,GND*%
X39825000Y6580420D03*
D10*
%TO.P,U3,14,5V*%
%TO.N,Net-(D1-K)*%
X39825000Y9120420D03*
%TD*%
D12*
%TO.P,H7,1,1*%
%TO.N,unconnected-(H7-Pad1)*%
X22832262Y-21542213D03*
X23491272Y-19951223D03*
X23491272Y-23133203D03*
X25082262Y-19292213D03*
D13*
X25082262Y-21542213D03*
D12*
X25082262Y-23792213D03*
X26673252Y-19951223D03*
X26673252Y-23133203D03*
X27332262Y-21542213D03*
%TD*%
D10*
%TO.P,J6,1,Pin_1*%
%TO.N,+5V*%
X-45884626Y6072420D03*
D11*
%TO.P,J6,2,Pin_2*%
%TO.N,GND*%
X-45884626Y3532420D03*
%TO.P,J6,3,Pin_3*%
%TO.N,/TOF SCL*%
X-45884626Y992420D03*
%TO.P,J6,4,Pin_4*%
%TO.N,/TOF SDA*%
X-45884626Y-1547580D03*
%TO.P,J6,5,Pin_5*%
%TO.N,unconnected-(J6-Pin_5-Pad5)*%
X-45884626Y-4087580D03*
%TO.P,J6,6,Pin_6*%
%TO.N,/XSHUT w*%
X-45884626Y-6627580D03*
%TD*%
D12*
%TO.P,H4,1,1*%
%TO.N,unconnected-(H4-Pad1)*%
X44039331Y17495101D03*
X44698341Y19086091D03*
X44698341Y15904111D03*
X46289331Y19745101D03*
D13*
X46289331Y17495101D03*
D12*
X46289331Y15245101D03*
X47880321Y19086091D03*
X47880321Y15904111D03*
X48539331Y17495101D03*
%TD*%
%TO.P,H5,1,1*%
%TO.N,unconnected-(H5-Pad1)*%
X-48374807Y-17579526D03*
X-47715797Y-15988536D03*
X-47715797Y-19170516D03*
X-46124807Y-15329526D03*
D13*
X-46124807Y-17579526D03*
D12*
X-46124807Y-19829526D03*
X-44533817Y-15988536D03*
X-44533817Y-19170516D03*
X-43874807Y-17579526D03*
%TD*%
D10*
%TO.P,J5,0*%
%TO.N,N/C*%
X16210944Y16756000D03*
D11*
%TO.P,J5,1,Pin_1*%
%TO.N,unconnected-(J5-Pin_1-Pad1)*%
X13670944Y16756000D03*
%TO.P,J5,2,Pin_2*%
%TO.N,unconnected-(J5-Pin_2-Pad2)*%
X16210944Y19296000D03*
%TO.P,J5,3,Pin_3*%
%TO.N,unconnected-(J5-Pin_3-Pad3)*%
X13670944Y19296000D03*
%TO.P,J5,4,Pin_4*%
%TO.N,/C RX*%
X16210944Y21836000D03*
%TO.P,J5,5,Pin_5*%
%TO.N,unconnected-(J5-Pin_5-Pad5)*%
X13670944Y21836000D03*
%TO.P,J5,6,Pin_6*%
%TO.N,/C TX*%
X16210944Y24376000D03*
%TO.P,J5,7,Pin_7*%
%TO.N,unconnected-(J5-Pin_7-Pad7)*%
X13670944Y24376000D03*
%TO.P,J5,8,Pin_8*%
%TO.N,unconnected-(J5-Pin_8-Pad8)*%
X16210944Y26916000D03*
%TO.P,J5,9,Pin_9*%
%TO.N,unconnected-(J5-Pin_9-Pad9)*%
X13670944Y26916000D03*
%TO.P,J5,10,Pin_10*%
%TO.N,unconnected-(J5-Pin_10-Pad10)*%
X16210944Y29456000D03*
%TO.P,J5,11,Pin_11*%
%TO.N,unconnected-(J5-Pin_11-Pad11)*%
X13670944Y29456000D03*
%TO.P,J5,12,Pin_12*%
%TO.N,unconnected-(J5-Pin_12-Pad12)*%
X16210944Y31996000D03*
%TO.P,J5,13,Pin_13*%
%TO.N,unconnected-(J5-Pin_13-Pad13)*%
X13670944Y31996000D03*
%TO.P,J5,14,Pin_14*%
%TO.N,unconnected-(J5-Pin_14-Pad14)*%
X16210944Y34536000D03*
%TO.P,J5,15,Pin_15*%
%TO.N,unconnected-(J5-Pin_15-Pad15)*%
X13670944Y34536000D03*
%TO.P,J5,16,Pin_16*%
%TO.N,unconnected-(J5-Pin_16-Pad16)*%
X-13649056Y16776000D03*
D10*
%TO.P,J5,17,Pin_17*%
%TO.N,unconnected-(J5-Pin_17-Pad17)*%
X-16189056Y16776000D03*
D11*
%TO.P,J5,18,Pin_18*%
%TO.N,unconnected-(J5-Pin_18-Pad18)*%
X-13649056Y19316000D03*
%TO.P,J5,19,Pin_19*%
%TO.N,unconnected-(J5-Pin_19-Pad19)*%
X-16189056Y19316000D03*
%TO.P,J5,20,Pin_20*%
%TO.N,unconnected-(J5-Pin_20-Pad20)*%
X-13649056Y21856000D03*
%TO.P,J5,21,Pin_21*%
%TO.N,unconnected-(J5-Pin_21-Pad21)*%
X-16189056Y21856000D03*
%TO.P,J5,22,Pin_22*%
%TO.N,unconnected-(J5-Pin_22-Pad22)*%
X-13649056Y24396000D03*
%TO.P,J5,23,Pin_23*%
%TO.N,unconnected-(J5-Pin_23-Pad23)*%
X-16189056Y24396000D03*
%TO.P,J5,24,Pin_24*%
%TO.N,unconnected-(J5-Pin_24-Pad24)*%
X-13649056Y26936000D03*
%TO.P,J5,25,Pin_25*%
%TO.N,unconnected-(J5-Pin_25-Pad25)*%
X-16189056Y26936000D03*
%TO.P,J5,26,Pin_26*%
%TO.N,unconnected-(J5-Pin_26-Pad26)*%
X-13649056Y29476000D03*
%TO.P,J5,27,Pin_27*%
%TO.N,unconnected-(J5-Pin_27-Pad27)*%
X-16189056Y29476000D03*
%TO.P,J5,28,Pin_28*%
%TO.N,unconnected-(J5-Pin_28-Pad28)*%
X-13649056Y32016000D03*
%TO.P,J5,29,Pin_29*%
%TO.N,unconnected-(J5-Pin_29-Pad29)*%
X-16189056Y32016000D03*
%TO.P,J5,30,Pin_30*%
%TO.N,+5V*%
X-13649056Y34556000D03*
%TO.P,J5,31,Pin_31*%
%TO.N,GND*%
X-16189056Y34556000D03*
D12*
%TO.P,J5,X*%
%TO.N,N/C*%
X17092944Y-5207000D03*
X16390000Y-6904056D03*
X16390000Y-3509944D03*
X14692944Y-7607000D03*
D15*
X14692944Y-5207000D03*
D12*
X14692944Y-2807000D03*
X12995888Y-6904056D03*
X12995888Y-3509944D03*
X12292944Y-5207000D03*
X-12371056Y-5207000D03*
X-13074000Y-6904056D03*
X-13074000Y-3509944D03*
X-14771056Y-7607000D03*
D15*
X-14771056Y-5207000D03*
D12*
X-14771056Y-2807000D03*
X-16468112Y-6904056D03*
X-16468112Y-3509944D03*
X-17171056Y-5207000D03*
%TD*%
%TO.P,H6,1,1*%
%TO.N,unconnected-(H6-Pad1)*%
X-27167738Y-21542213D03*
X-26508728Y-19951223D03*
X-26508728Y-23133203D03*
X-24917738Y-19292213D03*
D13*
X-24917738Y-21542213D03*
D12*
X-24917738Y-23792213D03*
X-23326748Y-19951223D03*
X-23326748Y-23133203D03*
X-22667738Y-21542213D03*
%TD*%
%TO.P,H11,1,1*%
%TO.N,unconnected-(H11-Pad1)*%
X44077070Y-17757024D03*
X44736080Y-16166034D03*
X44736080Y-19348014D03*
X46327070Y-15507024D03*
D13*
X46327070Y-17757024D03*
D12*
X46327070Y-20007024D03*
X47918060Y-16166034D03*
X47918060Y-19348014D03*
X48577070Y-17757024D03*
%TD*%
D16*
%TO.N,/XSHUT w*%
X5169374Y-2055580D03*
%TO.N,/TOF SDA*%
X24473374Y-32789580D03*
X-33184626Y-20343580D03*
X2537374Y39722420D03*
%TO.N,/TOF SCL*%
X-31914626Y-19327580D03*
X24638000Y-30480000D03*
%TO.N,+5V*%
X4661374Y-38377580D03*
X-1035938Y35566791D03*
X14567374Y-38377580D03*
%TD*%
D17*
%TO.N,/XSHUT w*%
X23660000Y6580420D02*
X13805374Y6580420D01*
X5169374Y-2055580D02*
X13678374Y6453420D01*
X13805374Y6580420D02*
X13678374Y6453420D01*
%TO.N,/XSHUT f*%
X25489374Y1500420D02*
X35395374Y11406420D01*
X41745374Y11406420D02*
X45555374Y7596420D01*
X23660000Y1500420D02*
X25489374Y1500420D01*
X35395374Y11406420D02*
X41745374Y11406420D01*
D18*
%TO.N,/TOF SDA*%
X117374Y39722420D02*
X-1232626Y41072420D01*
X2537374Y39722420D02*
X117374Y39722420D01*
D17*
X-5697288Y-33297580D02*
X-5707999Y-33308291D01*
X-926626Y-43965580D02*
X851374Y-45743580D01*
X-18198626Y-35329580D02*
X-17944626Y-35329580D01*
X-17944626Y-35329580D02*
X-7729288Y-35329580D01*
X-17944626Y-35329580D02*
X-18706626Y-35329580D01*
D18*
X-1434626Y41274420D02*
X-1434626Y44426420D01*
X-1232626Y41072420D02*
X-1434626Y41274420D01*
D17*
X851374Y-45743580D02*
X11519374Y-45743580D01*
X-33184626Y-20851580D02*
X-19214626Y-34821580D01*
X-18706626Y-35329580D02*
X-19214626Y-34821580D01*
X-5752626Y-33352918D02*
X-5752626Y-33297580D01*
X-19214626Y-34821580D02*
X-18833626Y-35202580D01*
X11519374Y-45743580D02*
X24473374Y-32789580D01*
X-7729288Y-35329580D02*
X-5752626Y-33352918D01*
X-33184626Y-20343580D02*
X-33184626Y-20851580D01*
X-5752626Y-33297580D02*
X-5697288Y-33297580D01*
X-18452626Y-35329580D02*
X-18198626Y-35329580D01*
%TO.N,/TOF SCL*%
X-10036710Y-31519580D02*
X-20484626Y-31519580D01*
X-8292626Y-33263664D02*
X-10036710Y-31519580D01*
X-20484626Y-31519580D02*
X-31914626Y-20089580D01*
X-3466626Y-43965580D02*
X-1759149Y-42258103D01*
X-1759149Y-42258103D02*
X12859897Y-42258103D01*
X12859897Y-42258103D02*
X24638000Y-30480000D01*
X-8292626Y-33297580D02*
X-8292626Y-33263664D01*
X-31914626Y-20089580D02*
X-31914626Y-19327580D01*
X-8247999Y-33308291D02*
X-8258710Y-33297580D01*
X-8258710Y-33297580D02*
X-8292626Y-33297580D01*
D18*
%TO.N,/COM SDA*%
X-38057168Y-19454580D02*
X-38057168Y-19755122D01*
X388001Y-37372291D02*
X4407374Y-33352918D01*
X-20440000Y-37372291D02*
X388001Y-37372291D01*
X-38057168Y-19755122D02*
X-20440000Y-37372291D01*
X-38057168Y-19454580D02*
X-38057168Y-2136038D01*
X4407374Y-33352918D02*
X4407374Y-33297580D01*
X-38057168Y-2136038D02*
X-38461145Y-1732061D01*
X4407374Y-33297580D02*
X4462712Y-33297580D01*
D17*
X-39915626Y-277580D02*
X-38461145Y-1732061D01*
D18*
X4462712Y-33297580D02*
X4452001Y-33308291D01*
%TO.N,/COM SCL*%
X-19722626Y-36345580D02*
X-20186000Y-35882206D01*
X-37047523Y-986683D02*
X-40550626Y2516420D01*
X1912001Y-33308291D02*
X1922712Y-33297580D01*
X1867374Y-33297580D02*
X1867374Y-33352918D01*
X1867374Y-33352918D02*
X-1125288Y-36345580D01*
X-1125288Y-36345580D02*
X-19722626Y-36345580D01*
X-37047523Y-18986767D02*
X-37047523Y-986683D01*
X1922712Y-33297580D02*
X1867374Y-33297580D01*
X-20186000Y-35882206D02*
X-20186000Y-35848291D01*
X-20186000Y-35848291D02*
X-37047523Y-18986767D01*
%TO.N,/C TX*%
X-9010000Y-24926291D02*
X-672626Y-33297580D01*
X16390000Y24349709D02*
X18134085Y24349709D01*
X20962000Y15205709D02*
X-9010000Y-14766291D01*
X-672626Y-33297580D02*
X-627999Y-33308291D01*
X20962000Y21521794D02*
X20962000Y15205709D01*
X-9010000Y-14766291D02*
X-9010000Y-24926291D01*
X18134085Y24349709D02*
X20962000Y21521794D01*
%TO.N,/C RX*%
X19438000Y20285709D02*
X19438000Y16475709D01*
X-3212626Y-33263664D02*
X-3212626Y-33297580D01*
X19438000Y16475709D02*
X-11550000Y-14512291D01*
X-11550000Y-14512291D02*
X-11550000Y-24926290D01*
X16390000Y21809709D02*
X17914000Y21809709D01*
X-3212626Y-33297580D02*
X-3178710Y-33297580D01*
X-11550000Y-24926290D02*
X-3212626Y-33263664D01*
X17914000Y21809709D02*
X19438000Y20285709D01*
X-3178710Y-33297580D02*
X-3167999Y-33308291D01*
D19*
%TO.N,+5V*%
X-40550626Y16889374D02*
X-40550626Y10771420D01*
X-40169626Y10136420D02*
X-39915626Y9882420D01*
X6185374Y39470420D02*
X6185374Y44426420D01*
X-40550626Y10771420D02*
X-40550626Y10517420D01*
X4599374Y37884420D02*
X6185374Y39470420D01*
X-1035938Y35566791D02*
X1019690Y37622420D01*
X4599374Y37884420D02*
X5837374Y39122420D01*
X-13649056Y34556000D02*
X-16783056Y37690000D01*
X-40550626Y10771420D02*
X-40550626Y10136420D01*
X4337374Y37622420D02*
X4599374Y37884420D01*
X-40550626Y10517420D02*
X-39915626Y9882420D01*
X-45884626Y8866420D02*
X-44614626Y10136420D01*
X-40550626Y10136420D02*
X-41185626Y10136420D01*
X-45884626Y8866420D02*
X-45884626Y6072420D01*
X-41185626Y10136420D02*
X-44614626Y10136420D01*
X14567374Y-38377580D02*
X4661374Y-38377580D01*
X-41185626Y10136420D02*
X-40169626Y10136420D01*
X-16783056Y37690000D02*
X-19750000Y37690000D01*
X-19750000Y37690000D02*
X-40550626Y16889374D01*
X1019690Y37622420D02*
X4337374Y37622420D01*
%TD*%
%TA.AperFunction,Conductor*%
%TO.N,GND*%
G36*
X41780319Y47279679D02*
G01*
X41975413Y47266608D01*
X41981980Y47265724D01*
X42171954Y47227074D01*
X42178337Y47225324D01*
X42361459Y47161676D01*
X42367549Y47159090D01*
X42540544Y47071580D01*
X42546226Y47068212D01*
X42691769Y46968186D01*
X42706003Y46958403D01*
X42711200Y46954295D01*
X42855863Y46823281D01*
X42858214Y46821003D01*
X54002674Y35280580D01*
X54151008Y35126976D01*
X54197538Y35078792D01*
X54199664Y35076444D01*
X54243768Y35024499D01*
X54320721Y34933864D01*
X54324500Y34928787D01*
X54425493Y34773267D01*
X54425495Y34773265D01*
X54428599Y34767740D01*
X54508921Y34600590D01*
X54511296Y34594714D01*
X54569622Y34418690D01*
X54571225Y34412564D01*
X54586707Y34332918D01*
X54606609Y34230525D01*
X54607418Y34224239D01*
X54619399Y34037251D01*
X54619500Y34034085D01*
X54619500Y33915900D01*
X54619501Y33915875D01*
X54619500Y-34354711D01*
X54619498Y-34354788D01*
X54619500Y-34473871D01*
X54619399Y-34477038D01*
X54607442Y-34663667D01*
X54606633Y-34669953D01*
X54571254Y-34851976D01*
X54569649Y-34858107D01*
X54511322Y-35034129D01*
X54508949Y-35040001D01*
X54503934Y-35050440D01*
X54428633Y-35207134D01*
X54425528Y-35212658D01*
X54411727Y-35233910D01*
X54324531Y-35368176D01*
X54320746Y-35373260D01*
X54199626Y-35515904D01*
X54197500Y-35518252D01*
X54156470Y-35560737D01*
X54116642Y-35601979D01*
X54116639Y-35601982D01*
X54115621Y-35603037D01*
X54115602Y-35603058D01*
X42940362Y-47175356D01*
X42940355Y-47175363D01*
X42866701Y-47251634D01*
X42858451Y-47260178D01*
X42856070Y-47262483D01*
X42711168Y-47393722D01*
X42705970Y-47397832D01*
X42546219Y-47507627D01*
X42540519Y-47511007D01*
X42367553Y-47598503D01*
X42361454Y-47601092D01*
X42178352Y-47664733D01*
X42171961Y-47666485D01*
X41982013Y-47705127D01*
X41975445Y-47706011D01*
X41780034Y-47719098D01*
X41776725Y-47719209D01*
X41663404Y-47719207D01*
X41660631Y-47719207D01*
X41660630Y-47719207D01*
X41659266Y-47719207D01*
X41659163Y-47719210D01*
X-41536997Y-47719210D01*
X-41540301Y-47719099D01*
X-41735393Y-47706024D01*
X-41741958Y-47705141D01*
X-41742027Y-47705127D01*
X-41931932Y-47666489D01*
X-41938317Y-47664739D01*
X-42121440Y-47601087D01*
X-42127529Y-47598503D01*
X-42300531Y-47510988D01*
X-42306228Y-47507610D01*
X-42386112Y-47452709D01*
X-42465997Y-47397806D01*
X-42471191Y-47393700D01*
X-42472058Y-47392914D01*
X-42616051Y-47262507D01*
X-42618404Y-47260229D01*
X-44955349Y-44840252D01*
X-9647126Y-44840252D01*
X-9647125Y-44840264D01*
X-9632593Y-44913316D01*
X-9632591Y-44913322D01*
X-9577229Y-44996179D01*
X-9577226Y-44996182D01*
X-9528702Y-45028604D01*
X-9494366Y-45051546D01*
X-9438818Y-45062595D01*
X-9421311Y-45066078D01*
X-9421306Y-45066078D01*
X-9421300Y-45066080D01*
X-9421299Y-45066080D01*
X-7671953Y-45066080D01*
X-7671952Y-45066080D01*
X-7598886Y-45051546D01*
X-7516025Y-44996181D01*
X-7460660Y-44913320D01*
X-7446126Y-44840254D01*
X-7446126Y-43965580D01*
X-4571841Y-43965580D01*
X-4553023Y-44168663D01*
X-4497208Y-44364830D01*
X-4406299Y-44547401D01*
X-4283390Y-44710159D01*
X-4132667Y-44847561D01*
X-3959263Y-44954928D01*
X-3769082Y-45028604D01*
X-3568602Y-45066080D01*
X-3364650Y-45066080D01*
X-3164170Y-45028604D01*
X-2973989Y-44954928D01*
X-2800585Y-44847561D01*
X-2649862Y-44710159D01*
X-2526953Y-44547401D01*
X-2436044Y-44364830D01*
X-2380229Y-44168663D01*
X-2361411Y-43965580D01*
X-2031841Y-43965580D01*
X-2013023Y-44168663D01*
X-1957208Y-44364830D01*
X-1866299Y-44547401D01*
X-1743390Y-44710159D01*
X-1592667Y-44847561D01*
X-1419263Y-44954928D01*
X-1229082Y-45028604D01*
X-1028602Y-45066080D01*
X-824650Y-45066080D01*
X-624170Y-45028604D01*
X-544367Y-44997687D01*
X-483275Y-44994298D01*
X-438600Y-45019999D01*
X590465Y-46049065D01*
X590466Y-46049065D01*
X613030Y-46071628D01*
X613032Y-46071630D01*
X634519Y-46082578D01*
X647760Y-46090692D01*
X667282Y-46104874D01*
X667283Y-46104874D01*
X667285Y-46104876D01*
X690235Y-46112332D01*
X704575Y-46118273D01*
X726070Y-46129226D01*
X749908Y-46133001D01*
X764985Y-46136621D01*
X787941Y-46144080D01*
X787944Y-46144080D01*
X11582806Y-46144080D01*
X11582807Y-46144080D01*
X11605756Y-46136623D01*
X11620839Y-46133001D01*
X11644678Y-46129226D01*
X11666176Y-46118270D01*
X11680525Y-46112328D01*
X11703464Y-46104876D01*
X11722986Y-46090691D01*
X11736223Y-46082580D01*
X11757716Y-46071630D01*
X11774635Y-46054709D01*
X11774639Y-46054707D01*
X11780281Y-46049065D01*
X11780283Y-46049064D01*
X17772787Y-40056559D01*
X21537385Y-40056559D01*
X21556467Y-40408516D01*
X21613491Y-40756352D01*
X21707783Y-41095959D01*
X21707785Y-41095964D01*
X21707786Y-41095968D01*
X21707788Y-41095973D01*
X21838252Y-41423413D01*
X22003354Y-41734828D01*
X22201158Y-42026567D01*
X22201162Y-42026572D01*
X22201163Y-42026573D01*
X22429340Y-42295204D01*
X22429350Y-42295214D01*
X22685235Y-42537602D01*
X22685239Y-42537605D01*
X22965841Y-42750913D01*
X23267861Y-42932633D01*
X23587758Y-43080633D01*
X23921781Y-43193178D01*
X23921786Y-43193179D01*
X23921789Y-43193180D01*
X24266009Y-43268949D01*
X24266010Y-43268949D01*
X24266014Y-43268950D01*
X24532887Y-43297974D01*
X24616421Y-43307059D01*
X24616422Y-43307059D01*
X24968897Y-43307059D01*
X25036350Y-43299722D01*
X25319304Y-43268950D01*
X25663528Y-43193180D01*
X25663529Y-43193180D01*
X25663531Y-43193179D01*
X25663537Y-43193178D01*
X25997560Y-43080633D01*
X26317457Y-42932633D01*
X26619477Y-42750913D01*
X26900079Y-42537605D01*
X27155973Y-42295209D01*
X27384160Y-42026567D01*
X27581964Y-41734828D01*
X27747066Y-41423413D01*
X27877530Y-41095973D01*
X27926815Y-40918465D01*
X27971826Y-40756352D01*
X28028850Y-40408516D01*
X28028850Y-40408515D01*
X28047933Y-40056559D01*
X28028850Y-39704602D01*
X27971827Y-39356771D01*
X27971826Y-39356770D01*
X27971826Y-39356765D01*
X27877534Y-39017158D01*
X27877532Y-39017153D01*
X27877530Y-39017145D01*
X27747066Y-38689705D01*
X27581964Y-38378290D01*
X27384160Y-38086551D01*
X27348662Y-38044760D01*
X27155977Y-37817913D01*
X27155967Y-37817903D01*
X26900082Y-37575515D01*
X26619481Y-37362208D01*
X26619480Y-37362207D01*
X26619477Y-37362205D01*
X26317457Y-37180485D01*
X26207593Y-37129656D01*
X25997565Y-37032487D01*
X25997562Y-37032486D01*
X25997560Y-37032485D01*
X25663537Y-36919940D01*
X25663536Y-36919939D01*
X25663528Y-36919937D01*
X25319308Y-36844168D01*
X25319309Y-36844168D01*
X24968897Y-36806059D01*
X24968896Y-36806059D01*
X24616422Y-36806059D01*
X24616421Y-36806059D01*
X24266008Y-36844168D01*
X23921790Y-36919937D01*
X23921788Y-36919937D01*
X23587752Y-37032487D01*
X23267869Y-37180481D01*
X23267863Y-37180484D01*
X22965841Y-37362205D01*
X22965836Y-37362208D01*
X22685235Y-37575515D01*
X22429350Y-37817903D01*
X22429340Y-37817913D01*
X22201163Y-38086544D01*
X22201158Y-38086550D01*
X22201158Y-38086551D01*
X22003354Y-38378290D01*
X21838252Y-38689705D01*
X21715166Y-38998629D01*
X21707785Y-39017153D01*
X21707783Y-39017158D01*
X21613491Y-39356765D01*
X21556467Y-39704601D01*
X21537385Y-40056559D01*
X17772787Y-40056559D01*
X24360270Y-33469075D01*
X24414787Y-33441299D01*
X24430274Y-33440080D01*
X24552356Y-33440080D01*
X24552359Y-33440080D01*
X24705739Y-33402276D01*
X24845614Y-33328863D01*
X24963857Y-33224110D01*
X25053594Y-33094103D01*
X25109611Y-32946398D01*
X25125783Y-32813207D01*
X25128652Y-32789581D01*
X25128652Y-32789578D01*
X25109611Y-32632763D01*
X25109611Y-32632762D01*
X25053594Y-32485057D01*
X24984465Y-32384906D01*
X24963858Y-32355051D01*
X24845615Y-32250298D01*
X24845614Y-32250297D01*
X24752810Y-32201589D01*
X24705738Y-32176883D01*
X24552361Y-32139080D01*
X24552359Y-32139080D01*
X24394389Y-32139080D01*
X24394386Y-32139080D01*
X24241009Y-32176883D01*
X24101132Y-32250298D01*
X23982889Y-32355051D01*
X23893154Y-32485056D01*
X23837137Y-32632762D01*
X23837136Y-32632763D01*
X23818096Y-32789578D01*
X23818096Y-32789582D01*
X23821909Y-32820989D01*
X23810153Y-32881034D01*
X23793635Y-32902925D01*
X11382477Y-45314084D01*
X11327960Y-45341861D01*
X11312473Y-45343080D01*
X1058275Y-45343080D01*
X1000084Y-45324173D01*
X988271Y-45314084D01*
X130710Y-44456523D01*
X102933Y-44402006D01*
X105492Y-44359428D01*
X159771Y-44168663D01*
X178589Y-43965580D01*
X508159Y-43965580D01*
X526977Y-44168663D01*
X582792Y-44364830D01*
X673701Y-44547401D01*
X796610Y-44710159D01*
X947333Y-44847561D01*
X1120737Y-44954928D01*
X1310918Y-45028604D01*
X1511398Y-45066080D01*
X1715350Y-45066080D01*
X1915830Y-45028604D01*
X2106011Y-44954928D01*
X2279415Y-44847561D01*
X2430138Y-44710159D01*
X2553047Y-44547401D01*
X2643956Y-44364830D01*
X2699771Y-44168663D01*
X2718589Y-43965580D01*
X3048159Y-43965580D01*
X3066977Y-44168663D01*
X3122792Y-44364830D01*
X3213701Y-44547401D01*
X3336610Y-44710159D01*
X3487333Y-44847561D01*
X3660737Y-44954928D01*
X3850918Y-45028604D01*
X4051398Y-45066080D01*
X4255350Y-45066080D01*
X4455830Y-45028604D01*
X4646011Y-44954928D01*
X4819415Y-44847561D01*
X4970138Y-44710159D01*
X5093047Y-44547401D01*
X5183956Y-44364830D01*
X5239771Y-44168663D01*
X5258589Y-43965580D01*
X5239771Y-43762497D01*
X5183956Y-43566330D01*
X5093047Y-43383759D01*
X4970138Y-43221001D01*
X4819415Y-43083599D01*
X4646011Y-42976232D01*
X4455830Y-42902556D01*
X4455829Y-42902555D01*
X4455827Y-42902555D01*
X4255350Y-42865080D01*
X4051398Y-42865080D01*
X3850920Y-42902555D01*
X3828708Y-42911160D01*
X3660737Y-42976232D01*
X3593538Y-43017840D01*
X3487333Y-43083599D01*
X3336611Y-43221000D01*
X3213702Y-43383757D01*
X3213697Y-43383766D01*
X3150547Y-43510590D01*
X3122792Y-43566330D01*
X3066977Y-43762497D01*
X3048159Y-43965580D01*
X2718589Y-43965580D01*
X2699771Y-43762497D01*
X2643956Y-43566330D01*
X2553047Y-43383759D01*
X2430138Y-43221001D01*
X2279415Y-43083599D01*
X2106011Y-42976232D01*
X1915830Y-42902556D01*
X1915829Y-42902555D01*
X1915827Y-42902555D01*
X1715350Y-42865080D01*
X1511398Y-42865080D01*
X1310920Y-42902555D01*
X1288708Y-42911160D01*
X1120737Y-42976232D01*
X1053538Y-43017840D01*
X947333Y-43083599D01*
X796611Y-43221000D01*
X673702Y-43383757D01*
X673697Y-43383766D01*
X610547Y-43510590D01*
X582792Y-43566330D01*
X526977Y-43762497D01*
X508159Y-43965580D01*
X178589Y-43965580D01*
X159771Y-43762497D01*
X103956Y-43566330D01*
X13047Y-43383759D01*
X-109862Y-43221001D01*
X-260585Y-43083599D01*
X-433989Y-42976232D01*
X-624170Y-42902556D01*
X-624171Y-42902555D01*
X-624173Y-42902555D01*
X-824650Y-42865080D01*
X-1028602Y-42865080D01*
X-1229080Y-42902555D01*
X-1251292Y-42911160D01*
X-1419263Y-42976232D01*
X-1486462Y-43017840D01*
X-1592667Y-43083599D01*
X-1743389Y-43221000D01*
X-1866298Y-43383757D01*
X-1866303Y-43383766D01*
X-1929453Y-43510590D01*
X-1957208Y-43566330D01*
X-2013023Y-43762497D01*
X-2031841Y-43965580D01*
X-2361411Y-43965580D01*
X-2380229Y-43762497D01*
X-2434508Y-43571728D01*
X-2432247Y-43510590D01*
X-2409293Y-43474638D01*
X-1622253Y-42687599D01*
X-1567736Y-42659822D01*
X-1552249Y-42658603D01*
X12923329Y-42658603D01*
X12923330Y-42658603D01*
X12946279Y-42651146D01*
X12961362Y-42647524D01*
X12985201Y-42643749D01*
X13006699Y-42632793D01*
X13021048Y-42626851D01*
X13043987Y-42619399D01*
X13063509Y-42605214D01*
X13076746Y-42597103D01*
X13098239Y-42586153D01*
X13115158Y-42569232D01*
X13115162Y-42569230D01*
X13120804Y-42563588D01*
X13120806Y-42563587D01*
X24524896Y-31159495D01*
X24579413Y-31131719D01*
X24594900Y-31130500D01*
X24716982Y-31130500D01*
X24716985Y-31130500D01*
X24870365Y-31092696D01*
X25010240Y-31019283D01*
X25128483Y-30914530D01*
X25218220Y-30784523D01*
X25274237Y-30636818D01*
X25293278Y-30480000D01*
X25274237Y-30323182D01*
X25218220Y-30175477D01*
X25128483Y-30045470D01*
X25010240Y-29940717D01*
X24940302Y-29904010D01*
X24870364Y-29867303D01*
X24716987Y-29829500D01*
X24716985Y-29829500D01*
X24559015Y-29829500D01*
X24559012Y-29829500D01*
X24405635Y-29867303D01*
X24265758Y-29940718D01*
X24147515Y-30045471D01*
X24057780Y-30175476D01*
X24001763Y-30323182D01*
X24001762Y-30323183D01*
X23982722Y-30479997D01*
X23982722Y-30480001D01*
X23986535Y-30511408D01*
X23974779Y-30571453D01*
X23958261Y-30593344D01*
X12723000Y-41828607D01*
X12668483Y-41856384D01*
X12652996Y-41857603D01*
X-1695716Y-41857603D01*
X-1822582Y-41857603D01*
X-1822584Y-41857603D01*
X-1822587Y-41857604D01*
X-1845525Y-41865056D01*
X-1860620Y-41868680D01*
X-1884448Y-41872455D01*
X-1884458Y-41872458D01*
X-1905947Y-41883408D01*
X-1920296Y-41889351D01*
X-1924983Y-41890874D01*
X-1943239Y-41896806D01*
X-1956905Y-41906735D01*
X-1962758Y-41910988D01*
X-1976001Y-41919103D01*
X-1997492Y-41930052D01*
X-1997492Y-41930053D01*
X-2066817Y-41999374D01*
X-2066834Y-41999395D01*
X-2978600Y-42911160D01*
X-3033117Y-42938937D01*
X-3084366Y-42933471D01*
X-3164170Y-42902556D01*
X-3364650Y-42865080D01*
X-3568602Y-42865080D01*
X-3769080Y-42902555D01*
X-3791292Y-42911160D01*
X-3959263Y-42976232D01*
X-4026462Y-43017840D01*
X-4132667Y-43083599D01*
X-4283389Y-43221000D01*
X-4406298Y-43383757D01*
X-4406303Y-43383766D01*
X-4469453Y-43510590D01*
X-4497208Y-43566330D01*
X-4553023Y-43762497D01*
X-4571841Y-43965580D01*
X-7446126Y-43965580D01*
X-7446126Y-43090906D01*
X-7460660Y-43017840D01*
X-7488461Y-42976232D01*
X-7516024Y-42934980D01*
X-7516027Y-42934977D01*
X-7598884Y-42879615D01*
X-7598886Y-42879614D01*
X-7598889Y-42879613D01*
X-7598890Y-42879613D01*
X-7671942Y-42865081D01*
X-7671952Y-42865080D01*
X-9421300Y-42865080D01*
X-9421301Y-42865080D01*
X-9421311Y-42865081D01*
X-9494363Y-42879613D01*
X-9494369Y-42879615D01*
X-9577226Y-42934977D01*
X-9577229Y-42934980D01*
X-9632591Y-43017837D01*
X-9632593Y-43017843D01*
X-9647125Y-43090895D01*
X-9647126Y-43090907D01*
X-9647126Y-44840252D01*
X-44955349Y-44840252D01*
X-49746317Y-39879059D01*
X-27845671Y-39879059D01*
X-27826589Y-40231017D01*
X-27769565Y-40578853D01*
X-27675273Y-40918460D01*
X-27675271Y-40918465D01*
X-27675270Y-40918469D01*
X-27675268Y-40918474D01*
X-27544804Y-41245914D01*
X-27379702Y-41557329D01*
X-27181898Y-41849068D01*
X-27181894Y-41849073D01*
X-27181893Y-41849074D01*
X-26953716Y-42117705D01*
X-26953706Y-42117715D01*
X-26697821Y-42360103D01*
X-26697817Y-42360106D01*
X-26417215Y-42573414D01*
X-26115195Y-42755134D01*
X-25795298Y-42903134D01*
X-25461275Y-43015679D01*
X-25461270Y-43015680D01*
X-25461267Y-43015681D01*
X-25117047Y-43091450D01*
X-25117046Y-43091450D01*
X-25117042Y-43091451D01*
X-24850169Y-43120475D01*
X-24766635Y-43129560D01*
X-24766634Y-43129560D01*
X-24414159Y-43129560D01*
X-24346706Y-43122223D01*
X-24063752Y-43091451D01*
X-24061280Y-43090907D01*
X-23949008Y-43066193D01*
X-23719528Y-43015681D01*
X-23719527Y-43015681D01*
X-23719525Y-43015680D01*
X-23719519Y-43015679D01*
X-23385496Y-42903134D01*
X-23065599Y-42755134D01*
X-22763579Y-42573414D01*
X-22482977Y-42360106D01*
X-22227083Y-42117710D01*
X-21998896Y-41849068D01*
X-21801092Y-41557329D01*
X-21635990Y-41245914D01*
X-21505526Y-40918474D01*
X-21460513Y-40756352D01*
X-21411230Y-40578853D01*
X-21354206Y-40231017D01*
X-21344747Y-40056559D01*
X-21335123Y-39879060D01*
X-21354206Y-39527103D01*
X-21411229Y-39179272D01*
X-21411230Y-39179271D01*
X-21411230Y-39179266D01*
X-21505522Y-38839659D01*
X-21505524Y-38839654D01*
X-21505526Y-38839646D01*
X-21635990Y-38512206D01*
X-21707363Y-38377582D01*
X4006096Y-38377582D01*
X4013168Y-38435833D01*
X4013431Y-38438690D01*
X4017317Y-38500440D01*
X4017318Y-38500443D01*
X4020253Y-38509478D01*
X4024373Y-38528117D01*
X4025135Y-38534394D01*
X4025136Y-38534397D01*
X4047153Y-38592453D01*
X4047947Y-38594709D01*
X4059988Y-38631769D01*
X4068106Y-38656751D01*
X4071238Y-38661686D01*
X4080209Y-38679612D01*
X4081154Y-38682102D01*
X4081154Y-38682103D01*
X4081155Y-38682105D01*
X4118889Y-38736772D01*
X4156167Y-38795513D01*
X4156169Y-38795515D01*
X4156172Y-38795520D01*
X4157759Y-38797010D01*
X4166907Y-38807642D01*
X4166922Y-38807629D01*
X4170890Y-38812109D01*
X4170891Y-38812110D01*
X4222970Y-38858248D01*
X4275981Y-38908028D01*
X4275984Y-38908029D01*
X4281020Y-38911689D01*
X4280975Y-38911749D01*
X4283934Y-38913834D01*
X4284196Y-38913455D01*
X4289130Y-38916860D01*
X4289131Y-38916860D01*
X4289134Y-38916863D01*
X4353522Y-38950657D01*
X4390304Y-38970878D01*
X4420004Y-38987206D01*
X4420011Y-38987209D01*
X4420158Y-38987247D01*
X4425400Y-38988908D01*
X4429004Y-38990274D01*
X4429006Y-38990274D01*
X4429009Y-38990276D01*
X4502678Y-39008433D01*
X4579197Y-39028080D01*
X4579198Y-39028080D01*
X14646355Y-39028080D01*
X14646359Y-39028080D01*
X14683602Y-39018900D01*
X14689219Y-39017857D01*
X14730432Y-39012651D01*
X14762733Y-38999860D01*
X14769087Y-38997830D01*
X14799739Y-38990276D01*
X14836718Y-38970866D01*
X14841463Y-38968689D01*
X14883245Y-38952148D01*
X14905698Y-38935834D01*
X14917856Y-38928281D01*
X14939614Y-38916863D01*
X14973396Y-38886935D01*
X14977128Y-38883938D01*
X15016211Y-38855543D01*
X15031572Y-38836973D01*
X15042200Y-38825979D01*
X15057857Y-38812110D01*
X15085425Y-38772169D01*
X15088022Y-38768738D01*
X15090088Y-38766240D01*
X15120974Y-38728906D01*
X15129682Y-38710397D01*
X15137778Y-38696321D01*
X15147594Y-38682103D01*
X15166016Y-38633522D01*
X15167486Y-38630059D01*
X15190953Y-38580193D01*
X15194102Y-38563683D01*
X15198780Y-38547134D01*
X15203611Y-38534398D01*
X15210278Y-38479485D01*
X15210789Y-38476205D01*
X15221750Y-38418750D01*
X15220924Y-38405628D01*
X15221451Y-38387470D01*
X15222652Y-38377583D01*
X15222652Y-38377580D01*
X15215578Y-38319323D01*
X15215314Y-38316464D01*
X15211430Y-38254720D01*
X15211429Y-38254716D01*
X15208495Y-38245686D01*
X15204371Y-38227023D01*
X15203611Y-38220764D01*
X15203611Y-38220762D01*
X15181583Y-38162681D01*
X15180809Y-38160478D01*
X15160642Y-38098409D01*
X15160640Y-38098406D01*
X15160640Y-38098405D01*
X15157508Y-38093469D01*
X15148536Y-38075542D01*
X15147594Y-38073057D01*
X15109858Y-38018387D01*
X15072576Y-37959640D01*
X15070989Y-37958150D01*
X15061842Y-37947518D01*
X15061827Y-37947532D01*
X15057858Y-37943052D01*
X15057857Y-37943050D01*
X15005777Y-37896911D01*
X14952767Y-37847132D01*
X14952766Y-37847131D01*
X14947728Y-37843471D01*
X14947771Y-37843411D01*
X14944804Y-37841320D01*
X14944543Y-37841700D01*
X14939611Y-37838295D01*
X14903457Y-37819320D01*
X14875225Y-37804502D01*
X14838448Y-37784284D01*
X14808745Y-37767954D01*
X14808735Y-37767950D01*
X14808586Y-37767912D01*
X14803355Y-37766255D01*
X14799740Y-37764884D01*
X14726069Y-37746726D01*
X14649553Y-37727080D01*
X14649551Y-37727080D01*
X4740359Y-37727080D01*
X4582389Y-37727080D01*
X4582382Y-37727080D01*
X4545157Y-37736255D01*
X4539514Y-37737303D01*
X4498316Y-37742509D01*
X4498311Y-37742510D01*
X4466025Y-37755293D01*
X4459644Y-37757332D01*
X4429015Y-37764881D01*
X4429006Y-37764885D01*
X4392042Y-37784284D01*
X4387260Y-37786478D01*
X4345503Y-37803011D01*
X4345502Y-37803012D01*
X4323054Y-37819320D01*
X4310880Y-37826882D01*
X4289134Y-37838296D01*
X4255344Y-37868229D01*
X4251616Y-37871223D01*
X4212535Y-37899617D01*
X4197174Y-37918185D01*
X4186550Y-37929176D01*
X4170888Y-37943052D01*
X4143324Y-37982986D01*
X4140726Y-37986420D01*
X4107774Y-38026253D01*
X4107770Y-38026259D01*
X4099064Y-38044760D01*
X4090966Y-38058839D01*
X4081158Y-38073048D01*
X4081152Y-38073060D01*
X4062747Y-38121592D01*
X4061252Y-38125116D01*
X4037797Y-38174959D01*
X4037793Y-38174973D01*
X4034644Y-38191476D01*
X4029968Y-38208017D01*
X4025139Y-38220750D01*
X4025137Y-38220760D01*
X4018470Y-38275659D01*
X4017954Y-38278967D01*
X4006998Y-38336408D01*
X4006997Y-38336414D01*
X4007823Y-38349544D01*
X4007297Y-38367682D01*
X4006096Y-38377578D01*
X4006096Y-38377582D01*
X-21707363Y-38377582D01*
X-21801092Y-38200791D01*
X-21998896Y-37909052D01*
X-22031028Y-37871223D01*
X-22227079Y-37640414D01*
X-22227089Y-37640404D01*
X-22482974Y-37398016D01*
X-22763575Y-37184709D01*
X-22763576Y-37184708D01*
X-22763579Y-37184706D01*
X-23065599Y-37002986D01*
X-23245100Y-36919940D01*
X-23385491Y-36854988D01*
X-23385494Y-36854987D01*
X-23385496Y-36854986D01*
X-23719519Y-36742441D01*
X-23719520Y-36742440D01*
X-23719528Y-36742438D01*
X-24063748Y-36666669D01*
X-24063747Y-36666669D01*
X-24414159Y-36628560D01*
X-24414160Y-36628560D01*
X-24766634Y-36628560D01*
X-24766635Y-36628560D01*
X-25117048Y-36666669D01*
X-25461266Y-36742438D01*
X-25461268Y-36742438D01*
X-25795304Y-36854988D01*
X-26115187Y-37002982D01*
X-26115193Y-37002985D01*
X-26115195Y-37002986D01*
X-26164226Y-37032487D01*
X-26417215Y-37184706D01*
X-26417220Y-37184709D01*
X-26697821Y-37398016D01*
X-26953706Y-37640404D01*
X-26953716Y-37640414D01*
X-27181893Y-37909045D01*
X-27181900Y-37909055D01*
X-27362187Y-38174959D01*
X-27379702Y-38200791D01*
X-27544804Y-38512206D01*
X-27669820Y-38825974D01*
X-27675271Y-38839654D01*
X-27675273Y-38839659D01*
X-27769565Y-39179266D01*
X-27826589Y-39527102D01*
X-27845671Y-39879059D01*
X-49746317Y-39879059D01*
X-50657167Y-38935846D01*
X-53957510Y-35518240D01*
X-53959638Y-35515891D01*
X-54080704Y-35373296D01*
X-54084488Y-35368213D01*
X-54089576Y-35360379D01*
X-54185497Y-35212669D01*
X-54188597Y-35207151D01*
X-54268931Y-35039983D01*
X-54271305Y-35034107D01*
X-54329643Y-34858057D01*
X-54331246Y-34851936D01*
X-54366641Y-34669878D01*
X-54367448Y-34663601D01*
X-54375535Y-34537487D01*
X-54379400Y-34477213D01*
X-54379500Y-34474061D01*
X-54379500Y-17579525D01*
X-49380081Y-17579525D01*
X-49360999Y-17931483D01*
X-49303975Y-18279319D01*
X-49209683Y-18618926D01*
X-49209681Y-18618931D01*
X-49209680Y-18618935D01*
X-49209678Y-18618940D01*
X-49079214Y-18946380D01*
X-48914112Y-19257795D01*
X-48716308Y-19549534D01*
X-48716304Y-19549539D01*
X-48716303Y-19549540D01*
X-48488126Y-19818171D01*
X-48488116Y-19818181D01*
X-48232231Y-20060569D01*
X-48232227Y-20060572D01*
X-47951625Y-20273880D01*
X-47649605Y-20455600D01*
X-47329708Y-20603600D01*
X-46995685Y-20716145D01*
X-46995680Y-20716146D01*
X-46995677Y-20716147D01*
X-46651457Y-20791916D01*
X-46651456Y-20791916D01*
X-46651452Y-20791917D01*
X-46384579Y-20820941D01*
X-46301045Y-20830026D01*
X-46301044Y-20830026D01*
X-45948569Y-20830026D01*
X-45881116Y-20822689D01*
X-45598162Y-20791917D01*
X-45548997Y-20781095D01*
X-45483418Y-20766659D01*
X-45253938Y-20716147D01*
X-45253937Y-20716147D01*
X-45253935Y-20716146D01*
X-45253929Y-20716145D01*
X-44919906Y-20603600D01*
X-44600009Y-20455600D01*
X-44297989Y-20273880D01*
X-44017387Y-20060572D01*
X-43761493Y-19818176D01*
X-43533306Y-19549534D01*
X-43335502Y-19257795D01*
X-43170400Y-18946380D01*
X-43039936Y-18618940D01*
X-43011949Y-18518141D01*
X-42945640Y-18279319D01*
X-42888616Y-17931483D01*
X-42879157Y-17757023D01*
X-42869533Y-17579526D01*
X-42888616Y-17227569D01*
X-42945639Y-16879738D01*
X-42945640Y-16879737D01*
X-42945640Y-16879732D01*
X-43039932Y-16540125D01*
X-43039934Y-16540120D01*
X-43039936Y-16540112D01*
X-43170400Y-16212672D01*
X-43335502Y-15901257D01*
X-43533306Y-15609518D01*
X-43610721Y-15518378D01*
X-43761489Y-15340880D01*
X-43761499Y-15340870D01*
X-44017384Y-15098482D01*
X-44297985Y-14885175D01*
X-44297986Y-14885174D01*
X-44297989Y-14885172D01*
X-44600009Y-14703452D01*
X-44825577Y-14599093D01*
X-44919901Y-14555454D01*
X-44919904Y-14555453D01*
X-44919906Y-14555452D01*
X-45253929Y-14442907D01*
X-45253930Y-14442906D01*
X-45253938Y-14442904D01*
X-45598158Y-14367135D01*
X-45598157Y-14367135D01*
X-45948569Y-14329026D01*
X-45948570Y-14329026D01*
X-46301044Y-14329026D01*
X-46301045Y-14329026D01*
X-46651458Y-14367135D01*
X-46995676Y-14442904D01*
X-46995678Y-14442904D01*
X-47329714Y-14555454D01*
X-47649597Y-14703448D01*
X-47649603Y-14703451D01*
X-47649605Y-14703452D01*
X-47662753Y-14711363D01*
X-47951625Y-14885172D01*
X-47951630Y-14885175D01*
X-48232231Y-15098482D01*
X-48488116Y-15340870D01*
X-48488126Y-15340880D01*
X-48716303Y-15609511D01*
X-48716308Y-15609517D01*
X-48716308Y-15609518D01*
X-48914112Y-15901257D01*
X-49079215Y-16212671D01*
X-49079214Y-16212672D01*
X-49209681Y-16540120D01*
X-49209683Y-16540125D01*
X-49303975Y-16879732D01*
X-49360999Y-17227568D01*
X-49380081Y-17579525D01*
X-54379500Y-17579525D01*
X-54379500Y-6627580D01*
X-46989841Y-6627580D01*
X-46971023Y-6830663D01*
X-46915208Y-7026830D01*
X-46824299Y-7209401D01*
X-46701390Y-7372159D01*
X-46550667Y-7509561D01*
X-46377263Y-7616928D01*
X-46187082Y-7690604D01*
X-45986602Y-7728080D01*
X-45782650Y-7728080D01*
X-45582170Y-7690604D01*
X-45391989Y-7616928D01*
X-45218585Y-7509561D01*
X-45067862Y-7372159D01*
X-44944953Y-7209401D01*
X-44854044Y-7026830D01*
X-44798229Y-6830663D01*
X-44779411Y-6627580D01*
X-44798229Y-6424497D01*
X-44854044Y-6228330D01*
X-44944953Y-6045759D01*
X-45067862Y-5883001D01*
X-45218585Y-5745599D01*
X-45391989Y-5638232D01*
X-45582170Y-5564556D01*
X-45582171Y-5564555D01*
X-45582173Y-5564555D01*
X-45782650Y-5527080D01*
X-45986602Y-5527080D01*
X-46187080Y-5564555D01*
X-46228530Y-5580613D01*
X-46377263Y-5638232D01*
X-46509851Y-5720327D01*
X-46550667Y-5745599D01*
X-46701389Y-5883000D01*
X-46824298Y-6045757D01*
X-46824303Y-6045766D01*
X-46915207Y-6228327D01*
X-46915208Y-6228330D01*
X-46971023Y-6424497D01*
X-46989841Y-6627580D01*
X-54379500Y-6627580D01*
X-54379500Y-4087580D01*
X-46989841Y-4087580D01*
X-46971023Y-4290663D01*
X-46915208Y-4486830D01*
X-46824299Y-4669401D01*
X-46701390Y-4832159D01*
X-46550667Y-4969561D01*
X-46377263Y-5076928D01*
X-46187082Y-5150604D01*
X-45986602Y-5188080D01*
X-45782650Y-5188080D01*
X-45582170Y-5150604D01*
X-45391989Y-5076928D01*
X-45218585Y-4969561D01*
X-45067862Y-4832159D01*
X-44944953Y-4669401D01*
X-44854044Y-4486830D01*
X-44798229Y-4290663D01*
X-44779411Y-4087580D01*
X-44798229Y-3884497D01*
X-44854044Y-3688330D01*
X-44944953Y-3505759D01*
X-45067862Y-3343001D01*
X-45218585Y-3205599D01*
X-45391989Y-3098232D01*
X-45582170Y-3024556D01*
X-45582171Y-3024555D01*
X-45582173Y-3024555D01*
X-45782650Y-2987080D01*
X-45986602Y-2987080D01*
X-46187080Y-3024555D01*
X-46256994Y-3051639D01*
X-46377263Y-3098232D01*
X-46509851Y-3180327D01*
X-46550667Y-3205599D01*
X-46701389Y-3343000D01*
X-46824298Y-3505757D01*
X-46824303Y-3505766D01*
X-46915207Y-3688327D01*
X-46915208Y-3688330D01*
X-46971023Y-3884497D01*
X-46989841Y-4087580D01*
X-54379500Y-4087580D01*
X-54379500Y-2817580D01*
X-41060008Y-2817580D01*
X-41040523Y-3027860D01*
X-40982730Y-3230978D01*
X-40888599Y-3420019D01*
X-40888596Y-3420024D01*
X-40888594Y-3420026D01*
X-40761340Y-3588540D01*
X-40761337Y-3588543D01*
X-40761335Y-3588545D01*
X-40605270Y-3730817D01*
X-40425721Y-3841989D01*
X-40228801Y-3918276D01*
X-40021216Y-3957080D01*
X-39810036Y-3957080D01*
X-39602451Y-3918276D01*
X-39405531Y-3841989D01*
X-39225982Y-3730817D01*
X-39069917Y-3588545D01*
X-38942653Y-3420019D01*
X-38848522Y-3230978D01*
X-38790729Y-3027860D01*
X-38771244Y-2817580D01*
X-38790729Y-2607300D01*
X-38848522Y-2404182D01*
X-38942653Y-2215141D01*
X-38999336Y-2140080D01*
X-39069913Y-2046619D01*
X-39079862Y-2037549D01*
X-39225982Y-1904343D01*
X-39405531Y-1793171D01*
X-39602451Y-1716884D01*
X-39602452Y-1716883D01*
X-39602454Y-1716883D01*
X-39810036Y-1678080D01*
X-40021216Y-1678080D01*
X-40228799Y-1716883D01*
X-40301190Y-1744927D01*
X-40425721Y-1793171D01*
X-40596256Y-1898762D01*
X-40605270Y-1904343D01*
X-40761340Y-2046619D01*
X-40888594Y-2215133D01*
X-40888603Y-2215148D01*
X-40982729Y-2404179D01*
X-41040523Y-2607298D01*
X-41040524Y-2607300D01*
X-41040523Y-2607300D01*
X-41060008Y-2817580D01*
X-54379500Y-2817580D01*
X-54379500Y-1547580D01*
X-46989841Y-1547580D01*
X-46971023Y-1750663D01*
X-46915208Y-1946830D01*
X-46824299Y-2129401D01*
X-46701390Y-2292159D01*
X-46550667Y-2429561D01*
X-46377263Y-2536928D01*
X-46187082Y-2610604D01*
X-45986602Y-2648080D01*
X-45782650Y-2648080D01*
X-45582170Y-2610604D01*
X-45391989Y-2536928D01*
X-45218585Y-2429561D01*
X-45067862Y-2292159D01*
X-44944953Y-2129401D01*
X-44854044Y-1946830D01*
X-44798229Y-1750663D01*
X-44779411Y-1547580D01*
X-44798229Y-1344497D01*
X-44854044Y-1148330D01*
X-44944953Y-965759D01*
X-45067862Y-803001D01*
X-45218585Y-665599D01*
X-45391989Y-558232D01*
X-45582170Y-484556D01*
X-45582171Y-484555D01*
X-45582173Y-484555D01*
X-45782650Y-447080D01*
X-45986602Y-447080D01*
X-46187080Y-484555D01*
X-46256994Y-511639D01*
X-46377263Y-558232D01*
X-46453445Y-605402D01*
X-46550667Y-665599D01*
X-46701389Y-803000D01*
X-46824298Y-965757D01*
X-46824303Y-965766D01*
X-46915207Y-1148327D01*
X-46971023Y-1344497D01*
X-46976730Y-1406092D01*
X-46989841Y-1547580D01*
X-54379500Y-1547580D01*
X-54379500Y-277580D01*
X-41060008Y-277580D01*
X-41040523Y-487860D01*
X-40982730Y-690978D01*
X-40888599Y-880019D01*
X-40888596Y-880024D01*
X-40888594Y-880026D01*
X-40761340Y-1048540D01*
X-40761337Y-1048543D01*
X-40761335Y-1048545D01*
X-40605270Y-1190817D01*
X-40425721Y-1301989D01*
X-40228801Y-1378276D01*
X-40021216Y-1417080D01*
X-39810036Y-1417080D01*
X-39602451Y-1378276D01*
X-39503223Y-1339833D01*
X-39442131Y-1336443D01*
X-39397455Y-1362144D01*
X-38722054Y-2037545D01*
X-38722051Y-2037547D01*
X-38722049Y-2037549D01*
X-38697233Y-2055578D01*
X-38645234Y-2093357D01*
X-38645232Y-2093357D01*
X-38638289Y-2096896D01*
X-38638720Y-2097740D01*
X-38607175Y-2117068D01*
X-38461664Y-2262579D01*
X-38433887Y-2317096D01*
X-38432668Y-2332583D01*
X-38432668Y-19391920D01*
X-38432669Y-19705911D01*
X-38434775Y-19726222D01*
X-38437535Y-19739385D01*
X-38437535Y-19739390D01*
X-38433048Y-19775385D01*
X-38432668Y-19781513D01*
X-38432668Y-19786236D01*
X-38428826Y-19809262D01*
X-38422034Y-19863748D01*
X-38422034Y-19863749D01*
X-38422033Y-19863752D01*
X-38419797Y-19871266D01*
X-38417233Y-19878734D01*
X-38400826Y-19909050D01*
X-38391113Y-19926999D01*
X-38366992Y-19976337D01*
X-38362432Y-19982723D01*
X-38357589Y-19988945D01*
X-38357587Y-19988948D01*
X-38317197Y-20026130D01*
X-25119220Y-33224108D01*
X-20740313Y-37603015D01*
X-20727438Y-37618871D01*
X-20720084Y-37630127D01*
X-20691458Y-37652407D01*
X-20686861Y-37656467D01*
X-20683517Y-37659811D01*
X-20683514Y-37659813D01*
X-20683513Y-37659814D01*
X-20664514Y-37673379D01*
X-20621190Y-37707100D01*
X-20614283Y-37710837D01*
X-20607202Y-37714299D01*
X-20607199Y-37714301D01*
X-20554588Y-37729964D01*
X-20502660Y-37747791D01*
X-20502658Y-37747791D01*
X-20494891Y-37749087D01*
X-20487088Y-37750060D01*
X-20432230Y-37747791D01*
X338790Y-37747791D01*
X359105Y-37749898D01*
X363531Y-37750825D01*
X372269Y-37752658D01*
X408268Y-37748170D01*
X414392Y-37747791D01*
X419119Y-37747791D01*
X442140Y-37743949D01*
X471472Y-37740292D01*
X496627Y-37737157D01*
X496629Y-37737155D01*
X504139Y-37734920D01*
X511607Y-37732356D01*
X511611Y-37732356D01*
X559878Y-37706235D01*
X609212Y-37682117D01*
X609216Y-37682112D01*
X615635Y-37677530D01*
X621824Y-37672713D01*
X636780Y-37656467D01*
X659009Y-37632319D01*
X3956430Y-34334898D01*
X4010945Y-34307123D01*
X4062193Y-34312589D01*
X4088044Y-34322604D01*
X4288524Y-34360080D01*
X4492476Y-34360080D01*
X4692956Y-34322604D01*
X4883137Y-34248928D01*
X5056541Y-34141561D01*
X5207264Y-34004159D01*
X5330173Y-33841401D01*
X5421082Y-33658830D01*
X5476897Y-33462663D01*
X5495715Y-33259580D01*
X5476897Y-33056497D01*
X5421082Y-32860330D01*
X5330173Y-32677759D01*
X5207264Y-32515001D01*
X5056541Y-32377599D01*
X4883137Y-32270232D01*
X4692956Y-32196556D01*
X4692955Y-32196555D01*
X4692953Y-32196555D01*
X4492476Y-32159080D01*
X4288524Y-32159080D01*
X4088046Y-32196555D01*
X4088041Y-32196557D01*
X3897863Y-32270232D01*
X3735286Y-32370895D01*
X3724459Y-32377599D01*
X3573737Y-32515000D01*
X3450828Y-32677757D01*
X3450823Y-32677766D01*
X3359919Y-32860327D01*
X3359918Y-32860330D01*
X3304103Y-33056497D01*
X3285285Y-33259580D01*
X3302010Y-33440080D01*
X3304103Y-33462662D01*
X3359918Y-33658829D01*
X3398143Y-33735597D01*
X3407155Y-33796115D01*
X3379525Y-33849728D01*
X261459Y-36967795D01*
X206942Y-36995572D01*
X191455Y-36996791D01*
X-20243455Y-36996791D01*
X-20301646Y-36977884D01*
X-20313459Y-36967795D01*
X-37652672Y-19628580D01*
X-37680449Y-19574063D01*
X-37681668Y-19558576D01*
X-37681668Y-2185248D01*
X-37679561Y-2164933D01*
X-37676801Y-2151770D01*
X-37681289Y-2115771D01*
X-37681668Y-2109646D01*
X-37681668Y-2104918D01*
X-37685510Y-2081897D01*
X-37691039Y-2037549D01*
X-37692302Y-2027412D01*
X-37692304Y-2027408D01*
X-37694542Y-2019888D01*
X-37697103Y-2012427D01*
X-37723223Y-1964161D01*
X-37744050Y-1921561D01*
X-37747342Y-1914827D01*
X-37747344Y-1914825D01*
X-37747344Y-1914824D01*
X-37751897Y-1908447D01*
X-37756750Y-1902211D01*
X-37760497Y-1898762D01*
X-37797138Y-1865031D01*
X-38076138Y-1586030D01*
X-38095471Y-1554481D01*
X-38096314Y-1554911D01*
X-38099852Y-1547967D01*
X-38155657Y-1471157D01*
X-38155659Y-1471155D01*
X-38155661Y-1471152D01*
X-38827289Y-799524D01*
X-38855066Y-745007D01*
X-38849770Y-695382D01*
X-38849775Y-695381D01*
X-38849766Y-695346D01*
X-38849594Y-693742D01*
X-38848527Y-690986D01*
X-38848522Y-690978D01*
X-38790729Y-487860D01*
X-38771244Y-277580D01*
X-38790729Y-67300D01*
X-38802844Y-24721D01*
X-38800584Y36422D01*
X-38762817Y84559D01*
X-38703967Y101304D01*
X-38646515Y80261D01*
X-38637620Y72376D01*
X-37452019Y-1113224D01*
X-37424242Y-1167741D01*
X-37423023Y-1183228D01*
X-37423023Y-18937556D01*
X-37425130Y-18957870D01*
X-37427890Y-18971033D01*
X-37423403Y-19007030D01*
X-37423023Y-19013158D01*
X-37423023Y-19017881D01*
X-37419181Y-19040907D01*
X-37412389Y-19095393D01*
X-37412389Y-19095394D01*
X-37412388Y-19095397D01*
X-37410152Y-19102911D01*
X-37407588Y-19110379D01*
X-37400282Y-19123878D01*
X-37381468Y-19158644D01*
X-37375543Y-19170763D01*
X-37357347Y-19207982D01*
X-37352787Y-19214368D01*
X-37347944Y-19220590D01*
X-37347942Y-19220593D01*
X-37307552Y-19257775D01*
X-24717700Y-31847628D01*
X-20540405Y-36024923D01*
X-20523343Y-36047804D01*
X-20519947Y-36054080D01*
X-20507886Y-36078750D01*
X-20495826Y-36103417D01*
X-20495825Y-36103418D01*
X-20495824Y-36103420D01*
X-20491264Y-36109807D01*
X-20486421Y-36116029D01*
X-20486419Y-36116032D01*
X-20446030Y-36153213D01*
X-20086591Y-36512653D01*
X-20022941Y-36576303D01*
X-20010067Y-36592156D01*
X-20002710Y-36603416D01*
X-19974095Y-36625688D01*
X-19969492Y-36629752D01*
X-19966145Y-36633099D01*
X-19947130Y-36646675D01*
X-19925474Y-36663531D01*
X-19903815Y-36680389D01*
X-19903813Y-36680389D01*
X-19896907Y-36684127D01*
X-19889830Y-36687586D01*
X-19889825Y-36687590D01*
X-19837223Y-36703250D01*
X-19816262Y-36710446D01*
X-19785287Y-36721080D01*
X-19777550Y-36722371D01*
X-19769721Y-36723346D01*
X-19769714Y-36723348D01*
X-19714870Y-36721080D01*
X-1174499Y-36721080D01*
X-1154184Y-36723187D01*
X-1149758Y-36724114D01*
X-1141020Y-36725947D01*
X-1105021Y-36721459D01*
X-1098897Y-36721080D01*
X-1094170Y-36721080D01*
X-1071149Y-36717238D01*
X-1041817Y-36713581D01*
X-1016662Y-36710446D01*
X-1016660Y-36710444D01*
X-1009150Y-36708209D01*
X-1001682Y-36705645D01*
X-1001678Y-36705645D01*
X-953411Y-36679524D01*
X-904077Y-36655406D01*
X-904073Y-36655401D01*
X-897654Y-36650819D01*
X-891465Y-36646002D01*
X-854280Y-36605608D01*
X235437Y-35515891D01*
X1416429Y-34334898D01*
X1470944Y-34307123D01*
X1522191Y-34312588D01*
X1548044Y-34322604D01*
X1748524Y-34360080D01*
X1952476Y-34360080D01*
X2152956Y-34322604D01*
X2343137Y-34248928D01*
X2516541Y-34141561D01*
X2667264Y-34004159D01*
X2790173Y-33841401D01*
X2881082Y-33658830D01*
X2936897Y-33462663D01*
X2955715Y-33259580D01*
X2936897Y-33056497D01*
X2881082Y-32860330D01*
X2790173Y-32677759D01*
X2667264Y-32515001D01*
X2516541Y-32377599D01*
X2343137Y-32270232D01*
X2152956Y-32196556D01*
X2152955Y-32196555D01*
X2152953Y-32196555D01*
X1952476Y-32159080D01*
X1748524Y-32159080D01*
X1548046Y-32196555D01*
X1548041Y-32196557D01*
X1357863Y-32270232D01*
X1195286Y-32370895D01*
X1184459Y-32377599D01*
X1033737Y-32515000D01*
X910828Y-32677757D01*
X910823Y-32677766D01*
X819919Y-32860327D01*
X819918Y-32860330D01*
X764103Y-33056497D01*
X745285Y-33259580D01*
X762010Y-33440080D01*
X764103Y-33462662D01*
X819918Y-33658829D01*
X858143Y-33735597D01*
X867155Y-33796115D01*
X839525Y-33849728D01*
X-1251830Y-35941084D01*
X-1306347Y-35968861D01*
X-1321834Y-35970080D01*
X-19526082Y-35970080D01*
X-19584273Y-35951173D01*
X-19596086Y-35941083D01*
X-19831598Y-35705570D01*
X-19848662Y-35682686D01*
X-19852056Y-35676413D01*
X-19876174Y-35627080D01*
X-19876175Y-35627079D01*
X-19880729Y-35620700D01*
X-19885579Y-35614468D01*
X-19885581Y-35614465D01*
X-19925972Y-35577282D01*
X-35159672Y-20343581D01*
X-33839904Y-20343581D01*
X-33820864Y-20500396D01*
X-33820863Y-20500397D01*
X-33764846Y-20648103D01*
X-33675109Y-20778110D01*
X-33675109Y-20778111D01*
X-33618478Y-20828280D01*
X-33587459Y-20881019D01*
X-33585126Y-20902383D01*
X-33585126Y-20915017D01*
X-33577673Y-20937954D01*
X-33574047Y-20953054D01*
X-33570272Y-20976886D01*
X-33559325Y-20998368D01*
X-33553379Y-21012722D01*
X-33545923Y-21035668D01*
X-33545924Y-21035668D01*
X-33531742Y-21055188D01*
X-33523629Y-21068427D01*
X-33512676Y-21089922D01*
X-33512675Y-21089923D01*
X-33492595Y-21110004D01*
X-19034677Y-35567922D01*
X-18944969Y-35657629D01*
X-18944968Y-35657630D01*
X-18923477Y-35668580D01*
X-18910231Y-35676697D01*
X-18890716Y-35690876D01*
X-18890714Y-35690876D01*
X-18890713Y-35690877D01*
X-18867774Y-35698330D01*
X-18853431Y-35704270D01*
X-18831930Y-35715226D01*
X-18808102Y-35718999D01*
X-18792993Y-35722627D01*
X-18784432Y-35725408D01*
X-18770059Y-35730079D01*
X-18740189Y-35730079D01*
X-18740165Y-35730080D01*
X-18738145Y-35730080D01*
X-7665856Y-35730080D01*
X-7665855Y-35730080D01*
X-7642906Y-35722623D01*
X-7627823Y-35719001D01*
X-7603984Y-35715226D01*
X-7582486Y-35704270D01*
X-7568137Y-35698328D01*
X-7545198Y-35690876D01*
X-7525676Y-35676691D01*
X-7512439Y-35668580D01*
X-7490946Y-35657630D01*
X-7474027Y-35640709D01*
X-7474023Y-35640707D01*
X-7468382Y-35635065D01*
X-7468379Y-35635064D01*
X-6178087Y-34344770D01*
X-6123572Y-34316995D01*
X-6076550Y-34322013D01*
X-6076361Y-34321351D01*
X-6072522Y-34322443D01*
X-6072314Y-34322465D01*
X-6071956Y-34322604D01*
X-6071952Y-34322604D01*
X-6071951Y-34322605D01*
X-5886016Y-34357362D01*
X-5871476Y-34360080D01*
X-5667524Y-34360080D01*
X-5467044Y-34322604D01*
X-5276863Y-34248928D01*
X-5103459Y-34141561D01*
X-4952736Y-34004159D01*
X-4829827Y-33841401D01*
X-4738918Y-33658830D01*
X-4683103Y-33462663D01*
X-4664285Y-33259580D01*
X-4683103Y-33056497D01*
X-4738918Y-32860330D01*
X-4829827Y-32677759D01*
X-4952736Y-32515001D01*
X-5103459Y-32377599D01*
X-5276863Y-32270232D01*
X-5467044Y-32196556D01*
X-5467045Y-32196555D01*
X-5467047Y-32196555D01*
X-5667524Y-32159080D01*
X-5871476Y-32159080D01*
X-6071954Y-32196555D01*
X-6071959Y-32196557D01*
X-6262137Y-32270232D01*
X-6424714Y-32370895D01*
X-6435541Y-32377599D01*
X-6586263Y-32515000D01*
X-6709172Y-32677757D01*
X-6709177Y-32677766D01*
X-6800081Y-32860327D01*
X-6800082Y-32860330D01*
X-6855897Y-33056497D01*
X-6874715Y-33259580D01*
X-6857990Y-33440080D01*
X-6855897Y-33462662D01*
X-6800081Y-33658832D01*
X-6773610Y-33711993D01*
X-6764597Y-33772511D01*
X-6792227Y-33826125D01*
X-7866185Y-34900084D01*
X-7920702Y-34927861D01*
X-7936189Y-34929080D01*
X-18499727Y-34929080D01*
X-18557918Y-34910173D01*
X-18569731Y-34900083D01*
X-18617887Y-34851927D01*
X-18953717Y-34516096D01*
X-18953721Y-34516093D01*
X-32634807Y-20835006D01*
X-32662584Y-20780489D01*
X-32653013Y-20720057D01*
X-32646286Y-20708776D01*
X-32604406Y-20648103D01*
X-32548389Y-20500398D01*
X-32529348Y-20343580D01*
X-32534702Y-20299489D01*
X-32548389Y-20186763D01*
X-32548389Y-20186762D01*
X-32604406Y-20039057D01*
X-32694143Y-19909050D01*
X-32812386Y-19804297D01*
X-32892764Y-19762111D01*
X-32952262Y-19730883D01*
X-33105639Y-19693080D01*
X-33105641Y-19693080D01*
X-33263611Y-19693080D01*
X-33263614Y-19693080D01*
X-33416991Y-19730883D01*
X-33556868Y-19804298D01*
X-33675111Y-19909051D01*
X-33764846Y-20039056D01*
X-33820863Y-20186762D01*
X-33820864Y-20186763D01*
X-33839904Y-20343578D01*
X-33839904Y-20343581D01*
X-35159672Y-20343581D01*
X-36175672Y-19327581D01*
X-32569904Y-19327581D01*
X-32550864Y-19484396D01*
X-32550863Y-19484398D01*
X-32507179Y-19599584D01*
X-32494846Y-19632103D01*
X-32405109Y-19762110D01*
X-32405109Y-19762111D01*
X-32348478Y-19812280D01*
X-32317459Y-19865019D01*
X-32315126Y-19886383D01*
X-32315126Y-20153017D01*
X-32307673Y-20175954D01*
X-32304047Y-20191054D01*
X-32300272Y-20214886D01*
X-32289325Y-20236368D01*
X-32283379Y-20250722D01*
X-32275923Y-20273668D01*
X-32275924Y-20273668D01*
X-32261742Y-20293188D01*
X-32253629Y-20306427D01*
X-32242676Y-20327922D01*
X-32242675Y-20327923D01*
X-32222595Y-20348004D01*
X-20745533Y-31825066D01*
X-20722970Y-31847628D01*
X-20722968Y-31847630D01*
X-20701479Y-31858579D01*
X-20688234Y-31866695D01*
X-20668716Y-31880876D01*
X-20645775Y-31888329D01*
X-20631425Y-31894274D01*
X-20609935Y-31905224D01*
X-20609933Y-31905224D01*
X-20609930Y-31905226D01*
X-20586109Y-31908998D01*
X-20571013Y-31912622D01*
X-20548059Y-31920080D01*
X-20516145Y-31920080D01*
X-10243610Y-31920080D01*
X-10185419Y-31938987D01*
X-10173613Y-31949070D01*
X-10132606Y-31990077D01*
X-10104829Y-32044593D01*
X-10114400Y-32105025D01*
X-10157665Y-32148290D01*
X-10202610Y-32159080D01*
X-11724174Y-32159080D01*
X-11724175Y-32159080D01*
X-11724185Y-32159081D01*
X-11797237Y-32173613D01*
X-11797243Y-32173615D01*
X-11880100Y-32228977D01*
X-11880103Y-32228980D01*
X-11935465Y-32311837D01*
X-11935467Y-32311843D01*
X-11949999Y-32384895D01*
X-11950000Y-32384907D01*
X-11950000Y-34134252D01*
X-11949999Y-34134264D01*
X-11935467Y-34207316D01*
X-11935465Y-34207322D01*
X-11880103Y-34290179D01*
X-11880100Y-34290182D01*
X-11833451Y-34321351D01*
X-11797240Y-34345546D01*
X-11751165Y-34354711D01*
X-11724185Y-34360078D01*
X-11724180Y-34360078D01*
X-11724174Y-34360080D01*
X-11724173Y-34360080D01*
X-9974827Y-34360080D01*
X-9974826Y-34360080D01*
X-9901760Y-34345546D01*
X-9818899Y-34290181D01*
X-9763534Y-34207320D01*
X-9749000Y-34134254D01*
X-9749000Y-32612690D01*
X-9730093Y-32554499D01*
X-9680593Y-32518535D01*
X-9619407Y-32518535D01*
X-9579996Y-32542686D01*
X-9363992Y-32758690D01*
X-9336215Y-32813207D01*
X-9340635Y-32855414D01*
X-9338829Y-32855928D01*
X-9340080Y-32860326D01*
X-9340082Y-32860330D01*
X-9395897Y-33056497D01*
X-9414715Y-33259580D01*
X-9397990Y-33440080D01*
X-9395897Y-33462662D01*
X-9340081Y-33658832D01*
X-9256780Y-33826125D01*
X-9249173Y-33841401D01*
X-9126264Y-34004159D01*
X-8975541Y-34141561D01*
X-8802137Y-34248928D01*
X-8611956Y-34322604D01*
X-8411476Y-34360080D01*
X-8207524Y-34360080D01*
X-8007044Y-34322604D01*
X-7816863Y-34248928D01*
X-7643459Y-34141561D01*
X-7492736Y-34004159D01*
X-7369827Y-33841401D01*
X-7278918Y-33658830D01*
X-7223103Y-33462663D01*
X-7204285Y-33259580D01*
X-7223103Y-33056497D01*
X-7278918Y-32860330D01*
X-7369827Y-32677759D01*
X-7492736Y-32515001D01*
X-7643459Y-32377599D01*
X-7816863Y-32270232D01*
X-8007044Y-32196556D01*
X-8007045Y-32196555D01*
X-8007047Y-32196555D01*
X-8207524Y-32159080D01*
X-8411476Y-32159080D01*
X-8611948Y-32196554D01*
X-8611953Y-32196555D01*
X-8611956Y-32196556D01*
X-8611960Y-32196557D01*
X-8611965Y-32196559D01*
X-8682543Y-32223900D01*
X-8743634Y-32227290D01*
X-8788308Y-32201589D01*
X-9164833Y-31825064D01*
X-9775801Y-31214096D01*
X-9775805Y-31214093D01*
X-9778286Y-31211612D01*
X-9778286Y-31211611D01*
X-9798367Y-31191531D01*
X-9798368Y-31191530D01*
X-9819863Y-31180577D01*
X-9833102Y-31172464D01*
X-9850952Y-31159496D01*
X-9852620Y-31158284D01*
X-9852622Y-31158283D01*
X-9875568Y-31150827D01*
X-9889922Y-31144881D01*
X-9911404Y-31133934D01*
X-9935236Y-31130159D01*
X-9950336Y-31126533D01*
X-9973273Y-31119080D01*
X-9973277Y-31119080D01*
X-10005191Y-31119080D01*
X-20277725Y-31119080D01*
X-20335916Y-31100173D01*
X-20347729Y-31090084D01*
X-26527257Y-24910556D01*
X-11930367Y-24910556D01*
X-11925880Y-24946553D01*
X-11925500Y-24952681D01*
X-11925500Y-24957404D01*
X-11921658Y-24980430D01*
X-11914866Y-25034916D01*
X-11914866Y-25034917D01*
X-11914865Y-25034920D01*
X-11912629Y-25042434D01*
X-11910065Y-25049902D01*
X-11892652Y-25082078D01*
X-11883945Y-25098167D01*
X-11860133Y-25146873D01*
X-11859824Y-25147505D01*
X-11855264Y-25153891D01*
X-11850421Y-25160113D01*
X-11850419Y-25160116D01*
X-11810029Y-25197298D01*
X-7177827Y-29829500D01*
X-4272859Y-32734468D01*
X-4245082Y-32788985D01*
X-4254240Y-32848596D01*
X-4260081Y-32860326D01*
X-4284571Y-32946398D01*
X-4315897Y-33056497D01*
X-4334715Y-33259580D01*
X-4317990Y-33440080D01*
X-4315897Y-33462662D01*
X-4260081Y-33658832D01*
X-4176780Y-33826125D01*
X-4169173Y-33841401D01*
X-4046264Y-34004159D01*
X-3895541Y-34141561D01*
X-3722137Y-34248928D01*
X-3531956Y-34322604D01*
X-3331476Y-34360080D01*
X-3127524Y-34360080D01*
X-2927044Y-34322604D01*
X-2736863Y-34248928D01*
X-2563459Y-34141561D01*
X-2412736Y-34004159D01*
X-2289827Y-33841401D01*
X-2198918Y-33658830D01*
X-2143103Y-33462663D01*
X-2124285Y-33259580D01*
X-2143103Y-33056497D01*
X-2198918Y-32860330D01*
X-2289827Y-32677759D01*
X-2412736Y-32515001D01*
X-2563459Y-32377599D01*
X-2736863Y-32270232D01*
X-2927044Y-32196556D01*
X-2927045Y-32196555D01*
X-2927047Y-32196555D01*
X-3127524Y-32159080D01*
X-3331476Y-32159080D01*
X-3531948Y-32196554D01*
X-3531961Y-32196557D01*
X-3628025Y-32233772D01*
X-3689117Y-32237162D01*
X-3733791Y-32211461D01*
X-11035462Y-24909790D01*
X-9390334Y-24909790D01*
X-9388479Y-24924925D01*
X-9385868Y-24946220D01*
X-9385500Y-24952242D01*
X-9385500Y-24957405D01*
X-9381719Y-24980068D01*
X-9380433Y-24990560D01*
X-9375086Y-25034172D01*
X-9372760Y-25042043D01*
X-9373408Y-25042234D01*
X-9373367Y-25042361D01*
X-9372729Y-25042143D01*
X-9370066Y-25049901D01*
X-9344121Y-25097842D01*
X-9320275Y-25146872D01*
X-9315518Y-25153563D01*
X-9316073Y-25153957D01*
X-9315997Y-25154059D01*
X-9315459Y-25153641D01*
X-9310420Y-25160116D01*
X-9310419Y-25160117D01*
X-9270309Y-25197041D01*
X-1742534Y-32755437D01*
X-1714868Y-32810009D01*
X-1719782Y-32855656D01*
X-1718829Y-32855928D01*
X-1720080Y-32860326D01*
X-1720082Y-32860330D01*
X-1775897Y-33056497D01*
X-1794715Y-33259580D01*
X-1777990Y-33440080D01*
X-1775897Y-33462662D01*
X-1720081Y-33658832D01*
X-1636780Y-33826125D01*
X-1629173Y-33841401D01*
X-1506264Y-34004159D01*
X-1355541Y-34141561D01*
X-1182137Y-34248928D01*
X-991956Y-34322604D01*
X-791476Y-34360080D01*
X-587524Y-34360080D01*
X-387044Y-34322604D01*
X-196863Y-34248928D01*
X-23459Y-34141561D01*
X127264Y-34004159D01*
X250173Y-33841401D01*
X341082Y-33658830D01*
X396897Y-33462663D01*
X415715Y-33259580D01*
X396897Y-33056497D01*
X341082Y-32860330D01*
X250173Y-32677759D01*
X127264Y-32515001D01*
X-23459Y-32377599D01*
X-196863Y-32270232D01*
X-387044Y-32196556D01*
X-387045Y-32196555D01*
X-387047Y-32196555D01*
X-587524Y-32159080D01*
X-791476Y-32159080D01*
X-991948Y-32196554D01*
X-991953Y-32196555D01*
X-991956Y-32196556D01*
X-991960Y-32196557D01*
X-991965Y-32196559D01*
X-1110101Y-32242323D01*
X-1171192Y-32245713D01*
X-1216008Y-32219869D01*
X-8605646Y-24800170D01*
X-8633312Y-24745597D01*
X-8634500Y-24730309D01*
X-8634500Y-21542213D01*
X21826988Y-21542213D01*
X21846070Y-21894170D01*
X21903094Y-22242006D01*
X21997386Y-22581613D01*
X21997388Y-22581618D01*
X21997389Y-22581622D01*
X21997391Y-22581627D01*
X22127855Y-22909067D01*
X22292957Y-23220482D01*
X22490761Y-23512221D01*
X22490765Y-23512226D01*
X22490766Y-23512227D01*
X22718943Y-23780858D01*
X22718953Y-23780868D01*
X22974838Y-24023256D01*
X22974842Y-24023259D01*
X23255444Y-24236567D01*
X23557464Y-24418287D01*
X23877361Y-24566287D01*
X24211384Y-24678832D01*
X24211389Y-24678833D01*
X24211392Y-24678834D01*
X24555612Y-24754603D01*
X24555613Y-24754603D01*
X24555617Y-24754604D01*
X24822490Y-24783628D01*
X24906024Y-24792713D01*
X24906025Y-24792713D01*
X25258500Y-24792713D01*
X25325953Y-24785376D01*
X25608907Y-24754604D01*
X25953131Y-24678834D01*
X25953132Y-24678834D01*
X25953134Y-24678833D01*
X25953140Y-24678832D01*
X26287163Y-24566287D01*
X26607060Y-24418287D01*
X26909080Y-24236567D01*
X27189682Y-24023259D01*
X27445576Y-23780863D01*
X27673763Y-23512221D01*
X27871567Y-23220482D01*
X28036669Y-22909067D01*
X28167133Y-22581627D01*
X28261430Y-22242001D01*
X28318453Y-21894170D01*
X28337536Y-21542213D01*
X28318453Y-21190256D01*
X28288134Y-21005318D01*
X28261429Y-20842419D01*
X28167137Y-20502812D01*
X28167135Y-20502807D01*
X28167133Y-20502799D01*
X28036669Y-20175359D01*
X27871567Y-19863944D01*
X27673763Y-19572205D01*
X27547423Y-19423466D01*
X27445580Y-19303567D01*
X27445570Y-19303557D01*
X27189685Y-19061169D01*
X26909084Y-18847862D01*
X26909083Y-18847861D01*
X26909080Y-18847859D01*
X26607060Y-18666139D01*
X26497196Y-18615310D01*
X26287168Y-18518141D01*
X26287165Y-18518140D01*
X26287163Y-18518139D01*
X25953140Y-18405594D01*
X25953139Y-18405593D01*
X25953131Y-18405591D01*
X25608911Y-18329822D01*
X25608912Y-18329822D01*
X25258500Y-18291713D01*
X25258499Y-18291713D01*
X24906025Y-18291713D01*
X24906024Y-18291713D01*
X24555611Y-18329822D01*
X24211393Y-18405591D01*
X24211391Y-18405591D01*
X23877355Y-18518141D01*
X23557472Y-18666135D01*
X23557466Y-18666138D01*
X23557464Y-18666139D01*
X23354435Y-18788298D01*
X23255444Y-18847859D01*
X23255439Y-18847862D01*
X22974838Y-19061169D01*
X22718953Y-19303557D01*
X22718943Y-19303567D01*
X22490766Y-19572198D01*
X22490759Y-19572208D01*
X22353002Y-19775385D01*
X22292957Y-19863944D01*
X22127855Y-20175359D01*
X21998349Y-20500396D01*
X21997388Y-20502807D01*
X21997386Y-20502812D01*
X21903094Y-20842419D01*
X21846070Y-21190255D01*
X21826988Y-21542213D01*
X-8634500Y-21542213D01*
X-8634500Y-17757023D01*
X43071796Y-17757023D01*
X43090878Y-18108981D01*
X43147902Y-18456817D01*
X43242194Y-18796424D01*
X43242196Y-18796429D01*
X43242197Y-18796433D01*
X43242199Y-18796438D01*
X43372663Y-19123878D01*
X43537765Y-19435293D01*
X43735569Y-19727032D01*
X43735573Y-19727037D01*
X43735574Y-19727038D01*
X43963751Y-19995669D01*
X43963761Y-19995679D01*
X44219646Y-20238067D01*
X44219650Y-20238070D01*
X44500252Y-20451378D01*
X44802272Y-20633098D01*
X45122169Y-20781098D01*
X45456192Y-20893643D01*
X45456197Y-20893644D01*
X45456200Y-20893645D01*
X45800420Y-20969414D01*
X45800421Y-20969414D01*
X45800425Y-20969415D01*
X46066645Y-20998368D01*
X46150832Y-21007524D01*
X46150833Y-21007524D01*
X46503308Y-21007524D01*
X46587495Y-20998368D01*
X46853715Y-20969415D01*
X47197939Y-20893645D01*
X47197940Y-20893645D01*
X47197942Y-20893644D01*
X47197948Y-20893643D01*
X47531971Y-20781098D01*
X47851868Y-20633098D01*
X48153888Y-20451378D01*
X48434490Y-20238070D01*
X48690384Y-19995674D01*
X48918571Y-19727032D01*
X49116375Y-19435293D01*
X49281477Y-19123878D01*
X49411941Y-18796438D01*
X49414201Y-18788297D01*
X49506237Y-18456817D01*
X49514635Y-18405594D01*
X49563261Y-18108981D01*
X49582344Y-17757024D01*
X49563261Y-17405067D01*
X49506238Y-17057236D01*
X49506237Y-17057235D01*
X49506237Y-17057230D01*
X49411945Y-16717623D01*
X49411943Y-16717618D01*
X49411941Y-16717610D01*
X49281477Y-16390170D01*
X49116375Y-16078755D01*
X48918571Y-15787016D01*
X48767797Y-15609511D01*
X48690388Y-15518378D01*
X48690378Y-15518368D01*
X48434493Y-15275980D01*
X48153892Y-15062673D01*
X48153891Y-15062672D01*
X48153888Y-15062670D01*
X47851868Y-14880950D01*
X47620799Y-14774046D01*
X47531976Y-14732952D01*
X47531973Y-14732951D01*
X47531971Y-14732950D01*
X47197948Y-14620405D01*
X47197947Y-14620404D01*
X47197939Y-14620402D01*
X46853719Y-14544633D01*
X46853720Y-14544633D01*
X46503308Y-14506524D01*
X46503307Y-14506524D01*
X46150833Y-14506524D01*
X46150832Y-14506524D01*
X45800419Y-14544633D01*
X45456201Y-14620402D01*
X45456199Y-14620402D01*
X45122163Y-14732952D01*
X44802280Y-14880946D01*
X44802274Y-14880949D01*
X44802272Y-14880950D01*
X44666177Y-14962836D01*
X44500252Y-15062670D01*
X44500247Y-15062673D01*
X44219646Y-15275980D01*
X43963761Y-15518368D01*
X43963751Y-15518378D01*
X43735574Y-15787009D01*
X43735569Y-15787015D01*
X43735569Y-15787016D01*
X43537765Y-16078755D01*
X43372663Y-16390170D01*
X43312916Y-16540125D01*
X43242196Y-16717618D01*
X43242194Y-16717623D01*
X43147902Y-17057230D01*
X43090878Y-17405066D01*
X43071796Y-17757023D01*
X-8634500Y-17757023D01*
X-8634500Y-14962836D01*
X-8615593Y-14904645D01*
X-8605504Y-14892832D01*
X-2129811Y-8417139D01*
X1080328Y-5207000D01*
X11237376Y-5207000D01*
X11257632Y-5580613D01*
X11318165Y-5949850D01*
X11418259Y-6310354D01*
X11418261Y-6310359D01*
X11418262Y-6310363D01*
X11418264Y-6310368D01*
X11556755Y-6657955D01*
X11732016Y-6988531D01*
X11732019Y-6988535D01*
X11732022Y-6988541D01*
X11941981Y-7298209D01*
X11941995Y-7298227D01*
X12184212Y-7583387D01*
X12184215Y-7583390D01*
X12184217Y-7583392D01*
X12455857Y-7840703D01*
X12753724Y-8067136D01*
X13074327Y-8260036D01*
X13413906Y-8417142D01*
X13768482Y-8536613D01*
X13768487Y-8536614D01*
X13768490Y-8536615D01*
X14133890Y-8617045D01*
X14133891Y-8617045D01*
X14133895Y-8617046D01*
X14505863Y-8657500D01*
X14880025Y-8657500D01*
X15251993Y-8617046D01*
X15617397Y-8536615D01*
X15617398Y-8536615D01*
X15617400Y-8536614D01*
X15617406Y-8536613D01*
X15971982Y-8417142D01*
X16311561Y-8260036D01*
X16632164Y-8067136D01*
X16930031Y-7840703D01*
X17201671Y-7583392D01*
X17443898Y-7298221D01*
X17653872Y-6988531D01*
X17829133Y-6657955D01*
X17967624Y-6310368D01*
X17997135Y-6204080D01*
X18020596Y-6119580D01*
X22554785Y-6119580D01*
X22573603Y-6322663D01*
X22629418Y-6518830D01*
X22720327Y-6701401D01*
X22843236Y-6864159D01*
X22993959Y-7001561D01*
X23167363Y-7108928D01*
X23357544Y-7182604D01*
X23558024Y-7220080D01*
X23761976Y-7220080D01*
X23962456Y-7182604D01*
X24152637Y-7108928D01*
X24326041Y-7001561D01*
X24476764Y-6864159D01*
X24599673Y-6701401D01*
X24690582Y-6518830D01*
X24746397Y-6322663D01*
X24765215Y-6119580D01*
X38719785Y-6119580D01*
X38738603Y-6322663D01*
X38794418Y-6518830D01*
X38885327Y-6701401D01*
X39008236Y-6864159D01*
X39158959Y-7001561D01*
X39332363Y-7108928D01*
X39522544Y-7182604D01*
X39723024Y-7220080D01*
X39926976Y-7220080D01*
X40127456Y-7182604D01*
X40317637Y-7108928D01*
X40491041Y-7001561D01*
X40641764Y-6864159D01*
X40764673Y-6701401D01*
X40855582Y-6518830D01*
X40911397Y-6322663D01*
X40930215Y-6119580D01*
X40917119Y-5978252D01*
X44454874Y-5978252D01*
X44454875Y-5978264D01*
X44469407Y-6051316D01*
X44469409Y-6051322D01*
X44524771Y-6134179D01*
X44524773Y-6134181D01*
X44607634Y-6189546D01*
X44663182Y-6200595D01*
X44680689Y-6204078D01*
X44680694Y-6204078D01*
X44680700Y-6204080D01*
X44680701Y-6204080D01*
X46430047Y-6204080D01*
X46430048Y-6204080D01*
X46503114Y-6189546D01*
X46585975Y-6134181D01*
X46641340Y-6051320D01*
X46655874Y-5978254D01*
X46655874Y-4228906D01*
X46641340Y-4155840D01*
X46606462Y-4103640D01*
X46585976Y-4072980D01*
X46585973Y-4072977D01*
X46503116Y-4017615D01*
X46503114Y-4017614D01*
X46503111Y-4017613D01*
X46503110Y-4017613D01*
X46430058Y-4003081D01*
X46430048Y-4003080D01*
X44680700Y-4003080D01*
X44680699Y-4003080D01*
X44680689Y-4003081D01*
X44607637Y-4017613D01*
X44607631Y-4017615D01*
X44524774Y-4072977D01*
X44524771Y-4072980D01*
X44469409Y-4155837D01*
X44469407Y-4155843D01*
X44454875Y-4228895D01*
X44454874Y-4228907D01*
X44454874Y-5978252D01*
X40917119Y-5978252D01*
X40911397Y-5916497D01*
X40855582Y-5720330D01*
X40764673Y-5537759D01*
X40641764Y-5375001D01*
X40491041Y-5237599D01*
X40317637Y-5130232D01*
X40127456Y-5056556D01*
X40127455Y-5056555D01*
X40127453Y-5056555D01*
X39926976Y-5019080D01*
X39723024Y-5019080D01*
X39522546Y-5056555D01*
X39469960Y-5076927D01*
X39332363Y-5130232D01*
X39208380Y-5206999D01*
X39158959Y-5237599D01*
X39008237Y-5375000D01*
X38885328Y-5537757D01*
X38885323Y-5537766D01*
X38794419Y-5720327D01*
X38794418Y-5720330D01*
X38738603Y-5916497D01*
X38719785Y-6119580D01*
X24765215Y-6119580D01*
X24746397Y-5916497D01*
X24690582Y-5720330D01*
X24599673Y-5537759D01*
X24476764Y-5375001D01*
X24326041Y-5237599D01*
X24152637Y-5130232D01*
X23962456Y-5056556D01*
X23962455Y-5056555D01*
X23962453Y-5056555D01*
X23761976Y-5019080D01*
X23558024Y-5019080D01*
X23357546Y-5056555D01*
X23304960Y-5076927D01*
X23167363Y-5130232D01*
X23043380Y-5206999D01*
X22993959Y-5237599D01*
X22843237Y-5375000D01*
X22720328Y-5537757D01*
X22720323Y-5537766D01*
X22629419Y-5720327D01*
X22629418Y-5720330D01*
X22573603Y-5916497D01*
X22554785Y-6119580D01*
X18020596Y-6119580D01*
X18067722Y-5949850D01*
X18078682Y-5883000D01*
X18128255Y-5580613D01*
X18148512Y-5207000D01*
X18128255Y-4833387D01*
X18067723Y-4464155D01*
X18067722Y-4464154D01*
X18067722Y-4464149D01*
X17967628Y-4103645D01*
X17967626Y-4103640D01*
X17967624Y-4103632D01*
X17829133Y-3756045D01*
X17735577Y-3579580D01*
X22554785Y-3579580D01*
X22573603Y-3782663D01*
X22629418Y-3978830D01*
X22720327Y-4161401D01*
X22843236Y-4324159D01*
X22993959Y-4461561D01*
X23167363Y-4568928D01*
X23357544Y-4642604D01*
X23558024Y-4680080D01*
X23761976Y-4680080D01*
X23962456Y-4642604D01*
X24152637Y-4568928D01*
X24326041Y-4461561D01*
X24476764Y-4324159D01*
X24599673Y-4161401D01*
X24690582Y-3978830D01*
X24746397Y-3782663D01*
X24765215Y-3579580D01*
X38719785Y-3579580D01*
X38738603Y-3782663D01*
X38794418Y-3978830D01*
X38885327Y-4161401D01*
X39008236Y-4324159D01*
X39158959Y-4461561D01*
X39332363Y-4568928D01*
X39522544Y-4642604D01*
X39723024Y-4680080D01*
X39926976Y-4680080D01*
X40127456Y-4642604D01*
X40317637Y-4568928D01*
X40491041Y-4461561D01*
X40641764Y-4324159D01*
X40764673Y-4161401D01*
X40855582Y-3978830D01*
X40911397Y-3782663D01*
X40930215Y-3579580D01*
X40911397Y-3376497D01*
X40855582Y-3180330D01*
X40764673Y-2997759D01*
X40641764Y-2835001D01*
X40491041Y-2697599D01*
X40317637Y-2590232D01*
X40127456Y-2516556D01*
X40127455Y-2516555D01*
X40127453Y-2516555D01*
X39926976Y-2479080D01*
X39723024Y-2479080D01*
X39522546Y-2516555D01*
X39469960Y-2536927D01*
X39332363Y-2590232D01*
X39158959Y-2697598D01*
X39158959Y-2697599D01*
X39008237Y-2835000D01*
X38885328Y-2997757D01*
X38885323Y-2997766D01*
X38794419Y-3180327D01*
X38738603Y-3376497D01*
X38726626Y-3505757D01*
X38719785Y-3579580D01*
X24765215Y-3579580D01*
X24746397Y-3376497D01*
X24690582Y-3180330D01*
X24599673Y-2997759D01*
X24476764Y-2835001D01*
X24326041Y-2697599D01*
X24152637Y-2590232D01*
X23962456Y-2516556D01*
X23962455Y-2516555D01*
X23962453Y-2516555D01*
X23761976Y-2479080D01*
X23558024Y-2479080D01*
X23357546Y-2516555D01*
X23304960Y-2536927D01*
X23167363Y-2590232D01*
X22993958Y-2697598D01*
X22993959Y-2697599D01*
X22843237Y-2835000D01*
X22720328Y-2997757D01*
X22720323Y-2997766D01*
X22629419Y-3180327D01*
X22629418Y-3180330D01*
X22573603Y-3376497D01*
X22554785Y-3579580D01*
X17735577Y-3579580D01*
X17653872Y-3425469D01*
X17650177Y-3420019D01*
X17443906Y-3115790D01*
X17443901Y-3115784D01*
X17443898Y-3115779D01*
X17366412Y-3024556D01*
X17201675Y-2830612D01*
X17187917Y-2817580D01*
X16930031Y-2573297D01*
X16930029Y-2573295D01*
X16632168Y-2346867D01*
X16632167Y-2346866D01*
X16632164Y-2346864D01*
X16413250Y-2215148D01*
X16311562Y-2153964D01*
X15971987Y-1996860D01*
X15971984Y-1996859D01*
X15971982Y-1996858D01*
X15617406Y-1877387D01*
X15617405Y-1877386D01*
X15617397Y-1877384D01*
X15251997Y-1796954D01*
X15251998Y-1796954D01*
X14880025Y-1756500D01*
X14505863Y-1756500D01*
X14133889Y-1796954D01*
X13768491Y-1877384D01*
X13768489Y-1877384D01*
X13413900Y-1996860D01*
X13074325Y-2153964D01*
X12753724Y-2346864D01*
X12753719Y-2346867D01*
X12455858Y-2573295D01*
X12229567Y-2787649D01*
X12197971Y-2817580D01*
X12184213Y-2830612D01*
X12184212Y-2830612D01*
X11941995Y-3115772D01*
X11941981Y-3115790D01*
X11732022Y-3425458D01*
X11732016Y-3425467D01*
X11732016Y-3425469D01*
X11556755Y-3756045D01*
X11458328Y-4003080D01*
X11418261Y-4103640D01*
X11418259Y-4103645D01*
X11318165Y-4464149D01*
X11257632Y-4833386D01*
X11237376Y-5207000D01*
X1080328Y-5207000D01*
X4350256Y-1937071D01*
X4404771Y-1909296D01*
X4465203Y-1918867D01*
X4508468Y-1962132D01*
X4518536Y-2019010D01*
X4514096Y-2055578D01*
X4514096Y-2055581D01*
X4533136Y-2212396D01*
X4533137Y-2212398D01*
X4534180Y-2215148D01*
X4589154Y-2360103D01*
X4678889Y-2490108D01*
X4678890Y-2490109D01*
X4678891Y-2490110D01*
X4797134Y-2594863D01*
X4937009Y-2668276D01*
X5090389Y-2706080D01*
X5090392Y-2706080D01*
X5248356Y-2706080D01*
X5248359Y-2706080D01*
X5401739Y-2668276D01*
X5541614Y-2594863D01*
X5659857Y-2490110D01*
X5749594Y-2360103D01*
X5805611Y-2212398D01*
X5824652Y-2055580D01*
X5820838Y-2024170D01*
X5832593Y-1964125D01*
X5849108Y-1942237D01*
X6751765Y-1039580D01*
X22554785Y-1039580D01*
X22573603Y-1242663D01*
X22629418Y-1438830D01*
X22720327Y-1621401D01*
X22843236Y-1784159D01*
X22993959Y-1921561D01*
X23167363Y-2028928D01*
X23357544Y-2102604D01*
X23558024Y-2140080D01*
X23761976Y-2140080D01*
X23962456Y-2102604D01*
X24152637Y-2028928D01*
X24326041Y-1921561D01*
X24476764Y-1784159D01*
X24599673Y-1621401D01*
X24690582Y-1438830D01*
X24746397Y-1242663D01*
X24765215Y-1039580D01*
X38719785Y-1039580D01*
X38738603Y-1242663D01*
X38794418Y-1438830D01*
X38885327Y-1621401D01*
X39008236Y-1784159D01*
X39158959Y-1921561D01*
X39332363Y-2028928D01*
X39522544Y-2102604D01*
X39723024Y-2140080D01*
X39926976Y-2140080D01*
X40127456Y-2102604D01*
X40317637Y-2028928D01*
X40491041Y-1921561D01*
X40641764Y-1784159D01*
X40764673Y-1621401D01*
X40855582Y-1438830D01*
X40911397Y-1242663D01*
X40930215Y-1039580D01*
X40911397Y-836497D01*
X40855582Y-640330D01*
X40764673Y-457759D01*
X40641764Y-295001D01*
X40491041Y-157599D01*
X40317637Y-50232D01*
X40248840Y-23580D01*
X44450159Y-23580D01*
X44468977Y-226663D01*
X44524792Y-422830D01*
X44615701Y-605401D01*
X44738610Y-768159D01*
X44889333Y-905561D01*
X45062737Y-1012928D01*
X45252918Y-1086604D01*
X45453398Y-1124080D01*
X45657350Y-1124080D01*
X45857830Y-1086604D01*
X46048011Y-1012928D01*
X46221415Y-905561D01*
X46372138Y-768159D01*
X46495047Y-605401D01*
X46585956Y-422830D01*
X46641771Y-226663D01*
X46660589Y-23580D01*
X46641771Y179503D01*
X46585956Y375670D01*
X46495047Y558241D01*
X46372138Y720999D01*
X46221415Y858401D01*
X46048011Y965768D01*
X45857830Y1039444D01*
X45857829Y1039445D01*
X45857827Y1039445D01*
X45657350Y1076920D01*
X45453398Y1076920D01*
X45252920Y1039445D01*
X45183006Y1012361D01*
X45062737Y965768D01*
X44895016Y861920D01*
X44889333Y858401D01*
X44738611Y721000D01*
X44615702Y558243D01*
X44615697Y558234D01*
X44524793Y375673D01*
X44524792Y375670D01*
X44468977Y179503D01*
X44450159Y-23580D01*
X40248840Y-23580D01*
X40127456Y23444D01*
X40127455Y23445D01*
X40127453Y23445D01*
X39926976Y60920D01*
X39723024Y60920D01*
X39522546Y23445D01*
X39469960Y3073D01*
X39332363Y-50232D01*
X39158959Y-157598D01*
X39158959Y-157599D01*
X39008237Y-295000D01*
X38885328Y-457757D01*
X38885323Y-457766D01*
X38794419Y-640327D01*
X38794418Y-640330D01*
X38758812Y-765472D01*
X38738603Y-836497D01*
X38726626Y-965757D01*
X38719785Y-1039580D01*
X24765215Y-1039580D01*
X24746397Y-836497D01*
X24690582Y-640330D01*
X24599673Y-457759D01*
X24476764Y-295001D01*
X24326041Y-157599D01*
X24152637Y-50232D01*
X23962456Y23444D01*
X23962455Y23445D01*
X23962453Y23445D01*
X23761976Y60920D01*
X23558024Y60920D01*
X23357546Y23445D01*
X23304960Y3073D01*
X23167363Y-50232D01*
X22993958Y-157598D01*
X22993959Y-157599D01*
X22843237Y-295000D01*
X22720328Y-457757D01*
X22720323Y-457766D01*
X22629419Y-640327D01*
X22629418Y-640330D01*
X22573603Y-836497D01*
X22554785Y-1039580D01*
X6751765Y-1039580D01*
X9291764Y1500420D01*
X22554785Y1500420D01*
X22573603Y1297337D01*
X22629418Y1101170D01*
X22720327Y918599D01*
X22843236Y755841D01*
X22993959Y618439D01*
X23167363Y511072D01*
X23357544Y437396D01*
X23558024Y399920D01*
X23761976Y399920D01*
X23962456Y437396D01*
X24152637Y511072D01*
X24326041Y618439D01*
X24476764Y755841D01*
X24599673Y918599D01*
X24662637Y1045049D01*
X24705500Y1088711D01*
X24751258Y1099920D01*
X25552806Y1099920D01*
X25552807Y1099920D01*
X25575756Y1107377D01*
X25590839Y1110999D01*
X25614678Y1114774D01*
X25636176Y1125730D01*
X25650525Y1131672D01*
X25673464Y1139124D01*
X25692986Y1153309D01*
X25706223Y1161420D01*
X25727716Y1172370D01*
X25744635Y1189291D01*
X25744639Y1189293D01*
X25750281Y1194936D01*
X25750283Y1194936D01*
X26055767Y1500420D01*
X38719785Y1500420D01*
X38738603Y1297337D01*
X38794418Y1101170D01*
X38885327Y918599D01*
X39008236Y755841D01*
X39158959Y618439D01*
X39332363Y511072D01*
X39522544Y437396D01*
X39723024Y399920D01*
X39926976Y399920D01*
X40127456Y437396D01*
X40317637Y511072D01*
X40491041Y618439D01*
X40641764Y755841D01*
X40764673Y918599D01*
X40855582Y1101170D01*
X40911397Y1297337D01*
X40930215Y1500420D01*
X40911397Y1703503D01*
X40855582Y1899670D01*
X40764673Y2082241D01*
X40641764Y2244999D01*
X40491041Y2382401D01*
X40317637Y2489768D01*
X40248840Y2516420D01*
X44450159Y2516420D01*
X44468977Y2313337D01*
X44524792Y2117170D01*
X44615701Y1934599D01*
X44738610Y1771841D01*
X44889333Y1634439D01*
X45062737Y1527072D01*
X45252918Y1453396D01*
X45453398Y1415920D01*
X45657350Y1415920D01*
X45857830Y1453396D01*
X46048011Y1527072D01*
X46221415Y1634439D01*
X46372138Y1771841D01*
X46495047Y1934599D01*
X46585956Y2117170D01*
X46641771Y2313337D01*
X46660589Y2516420D01*
X46641771Y2719503D01*
X46585956Y2915670D01*
X46495047Y3098241D01*
X46372138Y3260999D01*
X46221415Y3398401D01*
X46048011Y3505768D01*
X45857830Y3579444D01*
X45857829Y3579445D01*
X45857827Y3579445D01*
X45657350Y3616920D01*
X45453398Y3616920D01*
X45252920Y3579445D01*
X45183006Y3552361D01*
X45062737Y3505768D01*
X44986555Y3458598D01*
X44889333Y3398401D01*
X44738611Y3261000D01*
X44615702Y3098243D01*
X44615697Y3098234D01*
X44524793Y2915673D01*
X44524792Y2915670D01*
X44468977Y2719503D01*
X44450159Y2516420D01*
X40248840Y2516420D01*
X40127456Y2563444D01*
X40127455Y2563445D01*
X40127453Y2563445D01*
X39926976Y2600920D01*
X39723024Y2600920D01*
X39522546Y2563445D01*
X39452632Y2536361D01*
X39332363Y2489768D01*
X39158959Y2382402D01*
X39158959Y2382401D01*
X39008237Y2245000D01*
X38885328Y2082243D01*
X38885323Y2082234D01*
X38795647Y1902139D01*
X38794418Y1899670D01*
X38738603Y1703503D01*
X38719785Y1500420D01*
X26055767Y1500420D01*
X28595767Y4040420D01*
X38719785Y4040420D01*
X38738603Y3837337D01*
X38794418Y3641170D01*
X38885327Y3458599D01*
X39008236Y3295841D01*
X39158959Y3158439D01*
X39332363Y3051072D01*
X39522544Y2977396D01*
X39723024Y2939920D01*
X39926976Y2939920D01*
X40127456Y2977396D01*
X40317637Y3051072D01*
X40491041Y3158439D01*
X40641764Y3295841D01*
X40764673Y3458599D01*
X40855582Y3641170D01*
X40911397Y3837337D01*
X40930215Y4040420D01*
X40911397Y4243503D01*
X40855582Y4439670D01*
X40764673Y4622241D01*
X40641764Y4784999D01*
X40491041Y4922401D01*
X40317637Y5029768D01*
X40248840Y5056420D01*
X44450159Y5056420D01*
X44468977Y4853337D01*
X44524792Y4657170D01*
X44615701Y4474599D01*
X44738610Y4311841D01*
X44889333Y4174439D01*
X45062737Y4067072D01*
X45252918Y3993396D01*
X45453398Y3955920D01*
X45657350Y3955920D01*
X45857830Y3993396D01*
X46048011Y4067072D01*
X46221415Y4174439D01*
X46372138Y4311841D01*
X46495047Y4474599D01*
X46585956Y4657170D01*
X46641771Y4853337D01*
X46660589Y5056420D01*
X46641771Y5259503D01*
X46585956Y5455670D01*
X46495047Y5638241D01*
X46372138Y5800999D01*
X46221415Y5938401D01*
X46048011Y6045768D01*
X45857830Y6119444D01*
X45857829Y6119445D01*
X45857827Y6119445D01*
X45657350Y6156920D01*
X45453398Y6156920D01*
X45252920Y6119445D01*
X45183006Y6092361D01*
X45062737Y6045768D01*
X44986555Y5998598D01*
X44889333Y5938401D01*
X44738611Y5801000D01*
X44615702Y5638243D01*
X44615697Y5638234D01*
X44524793Y5455673D01*
X44524792Y5455670D01*
X44468977Y5259503D01*
X44450159Y5056420D01*
X40248840Y5056420D01*
X40127456Y5103444D01*
X40127455Y5103445D01*
X40127453Y5103445D01*
X39926976Y5140920D01*
X39723024Y5140920D01*
X39522546Y5103445D01*
X39452632Y5076361D01*
X39332363Y5029768D01*
X39158959Y4922401D01*
X39008237Y4785000D01*
X38885328Y4622243D01*
X38885323Y4622234D01*
X38794419Y4439673D01*
X38794418Y4439670D01*
X38738603Y4243503D01*
X38719785Y4040420D01*
X28595767Y4040420D01*
X32801095Y8245748D01*
X38724500Y8245748D01*
X38724501Y8245736D01*
X38739033Y8172684D01*
X38739035Y8172678D01*
X38794397Y8089821D01*
X38794399Y8089819D01*
X38877260Y8034454D01*
X38932808Y8023405D01*
X38950315Y8019922D01*
X38950320Y8019922D01*
X38950326Y8019920D01*
X38950327Y8019920D01*
X40699673Y8019920D01*
X40699674Y8019920D01*
X40772740Y8034454D01*
X40855601Y8089819D01*
X40910966Y8172680D01*
X40925500Y8245746D01*
X40925500Y9995094D01*
X40910966Y10068160D01*
X40855601Y10151021D01*
X40855599Y10151023D01*
X40772742Y10206385D01*
X40772740Y10206386D01*
X40772737Y10206387D01*
X40772736Y10206387D01*
X40699684Y10220919D01*
X40699674Y10220920D01*
X38950326Y10220920D01*
X38950325Y10220920D01*
X38950315Y10220919D01*
X38877263Y10206387D01*
X38877257Y10206385D01*
X38794400Y10151023D01*
X38794397Y10151020D01*
X38739035Y10068163D01*
X38739033Y10068157D01*
X38724501Y9995105D01*
X38724500Y9995093D01*
X38724500Y8245748D01*
X32801095Y8245748D01*
X35532271Y10976924D01*
X35586788Y11004701D01*
X35602275Y11005920D01*
X41538473Y11005920D01*
X41596664Y10987013D01*
X41608477Y10976924D01*
X44498037Y8087364D01*
X44525814Y8032847D01*
X44523254Y7990268D01*
X44468977Y7799505D01*
X44468976Y7799503D01*
X44468977Y7799503D01*
X44450159Y7596420D01*
X44468977Y7393337D01*
X44524792Y7197170D01*
X44615701Y7014599D01*
X44738610Y6851841D01*
X44889333Y6714439D01*
X45062737Y6607072D01*
X45252918Y6533396D01*
X45453398Y6495920D01*
X45657350Y6495920D01*
X45857830Y6533396D01*
X46048011Y6607072D01*
X46221415Y6714439D01*
X46372138Y6851841D01*
X46495047Y7014599D01*
X46585956Y7197170D01*
X46641771Y7393337D01*
X46660589Y7596420D01*
X46641771Y7799503D01*
X46585956Y7995670D01*
X46495047Y8178241D01*
X46372138Y8340999D01*
X46221415Y8478401D01*
X46048011Y8585768D01*
X45857830Y8659444D01*
X45857829Y8659445D01*
X45857827Y8659445D01*
X45657350Y8696920D01*
X45453398Y8696920D01*
X45252926Y8659446D01*
X45252920Y8659445D01*
X45252918Y8659444D01*
X45186670Y8633781D01*
X45173112Y8628528D01*
X45112021Y8625139D01*
X45067347Y8650840D01*
X43567164Y10151023D01*
X42006283Y11711904D01*
X42006279Y11711907D01*
X42003798Y11714388D01*
X42003798Y11714389D01*
X41983717Y11734469D01*
X41983716Y11734470D01*
X41962221Y11745423D01*
X41948982Y11753536D01*
X41942955Y11757915D01*
X41929464Y11767716D01*
X41929462Y11767717D01*
X41906516Y11775173D01*
X41892162Y11781119D01*
X41870680Y11792066D01*
X41846848Y11795841D01*
X41831748Y11799467D01*
X41808811Y11806920D01*
X41808807Y11806920D01*
X41776893Y11806920D01*
X35458807Y11806920D01*
X35331941Y11806920D01*
X35331939Y11806920D01*
X35331933Y11806919D01*
X35308993Y11799466D01*
X35293898Y11795842D01*
X35270075Y11792068D01*
X35270069Y11792066D01*
X35248575Y11781115D01*
X35234231Y11775174D01*
X35211285Y11767718D01*
X35211282Y11767716D01*
X35191764Y11753536D01*
X35178526Y11745423D01*
X35157031Y11734470D01*
X35134467Y11711906D01*
X35134464Y11711905D01*
X35134465Y11711904D01*
X25352477Y1929916D01*
X25297960Y1902139D01*
X25282473Y1900920D01*
X24751258Y1900920D01*
X24693067Y1919827D01*
X24662637Y1955792D01*
X24599673Y2082241D01*
X24476764Y2244999D01*
X24326041Y2382401D01*
X24152637Y2489768D01*
X23962456Y2563444D01*
X23962455Y2563445D01*
X23962453Y2563445D01*
X23761976Y2600920D01*
X23558024Y2600920D01*
X23357546Y2563445D01*
X23287632Y2536361D01*
X23167363Y2489768D01*
X22993958Y2382402D01*
X22993959Y2382401D01*
X22843237Y2245000D01*
X22720328Y2082243D01*
X22720323Y2082234D01*
X22629419Y1899673D01*
X22573603Y1703503D01*
X22561626Y1574243D01*
X22554785Y1500420D01*
X9291764Y1500420D01*
X11831764Y4040420D01*
X22554785Y4040420D01*
X22573603Y3837337D01*
X22629418Y3641170D01*
X22720327Y3458599D01*
X22843236Y3295841D01*
X22993959Y3158439D01*
X23167363Y3051072D01*
X23357544Y2977396D01*
X23558024Y2939920D01*
X23761976Y2939920D01*
X23962456Y2977396D01*
X24152637Y3051072D01*
X24326041Y3158439D01*
X24476764Y3295841D01*
X24599673Y3458599D01*
X24690582Y3641170D01*
X24746397Y3837337D01*
X24765215Y4040420D01*
X24746397Y4243503D01*
X24690582Y4439670D01*
X24599673Y4622241D01*
X24476764Y4784999D01*
X24326041Y4922401D01*
X24152637Y5029768D01*
X23962456Y5103444D01*
X23962455Y5103445D01*
X23962453Y5103445D01*
X23761976Y5140920D01*
X23558024Y5140920D01*
X23357546Y5103445D01*
X23287632Y5076361D01*
X23167363Y5029768D01*
X22993958Y4922401D01*
X22993959Y4922401D01*
X22843237Y4785000D01*
X22720328Y4622243D01*
X22720323Y4622234D01*
X22629419Y4439673D01*
X22573603Y4243503D01*
X22567204Y4174440D01*
X22554785Y4040420D01*
X11831764Y4040420D01*
X13933647Y6142303D01*
X13939280Y6147935D01*
X13939283Y6147936D01*
X13942272Y6150926D01*
X13953678Y6156737D01*
X13959365Y6160835D01*
X13959369Y6160837D01*
X13959847Y6159880D01*
X13996787Y6178701D01*
X14012274Y6179920D01*
X22568742Y6179920D01*
X22626933Y6161013D01*
X22657362Y6125049D01*
X22720327Y5998599D01*
X22843236Y5835841D01*
X22993959Y5698439D01*
X23167363Y5591072D01*
X23357544Y5517396D01*
X23558024Y5479920D01*
X23761976Y5479920D01*
X23962456Y5517396D01*
X24152637Y5591072D01*
X24326041Y5698439D01*
X24476764Y5835841D01*
X24599673Y5998599D01*
X24690582Y6181170D01*
X24746397Y6377337D01*
X24765215Y6580420D01*
X24746397Y6783503D01*
X24690582Y6979670D01*
X24599673Y7162241D01*
X24476764Y7324999D01*
X24326041Y7462401D01*
X24152637Y7569768D01*
X23962456Y7643444D01*
X23962455Y7643445D01*
X23962453Y7643445D01*
X23761976Y7680920D01*
X23558024Y7680920D01*
X23357546Y7643445D01*
X23287632Y7616361D01*
X23167363Y7569768D01*
X22993959Y7462402D01*
X22993959Y7462401D01*
X22843237Y7325000D01*
X22720328Y7162243D01*
X22720323Y7162234D01*
X22657363Y7035792D01*
X22614500Y6992129D01*
X22568742Y6980920D01*
X13868807Y6980920D01*
X13741941Y6980920D01*
X13741939Y6980920D01*
X13741936Y6980919D01*
X13718998Y6973467D01*
X13703903Y6969843D01*
X13680075Y6966068D01*
X13680065Y6966065D01*
X13658576Y6955115D01*
X13644227Y6949172D01*
X13639540Y6947649D01*
X13621284Y6941717D01*
X13607618Y6931788D01*
X13601765Y6927535D01*
X13588522Y6919420D01*
X13567031Y6908471D01*
X13567031Y6908470D01*
X13497694Y6839137D01*
X13497690Y6839129D01*
X13372890Y6714329D01*
X13372887Y6714326D01*
X13372883Y6714323D01*
X5282476Y-1376084D01*
X5227959Y-1403861D01*
X5212472Y-1405080D01*
X5121256Y-1405080D01*
X5063065Y-1386173D01*
X5027101Y-1336673D01*
X5027101Y-1275487D01*
X5051252Y-1236076D01*
X13070831Y6783503D01*
X14533076Y8245748D01*
X22559500Y8245748D01*
X22559501Y8245736D01*
X22574033Y8172684D01*
X22574035Y8172678D01*
X22629397Y8089821D01*
X22629399Y8089819D01*
X22712260Y8034454D01*
X22767808Y8023405D01*
X22785315Y8019922D01*
X22785320Y8019922D01*
X22785326Y8019920D01*
X22785327Y8019920D01*
X24534673Y8019920D01*
X24534674Y8019920D01*
X24607740Y8034454D01*
X24690601Y8089819D01*
X24745966Y8172680D01*
X24760500Y8245746D01*
X24760500Y9995094D01*
X24745966Y10068160D01*
X24690601Y10151021D01*
X24690599Y10151023D01*
X24607742Y10206385D01*
X24607740Y10206386D01*
X24607737Y10206387D01*
X24607736Y10206387D01*
X24534684Y10220919D01*
X24534674Y10220920D01*
X22785326Y10220920D01*
X22785325Y10220920D01*
X22785315Y10220919D01*
X22712263Y10206387D01*
X22712257Y10206385D01*
X22629400Y10151023D01*
X22629397Y10151020D01*
X22574035Y10068163D01*
X22574033Y10068157D01*
X22559501Y9995105D01*
X22559500Y9995093D01*
X22559500Y8245748D01*
X14533076Y8245748D01*
X21192728Y14905401D01*
X21208574Y14918268D01*
X21219836Y14925625D01*
X21242118Y14954254D01*
X21246166Y14958839D01*
X21249520Y14962191D01*
X21263094Y14981205D01*
X21296809Y15024520D01*
X21296810Y15024524D01*
X21300543Y15031422D01*
X21304010Y15038511D01*
X21316048Y15078948D01*
X21319670Y15091113D01*
X21337500Y15143049D01*
X21337500Y15143054D01*
X21338790Y15150783D01*
X21339765Y15158614D01*
X21339768Y15158621D01*
X21337500Y15213465D01*
X21337500Y17495101D01*
X43034057Y17495101D01*
X43053139Y17143144D01*
X43110163Y16795308D01*
X43204455Y16455701D01*
X43204457Y16455696D01*
X43204458Y16455692D01*
X43204460Y16455687D01*
X43334924Y16128247D01*
X43500026Y15816832D01*
X43697830Y15525093D01*
X43697834Y15525088D01*
X43697835Y15525087D01*
X43926012Y15256456D01*
X43926022Y15256446D01*
X44181907Y15014058D01*
X44181911Y15014055D01*
X44462513Y14800747D01*
X44764533Y14619027D01*
X45084430Y14471027D01*
X45418453Y14358482D01*
X45418458Y14358481D01*
X45418461Y14358480D01*
X45762681Y14282711D01*
X45762682Y14282711D01*
X45762686Y14282710D01*
X46029559Y14253686D01*
X46113093Y14244601D01*
X46113094Y14244601D01*
X46465569Y14244601D01*
X46533022Y14251938D01*
X46815976Y14282710D01*
X46865141Y14293532D01*
X46930720Y14307968D01*
X47160200Y14358480D01*
X47160201Y14358480D01*
X47160203Y14358481D01*
X47160209Y14358482D01*
X47494232Y14471027D01*
X47814129Y14619027D01*
X48116149Y14800747D01*
X48396751Y15014055D01*
X48652645Y15256451D01*
X48880832Y15525093D01*
X49078636Y15816832D01*
X49243738Y16128247D01*
X49374202Y16455687D01*
X49418176Y16614065D01*
X49468498Y16795308D01*
X49487296Y16909969D01*
X49525522Y17143144D01*
X49544605Y17495101D01*
X49525522Y17847058D01*
X49520695Y17876499D01*
X49468498Y18194895D01*
X49374206Y18534502D01*
X49374204Y18534507D01*
X49374202Y18534515D01*
X49243738Y18861955D01*
X49078636Y19173370D01*
X48880832Y19465109D01*
X48803417Y19556249D01*
X48652649Y19733747D01*
X48652639Y19733757D01*
X48396754Y19976145D01*
X48116153Y20189452D01*
X48116152Y20189453D01*
X48116149Y20189455D01*
X47814129Y20371175D01*
X47520719Y20506921D01*
X47494237Y20519173D01*
X47494234Y20519174D01*
X47494232Y20519175D01*
X47160209Y20631720D01*
X47160208Y20631721D01*
X47160200Y20631723D01*
X46815980Y20707492D01*
X46815981Y20707492D01*
X46465569Y20745601D01*
X46465568Y20745601D01*
X46113094Y20745601D01*
X46113093Y20745601D01*
X45762680Y20707492D01*
X45418462Y20631723D01*
X45418460Y20631723D01*
X45084424Y20519173D01*
X44764541Y20371179D01*
X44764535Y20371176D01*
X44764533Y20371175D01*
X44557766Y20246767D01*
X44462513Y20189455D01*
X44462508Y20189452D01*
X44181907Y19976145D01*
X43926022Y19733757D01*
X43926012Y19733747D01*
X43697835Y19465116D01*
X43697830Y19465110D01*
X43697830Y19465109D01*
X43500026Y19173370D01*
X43334924Y18861955D01*
X43223266Y18581713D01*
X43204457Y18534507D01*
X43204455Y18534502D01*
X43110163Y18194895D01*
X43053139Y17847059D01*
X43034057Y17495101D01*
X21337500Y17495101D01*
X21337500Y21457788D01*
X21826988Y21457788D01*
X21846070Y21105830D01*
X21903094Y20757994D01*
X21997386Y20418387D01*
X21997388Y20418382D01*
X21997389Y20418378D01*
X21997391Y20418373D01*
X22127855Y20090933D01*
X22292957Y19779518D01*
X22490761Y19487779D01*
X22490765Y19487774D01*
X22490766Y19487773D01*
X22718943Y19219142D01*
X22718953Y19219132D01*
X22974838Y18976744D01*
X22974842Y18976741D01*
X23255444Y18763433D01*
X23557464Y18581713D01*
X23877361Y18433713D01*
X24211384Y18321168D01*
X24211389Y18321167D01*
X24211392Y18321166D01*
X24555612Y18245397D01*
X24555613Y18245397D01*
X24555617Y18245396D01*
X24822490Y18216372D01*
X24906024Y18207287D01*
X24906025Y18207287D01*
X25258500Y18207287D01*
X25325953Y18214624D01*
X25608907Y18245396D01*
X25953131Y18321166D01*
X25953132Y18321166D01*
X25953134Y18321167D01*
X25953140Y18321168D01*
X26287163Y18433713D01*
X26607060Y18581713D01*
X26909080Y18763433D01*
X27189682Y18976741D01*
X27445576Y19219137D01*
X27673763Y19487779D01*
X27871567Y19779518D01*
X28036669Y20090933D01*
X28167133Y20418373D01*
X28167137Y20418387D01*
X28261429Y20757994D01*
X28279243Y20866653D01*
X28318453Y21105830D01*
X28337536Y21457787D01*
X28318453Y21809744D01*
X28314148Y21836001D01*
X28261429Y22157581D01*
X28167137Y22497188D01*
X28167135Y22497193D01*
X28167133Y22497201D01*
X28036669Y22824641D01*
X27871567Y23136056D01*
X27673763Y23427795D01*
X27600523Y23514020D01*
X27445580Y23696433D01*
X27445570Y23696443D01*
X27189685Y23938831D01*
X26909084Y24152138D01*
X26909083Y24152139D01*
X26909080Y24152141D01*
X26607060Y24333861D01*
X26472749Y24396000D01*
X26287168Y24481859D01*
X26287165Y24481860D01*
X26287163Y24481861D01*
X25953140Y24594406D01*
X25953139Y24594407D01*
X25953131Y24594409D01*
X25608911Y24670178D01*
X25608912Y24670178D01*
X25258500Y24708287D01*
X25258499Y24708287D01*
X24906025Y24708287D01*
X24906024Y24708287D01*
X24555611Y24670178D01*
X24211393Y24594409D01*
X24211391Y24594409D01*
X23877355Y24481859D01*
X23557472Y24333865D01*
X23557466Y24333862D01*
X23255444Y24152141D01*
X23255439Y24152138D01*
X22974838Y23938831D01*
X22718953Y23696443D01*
X22718943Y23696433D01*
X22490766Y23427802D01*
X22490761Y23427796D01*
X22490761Y23427795D01*
X22292957Y23136056D01*
X22138833Y22845348D01*
X22127855Y22824641D01*
X21997388Y22497193D01*
X21997386Y22497188D01*
X21903094Y22157581D01*
X21846070Y21809745D01*
X21826988Y21457788D01*
X21337500Y21457788D01*
X21337500Y21472585D01*
X21339607Y21492899D01*
X21342367Y21506062D01*
X21337879Y21542061D01*
X21337500Y21548186D01*
X21337500Y21552914D01*
X21333658Y21575935D01*
X21330035Y21604989D01*
X21326866Y21630420D01*
X21326864Y21630424D01*
X21324626Y21637944D01*
X21322065Y21645405D01*
X21295945Y21693671D01*
X21284141Y21717815D01*
X21271826Y21743005D01*
X21271824Y21743007D01*
X21271824Y21743008D01*
X21267271Y21749385D01*
X21262421Y21755617D01*
X21262419Y21755620D01*
X21222028Y21792803D01*
X18434396Y24580436D01*
X18421520Y24596293D01*
X18414169Y24607545D01*
X18385548Y24629822D01*
X18380955Y24633877D01*
X18377603Y24637229D01*
X18358589Y24650804D01*
X18333698Y24670178D01*
X18315275Y24684518D01*
X18308366Y24688257D01*
X18301280Y24691721D01*
X18262828Y24703168D01*
X18248681Y24707380D01*
X18196745Y24725209D01*
X18196742Y24725210D01*
X18189008Y24726501D01*
X18181174Y24727477D01*
X18181173Y24727477D01*
X18181171Y24727477D01*
X18126329Y24725209D01*
X17327741Y24725209D01*
X17269550Y24744116D01*
X17239120Y24780081D01*
X17231567Y24795250D01*
X17150617Y24957821D01*
X17027708Y25120579D01*
X16876985Y25257981D01*
X16703581Y25365348D01*
X16513400Y25439024D01*
X16513399Y25439025D01*
X16513397Y25439025D01*
X16312920Y25476500D01*
X16108968Y25476500D01*
X15908490Y25439025D01*
X15838576Y25411941D01*
X15718307Y25365348D01*
X15577204Y25277981D01*
X15544903Y25257981D01*
X15394181Y25120580D01*
X15271272Y24957823D01*
X15271267Y24957814D01*
X15180363Y24775253D01*
X15180362Y24775250D01*
X15124547Y24579083D01*
X15105729Y24376000D01*
X15124547Y24172917D01*
X15180362Y23976750D01*
X15271271Y23794179D01*
X15394180Y23631421D01*
X15544903Y23494019D01*
X15718307Y23386652D01*
X15908488Y23312976D01*
X16108968Y23275500D01*
X16312920Y23275500D01*
X16513400Y23312976D01*
X16703581Y23386652D01*
X16876985Y23494019D01*
X17027708Y23631421D01*
X17150617Y23794179D01*
X17212938Y23919338D01*
X17255801Y23962999D01*
X17301559Y23974209D01*
X17937540Y23974209D01*
X17995731Y23955302D01*
X18007544Y23945213D01*
X20557504Y21395254D01*
X20585281Y21340737D01*
X20586500Y21325250D01*
X20586500Y15402256D01*
X20567593Y15344065D01*
X20557504Y15332252D01*
X-9240729Y-14465980D01*
X-9256580Y-14478852D01*
X-9267834Y-14486205D01*
X-9267841Y-14486211D01*
X-9290116Y-14514830D01*
X-9294171Y-14519422D01*
X-9297515Y-14522766D01*
X-9297521Y-14522774D01*
X-9311095Y-14541786D01*
X-9344809Y-14585101D01*
X-9348553Y-14592019D01*
X-9352012Y-14599093D01*
X-9367671Y-14651694D01*
X-9385501Y-14703631D01*
X-9386791Y-14711363D01*
X-9387768Y-14719206D01*
X-9385500Y-14774046D01*
X-9385500Y-24876593D01*
X-9387648Y-24897103D01*
X-9390334Y-24909785D01*
X-9390334Y-24909790D01*
X-11035462Y-24909790D01*
X-11145504Y-24799748D01*
X-11173281Y-24745231D01*
X-11174500Y-24729744D01*
X-11174500Y-14708835D01*
X-11155593Y-14650644D01*
X-11145510Y-14638837D01*
X19668728Y16175401D01*
X19684574Y16188268D01*
X19695836Y16195625D01*
X19718118Y16224254D01*
X19722166Y16228839D01*
X19725520Y16232191D01*
X19739094Y16251205D01*
X19772809Y16294520D01*
X19772810Y16294524D01*
X19776543Y16301422D01*
X19780010Y16308511D01*
X19795670Y16361113D01*
X19813500Y16413049D01*
X19813500Y16413054D01*
X19814790Y16420783D01*
X19815765Y16428614D01*
X19815768Y16428621D01*
X19813500Y16483465D01*
X19813499Y20236500D01*
X19815607Y20256816D01*
X19818367Y20269978D01*
X19813879Y20305975D01*
X19813500Y20312101D01*
X19813500Y20316825D01*
X19809655Y20339860D01*
X19809429Y20341675D01*
X19802865Y20394335D01*
X19802862Y20394341D01*
X19800613Y20401896D01*
X19798066Y20409317D01*
X19771942Y20457590D01*
X19747826Y20506920D01*
X19747826Y20506921D01*
X19747823Y20506924D01*
X19743255Y20513322D01*
X19738419Y20519535D01*
X19738418Y20519536D01*
X19698041Y20556706D01*
X18214310Y22040436D01*
X18201435Y22056293D01*
X18194084Y22067545D01*
X18165463Y22089822D01*
X18160870Y22093877D01*
X18157518Y22097229D01*
X18138504Y22110804D01*
X18128904Y22118277D01*
X18095190Y22144518D01*
X18088281Y22148257D01*
X18081195Y22151721D01*
X18042743Y22163168D01*
X18028596Y22167380D01*
X17976660Y22185209D01*
X17976657Y22185210D01*
X17968923Y22186501D01*
X17961089Y22187477D01*
X17961088Y22187477D01*
X17961086Y22187477D01*
X17906244Y22185209D01*
X17327741Y22185209D01*
X17269550Y22204116D01*
X17239120Y22240081D01*
X17231567Y22255250D01*
X17150617Y22417821D01*
X17027708Y22580579D01*
X16876985Y22717981D01*
X16703581Y22825348D01*
X16513400Y22899024D01*
X16513399Y22899025D01*
X16513397Y22899025D01*
X16312920Y22936500D01*
X16108968Y22936500D01*
X15908490Y22899025D01*
X15838576Y22871941D01*
X15718307Y22825348D01*
X15577204Y22737981D01*
X15544903Y22717981D01*
X15394181Y22580580D01*
X15271272Y22417823D01*
X15271267Y22417814D01*
X15180363Y22235253D01*
X15180362Y22235250D01*
X15124547Y22039083D01*
X15105729Y21836000D01*
X15124547Y21632917D01*
X15174671Y21456750D01*
X15180363Y21436748D01*
X15228170Y21340737D01*
X15271271Y21254179D01*
X15394180Y21091421D01*
X15544903Y20954019D01*
X15718307Y20846652D01*
X15908488Y20772976D01*
X16108968Y20735500D01*
X16312920Y20735500D01*
X16513400Y20772976D01*
X16703581Y20846652D01*
X16876985Y20954019D01*
X17027708Y21091421D01*
X17150617Y21254179D01*
X17212938Y21379338D01*
X17255801Y21422999D01*
X17301559Y21434209D01*
X17717455Y21434209D01*
X17775646Y21415302D01*
X17787459Y21405213D01*
X19033504Y20159168D01*
X19061281Y20104651D01*
X19062500Y20089164D01*
X19062500Y16672256D01*
X19043593Y16614065D01*
X19033504Y16602252D01*
X-11780729Y-14211980D01*
X-11796580Y-14224852D01*
X-11807834Y-14232205D01*
X-11807841Y-14232211D01*
X-11830116Y-14260830D01*
X-11834171Y-14265422D01*
X-11837515Y-14268766D01*
X-11837521Y-14268774D01*
X-11851095Y-14287786D01*
X-11884809Y-14331101D01*
X-11888553Y-14338019D01*
X-11892012Y-14345093D01*
X-11907671Y-14397694D01*
X-11925501Y-14449631D01*
X-11926791Y-14457363D01*
X-11927768Y-14465206D01*
X-11925500Y-14520046D01*
X-11925500Y-24877079D01*
X-11927607Y-24897393D01*
X-11930367Y-24910556D01*
X-26527257Y-24910556D01*
X-29895601Y-21542212D01*
X-28173012Y-21542212D01*
X-28153930Y-21894170D01*
X-28096906Y-22242006D01*
X-28002614Y-22581613D01*
X-28002612Y-22581618D01*
X-28002611Y-22581622D01*
X-28002609Y-22581627D01*
X-27872145Y-22909067D01*
X-27707043Y-23220482D01*
X-27509239Y-23512221D01*
X-27509235Y-23512226D01*
X-27509234Y-23512227D01*
X-27281057Y-23780858D01*
X-27281047Y-23780868D01*
X-27025162Y-24023256D01*
X-27025158Y-24023259D01*
X-26744556Y-24236567D01*
X-26442536Y-24418287D01*
X-26122639Y-24566287D01*
X-25788616Y-24678832D01*
X-25788611Y-24678833D01*
X-25788608Y-24678834D01*
X-25444388Y-24754603D01*
X-25444387Y-24754603D01*
X-25444383Y-24754604D01*
X-25177510Y-24783628D01*
X-25093976Y-24792713D01*
X-25093975Y-24792713D01*
X-24741500Y-24792713D01*
X-24674047Y-24785376D01*
X-24391093Y-24754604D01*
X-24046869Y-24678834D01*
X-24046868Y-24678834D01*
X-24046866Y-24678833D01*
X-24046860Y-24678832D01*
X-23712837Y-24566287D01*
X-23392940Y-24418287D01*
X-23090920Y-24236567D01*
X-22810318Y-24023259D01*
X-22554424Y-23780863D01*
X-22326237Y-23512221D01*
X-22128433Y-23220482D01*
X-21963331Y-22909067D01*
X-21832867Y-22581627D01*
X-21738570Y-22242001D01*
X-21681547Y-21894170D01*
X-21662464Y-21542213D01*
X-21681547Y-21190256D01*
X-21711866Y-21005318D01*
X-21738571Y-20842419D01*
X-21832863Y-20502812D01*
X-21832865Y-20502807D01*
X-21832867Y-20502799D01*
X-21963331Y-20175359D01*
X-22128433Y-19863944D01*
X-22326237Y-19572205D01*
X-22452577Y-19423466D01*
X-22554420Y-19303567D01*
X-22554430Y-19303557D01*
X-22810315Y-19061169D01*
X-23090916Y-18847862D01*
X-23090917Y-18847861D01*
X-23090920Y-18847859D01*
X-23392940Y-18666139D01*
X-23502804Y-18615310D01*
X-23712832Y-18518141D01*
X-23712835Y-18518140D01*
X-23712837Y-18518139D01*
X-24046860Y-18405594D01*
X-24046861Y-18405593D01*
X-24046869Y-18405591D01*
X-24391089Y-18329822D01*
X-24391088Y-18329822D01*
X-24741500Y-18291713D01*
X-24741501Y-18291713D01*
X-25093975Y-18291713D01*
X-25093976Y-18291713D01*
X-25444389Y-18329822D01*
X-25788607Y-18405591D01*
X-25788609Y-18405591D01*
X-26122645Y-18518141D01*
X-26442528Y-18666135D01*
X-26442534Y-18666138D01*
X-26442536Y-18666139D01*
X-26645565Y-18788298D01*
X-26744556Y-18847859D01*
X-26744561Y-18847862D01*
X-27025162Y-19061169D01*
X-27281047Y-19303557D01*
X-27281057Y-19303567D01*
X-27509234Y-19572198D01*
X-27509241Y-19572208D01*
X-27646998Y-19775385D01*
X-27707043Y-19863944D01*
X-27872145Y-20175359D01*
X-28001651Y-20500396D01*
X-28002612Y-20502807D01*
X-28002614Y-20502812D01*
X-28096906Y-20842419D01*
X-28153930Y-21190255D01*
X-28173012Y-21542212D01*
X-29895601Y-21542212D01*
X-31483166Y-19954647D01*
X-31510943Y-19900130D01*
X-31501372Y-19839698D01*
X-31478810Y-19810540D01*
X-31424144Y-19762111D01*
X-31424144Y-19762110D01*
X-31424143Y-19762110D01*
X-31334406Y-19632103D01*
X-31278389Y-19484398D01*
X-31259348Y-19327580D01*
X-31262264Y-19303567D01*
X-31278389Y-19170763D01*
X-31278389Y-19170762D01*
X-31334406Y-19023057D01*
X-31424143Y-18893050D01*
X-31542386Y-18788297D01*
X-31612324Y-18751590D01*
X-31682262Y-18714883D01*
X-31835639Y-18677080D01*
X-31835641Y-18677080D01*
X-31993611Y-18677080D01*
X-31993614Y-18677080D01*
X-32146991Y-18714883D01*
X-32286868Y-18788298D01*
X-32405111Y-18893051D01*
X-32494846Y-19023056D01*
X-32550863Y-19170762D01*
X-32550864Y-19170763D01*
X-32569904Y-19327578D01*
X-32569904Y-19327581D01*
X-36175672Y-19327581D01*
X-36643028Y-18860225D01*
X-36670805Y-18805708D01*
X-36672024Y-18790221D01*
X-36672024Y-14211980D01*
X-36672024Y-5206999D01*
X-18226624Y-5206999D01*
X-18206368Y-5580613D01*
X-18145835Y-5949850D01*
X-18045741Y-6310354D01*
X-18045739Y-6310359D01*
X-18045738Y-6310363D01*
X-18045736Y-6310368D01*
X-17907245Y-6657955D01*
X-17731984Y-6988531D01*
X-17731981Y-6988535D01*
X-17731978Y-6988541D01*
X-17522019Y-7298209D01*
X-17522005Y-7298227D01*
X-17279788Y-7583387D01*
X-17279785Y-7583390D01*
X-17279783Y-7583392D01*
X-17008143Y-7840703D01*
X-16710276Y-8067136D01*
X-16389673Y-8260036D01*
X-16050094Y-8417142D01*
X-15695518Y-8536613D01*
X-15695513Y-8536614D01*
X-15695510Y-8536615D01*
X-15330110Y-8617045D01*
X-15330109Y-8617045D01*
X-15330105Y-8617046D01*
X-14958137Y-8657500D01*
X-14583975Y-8657500D01*
X-14212007Y-8617046D01*
X-13846603Y-8536615D01*
X-13846602Y-8536615D01*
X-13846600Y-8536614D01*
X-13846594Y-8536613D01*
X-13492018Y-8417142D01*
X-13152439Y-8260036D01*
X-12831836Y-8067136D01*
X-12533969Y-7840703D01*
X-12262329Y-7583392D01*
X-12020102Y-7298221D01*
X-11810128Y-6988531D01*
X-11634867Y-6657955D01*
X-11496376Y-6310368D01*
X-11466865Y-6204080D01*
X-11396278Y-5949850D01*
X-11385318Y-5883000D01*
X-11335745Y-5580613D01*
X-11315488Y-5207000D01*
X-11335745Y-4833387D01*
X-11396277Y-4464155D01*
X-11396278Y-4464154D01*
X-11396278Y-4464149D01*
X-11496372Y-4103645D01*
X-11496374Y-4103640D01*
X-11496376Y-4103632D01*
X-11634867Y-3756045D01*
X-11810128Y-3425469D01*
X-11813823Y-3420019D01*
X-12020094Y-3115790D01*
X-12020099Y-3115784D01*
X-12020102Y-3115779D01*
X-12097588Y-3024556D01*
X-12262325Y-2830612D01*
X-12276083Y-2817580D01*
X-12533969Y-2573297D01*
X-12533971Y-2573295D01*
X-12831832Y-2346867D01*
X-12831833Y-2346866D01*
X-12831836Y-2346864D01*
X-13050750Y-2215148D01*
X-13152438Y-2153964D01*
X-13492013Y-1996860D01*
X-13492016Y-1996859D01*
X-13492018Y-1996858D01*
X-13846594Y-1877387D01*
X-13846595Y-1877386D01*
X-13846603Y-1877384D01*
X-14212003Y-1796954D01*
X-14212002Y-1796954D01*
X-14583975Y-1756500D01*
X-14958137Y-1756500D01*
X-15330111Y-1796954D01*
X-15695509Y-1877384D01*
X-15695511Y-1877384D01*
X-16050100Y-1996860D01*
X-16389675Y-2153964D01*
X-16710276Y-2346864D01*
X-16710281Y-2346867D01*
X-17008142Y-2573295D01*
X-17234433Y-2787649D01*
X-17266029Y-2817580D01*
X-17279787Y-2830612D01*
X-17279788Y-2830612D01*
X-17522005Y-3115772D01*
X-17522019Y-3115790D01*
X-17731978Y-3425458D01*
X-17731984Y-3425467D01*
X-17731984Y-3425469D01*
X-17907245Y-3756045D01*
X-18005672Y-4003080D01*
X-18045739Y-4103640D01*
X-18045741Y-4103645D01*
X-18145835Y-4464149D01*
X-18206368Y-4833386D01*
X-18226624Y-5206999D01*
X-36672024Y-5206999D01*
X-36672024Y-2817580D01*
X-23280008Y-2817580D01*
X-23260523Y-3027860D01*
X-23202730Y-3230978D01*
X-23108599Y-3420019D01*
X-23108596Y-3420024D01*
X-23108594Y-3420026D01*
X-22981340Y-3588540D01*
X-22981337Y-3588543D01*
X-22981335Y-3588545D01*
X-22825270Y-3730817D01*
X-22645721Y-3841989D01*
X-22448801Y-3918276D01*
X-22241216Y-3957080D01*
X-22030036Y-3957080D01*
X-21822451Y-3918276D01*
X-21625531Y-3841989D01*
X-21445982Y-3730817D01*
X-21289917Y-3588545D01*
X-21162653Y-3420019D01*
X-21068522Y-3230978D01*
X-21010729Y-3027860D01*
X-20991244Y-2817580D01*
X-21010729Y-2607300D01*
X-21068522Y-2404182D01*
X-21162653Y-2215141D01*
X-21219336Y-2140080D01*
X-21289913Y-2046619D01*
X-21299862Y-2037549D01*
X-21445982Y-1904343D01*
X-21625531Y-1793171D01*
X-21822451Y-1716884D01*
X-21822452Y-1716883D01*
X-21822454Y-1716883D01*
X-22030036Y-1678080D01*
X-22241216Y-1678080D01*
X-22448799Y-1716883D01*
X-22521190Y-1744927D01*
X-22645721Y-1793171D01*
X-22816256Y-1898762D01*
X-22825270Y-1904343D01*
X-22981340Y-2046619D01*
X-23108594Y-2215133D01*
X-23108603Y-2215148D01*
X-23202729Y-2404179D01*
X-23260523Y-2607298D01*
X-23260524Y-2607300D01*
X-23260523Y-2607300D01*
X-23280008Y-2817580D01*
X-36672024Y-2817580D01*
X-36672024Y-1035883D01*
X-36669917Y-1015582D01*
X-36667156Y-1002415D01*
X-36671644Y-966416D01*
X-36672023Y-960291D01*
X-36672023Y-955563D01*
X-36675865Y-932542D01*
X-36682412Y-880026D01*
X-36682657Y-878057D01*
X-36682659Y-878053D01*
X-36684897Y-870533D01*
X-36687458Y-863072D01*
X-36713578Y-814806D01*
X-36725382Y-790662D01*
X-36737697Y-765472D01*
X-36737699Y-765470D01*
X-36737699Y-765469D01*
X-36742252Y-759092D01*
X-36747102Y-752860D01*
X-36747104Y-752857D01*
X-36787495Y-715674D01*
X-37225589Y-277580D01*
X-23280008Y-277580D01*
X-23260523Y-487860D01*
X-23202730Y-690978D01*
X-23108599Y-880019D01*
X-23108596Y-880024D01*
X-23108594Y-880026D01*
X-22981340Y-1048540D01*
X-22981337Y-1048543D01*
X-22981335Y-1048545D01*
X-22825270Y-1190817D01*
X-22645721Y-1301989D01*
X-22448801Y-1378276D01*
X-22241216Y-1417080D01*
X-22030036Y-1417080D01*
X-21822451Y-1378276D01*
X-21625531Y-1301989D01*
X-21445982Y-1190817D01*
X-21289917Y-1048545D01*
X-21162653Y-880019D01*
X-21068522Y-690978D01*
X-21010729Y-487860D01*
X-20991244Y-277580D01*
X-21010729Y-67300D01*
X-21068522Y135818D01*
X-21162653Y324859D01*
X-21201023Y375670D01*
X-21289913Y493381D01*
X-21309320Y511073D01*
X-21445982Y635657D01*
X-21625531Y746829D01*
X-21822451Y823116D01*
X-21822452Y823117D01*
X-21822454Y823117D01*
X-22030036Y861920D01*
X-22241216Y861920D01*
X-22448799Y823117D01*
X-22521190Y795073D01*
X-22645721Y746829D01*
X-22825271Y635657D01*
X-22825270Y635657D01*
X-22981340Y493381D01*
X-23108594Y324867D01*
X-23108603Y324852D01*
X-23202729Y135821D01*
X-23260523Y-67298D01*
X-23260524Y-67300D01*
X-23260523Y-67300D01*
X-23280008Y-277580D01*
X-37225589Y-277580D01*
X-37878842Y375673D01*
X-38976606Y1473438D01*
X-39004383Y1527955D01*
X-38994812Y1588387D01*
X-38985610Y1603098D01*
X-38942653Y1659981D01*
X-38848522Y1849022D01*
X-38790729Y2052140D01*
X-38771244Y2262420D01*
X-23280008Y2262420D01*
X-23260523Y2052140D01*
X-23202730Y1849022D01*
X-23108599Y1659981D01*
X-23108598Y1659980D01*
X-23108594Y1659974D01*
X-22981340Y1491460D01*
X-22981337Y1491457D01*
X-22981335Y1491455D01*
X-22825270Y1349183D01*
X-22645721Y1238011D01*
X-22448801Y1161724D01*
X-22241216Y1122920D01*
X-22030036Y1122920D01*
X-21822451Y1161724D01*
X-21625531Y1238011D01*
X-21445982Y1349183D01*
X-21289917Y1491455D01*
X-21162653Y1659981D01*
X-21068522Y1849022D01*
X-21010729Y2052140D01*
X-20991244Y2262420D01*
X-21010729Y2472700D01*
X-21068522Y2675818D01*
X-21162653Y2864859D01*
X-21201023Y2915670D01*
X-21289913Y3033381D01*
X-21309320Y3051073D01*
X-21445982Y3175657D01*
X-21625531Y3286829D01*
X-21822451Y3363116D01*
X-21822452Y3363117D01*
X-21822454Y3363117D01*
X-22030036Y3401920D01*
X-22241216Y3401920D01*
X-22448799Y3363117D01*
X-22521190Y3335073D01*
X-22645721Y3286829D01*
X-22825271Y3175657D01*
X-22825270Y3175657D01*
X-22981340Y3033381D01*
X-23108594Y2864867D01*
X-23108603Y2864852D01*
X-23202729Y2675821D01*
X-23260523Y2472702D01*
X-23260524Y2472700D01*
X-23260523Y2472700D01*
X-23280008Y2262420D01*
X-38771244Y2262420D01*
X-38790729Y2472700D01*
X-38848522Y2675818D01*
X-38942653Y2864859D01*
X-38981023Y2915670D01*
X-39069913Y3033381D01*
X-39089320Y3051073D01*
X-39225982Y3175657D01*
X-39405531Y3286829D01*
X-39602451Y3363116D01*
X-39602452Y3363117D01*
X-39602454Y3363117D01*
X-39810036Y3401920D01*
X-40021216Y3401920D01*
X-40228799Y3363117D01*
X-40301190Y3335073D01*
X-40425721Y3286829D01*
X-40605271Y3175657D01*
X-40605270Y3175657D01*
X-40761340Y3033381D01*
X-40888594Y2864867D01*
X-40888603Y2864852D01*
X-40982729Y2675821D01*
X-41040523Y2472702D01*
X-41040524Y2472700D01*
X-41040523Y2472700D01*
X-41060008Y2262420D01*
X-41040523Y2052140D01*
X-40982730Y1849022D01*
X-40888599Y1659981D01*
X-40888598Y1659980D01*
X-40888594Y1659974D01*
X-40761340Y1491460D01*
X-40761337Y1491457D01*
X-40761335Y1491455D01*
X-40605270Y1349183D01*
X-40425721Y1238011D01*
X-40228801Y1161724D01*
X-40021216Y1122920D01*
X-39810039Y1122920D01*
X-39810036Y1122920D01*
X-39758653Y1132526D01*
X-39697983Y1124634D01*
X-39670460Y1105216D01*
X-39565202Y999958D01*
X-39537425Y945441D01*
X-39546996Y885009D01*
X-39590261Y841744D01*
X-39650693Y832173D01*
X-39653397Y832640D01*
X-39810036Y861920D01*
X-40021216Y861920D01*
X-40228799Y823117D01*
X-40301190Y795073D01*
X-40425721Y746829D01*
X-40605271Y635657D01*
X-40605270Y635657D01*
X-40761340Y493381D01*
X-40888594Y324867D01*
X-40888603Y324852D01*
X-40982729Y135821D01*
X-41040523Y-67298D01*
X-41040524Y-67300D01*
X-41040523Y-67300D01*
X-41060008Y-277580D01*
X-54379500Y-277580D01*
X-54379500Y992420D01*
X-46989841Y992420D01*
X-46971023Y789337D01*
X-46915208Y593170D01*
X-46824299Y410599D01*
X-46701390Y247841D01*
X-46550667Y110439D01*
X-46377263Y3072D01*
X-46187082Y-70604D01*
X-45986602Y-108080D01*
X-45782650Y-108080D01*
X-45582170Y-70604D01*
X-45391989Y3072D01*
X-45218585Y110439D01*
X-45067862Y247841D01*
X-44944953Y410599D01*
X-44854044Y593170D01*
X-44798229Y789337D01*
X-44779411Y992420D01*
X-44798229Y1195503D01*
X-44854044Y1391670D01*
X-44944953Y1574241D01*
X-45067862Y1736999D01*
X-45218585Y1874401D01*
X-45391989Y1981768D01*
X-45582170Y2055444D01*
X-45582171Y2055445D01*
X-45582173Y2055445D01*
X-45782650Y2092920D01*
X-45986602Y2092920D01*
X-46187080Y2055445D01*
X-46256994Y2028361D01*
X-46377263Y1981768D01*
X-46507837Y1900920D01*
X-46550667Y1874401D01*
X-46701389Y1737000D01*
X-46824298Y1574243D01*
X-46824303Y1574234D01*
X-46915207Y1391673D01*
X-46915208Y1391670D01*
X-46971023Y1195503D01*
X-46989841Y992420D01*
X-54379500Y992420D01*
X-54379500Y4802420D01*
X-23280008Y4802420D01*
X-23260523Y4592140D01*
X-23202730Y4389022D01*
X-23108599Y4199981D01*
X-23108596Y4199976D01*
X-23108594Y4199974D01*
X-22981340Y4031460D01*
X-22981337Y4031457D01*
X-22981335Y4031455D01*
X-22825270Y3889183D01*
X-22645721Y3778011D01*
X-22448801Y3701724D01*
X-22241216Y3662920D01*
X-22030036Y3662920D01*
X-21822451Y3701724D01*
X-21625531Y3778011D01*
X-21445982Y3889183D01*
X-21289917Y4031455D01*
X-21162653Y4199981D01*
X-21068522Y4389022D01*
X-21010729Y4592140D01*
X-20991244Y4802420D01*
X-21010729Y5012700D01*
X-21068522Y5215818D01*
X-21162653Y5404859D01*
X-21201023Y5455670D01*
X-21289913Y5573381D01*
X-21309320Y5591073D01*
X-21445982Y5715657D01*
X-21625531Y5826829D01*
X-21822451Y5903116D01*
X-21822452Y5903117D01*
X-21822454Y5903117D01*
X-22030036Y5941920D01*
X-22241216Y5941920D01*
X-22448799Y5903117D01*
X-22521190Y5875073D01*
X-22645721Y5826829D01*
X-22825271Y5715657D01*
X-22825270Y5715657D01*
X-22981340Y5573381D01*
X-23108594Y5404867D01*
X-23108603Y5404852D01*
X-23202729Y5215821D01*
X-23260523Y5012702D01*
X-23260524Y5012700D01*
X-23260523Y5012700D01*
X-23280008Y4802420D01*
X-54379500Y4802420D01*
X-54379500Y5197748D01*
X-46985126Y5197748D01*
X-46985125Y5197736D01*
X-46970593Y5124684D01*
X-46970591Y5124678D01*
X-46915229Y5041821D01*
X-46915227Y5041819D01*
X-46832366Y4986454D01*
X-46776818Y4975405D01*
X-46759311Y4971922D01*
X-46759306Y4971922D01*
X-46759300Y4971920D01*
X-46759299Y4971920D01*
X-45009953Y4971920D01*
X-45009952Y4971920D01*
X-44936886Y4986454D01*
X-44854025Y5041819D01*
X-44798660Y5124680D01*
X-44784126Y5197746D01*
X-44784126Y6947094D01*
X-44785722Y6955115D01*
X-44790606Y6979670D01*
X-44798660Y7020160D01*
X-44854025Y7103021D01*
X-44854027Y7103023D01*
X-44936884Y7158385D01*
X-44936886Y7158386D01*
X-44936889Y7158387D01*
X-44936890Y7158387D01*
X-45009942Y7172919D01*
X-45009952Y7172920D01*
X-45009953Y7172920D01*
X-45135126Y7172920D01*
X-45193317Y7191827D01*
X-45229281Y7241327D01*
X-45234126Y7271920D01*
X-45234126Y7342420D01*
X-41060008Y7342420D01*
X-41040523Y7132139D01*
X-41032238Y7103021D01*
X-40982730Y6929022D01*
X-40888599Y6739981D01*
X-40888596Y6739976D01*
X-40888594Y6739974D01*
X-40761340Y6571460D01*
X-40761337Y6571457D01*
X-40761335Y6571455D01*
X-40605270Y6429183D01*
X-40425721Y6318011D01*
X-40228801Y6241724D01*
X-40021216Y6202920D01*
X-39810036Y6202920D01*
X-39602451Y6241724D01*
X-39405531Y6318011D01*
X-39225982Y6429183D01*
X-39069917Y6571455D01*
X-38942653Y6739981D01*
X-38848522Y6929022D01*
X-38790729Y7132140D01*
X-38771244Y7342420D01*
X-38771244Y7342421D01*
X-23280008Y7342421D01*
X-23260523Y7132139D01*
X-23252238Y7103021D01*
X-23202730Y6929022D01*
X-23108599Y6739981D01*
X-23108596Y6739976D01*
X-23108594Y6739974D01*
X-22981340Y6571460D01*
X-22981337Y6571457D01*
X-22981335Y6571455D01*
X-22825270Y6429183D01*
X-22645721Y6318011D01*
X-22448801Y6241724D01*
X-22241216Y6202920D01*
X-22030036Y6202920D01*
X-21822451Y6241724D01*
X-21625531Y6318011D01*
X-21445982Y6429183D01*
X-21289917Y6571455D01*
X-21162653Y6739981D01*
X-21068522Y6929022D01*
X-21010729Y7132140D01*
X-20991244Y7342420D01*
X-21010729Y7552700D01*
X-21068522Y7755818D01*
X-21162653Y7944859D01*
X-21201023Y7995670D01*
X-21289913Y8113381D01*
X-21289917Y8113385D01*
X-21445982Y8255657D01*
X-21625531Y8366829D01*
X-21822451Y8443116D01*
X-21822452Y8443117D01*
X-21822454Y8443117D01*
X-22030036Y8481920D01*
X-22241216Y8481920D01*
X-22448799Y8443117D01*
X-22521190Y8415073D01*
X-22645721Y8366829D01*
X-22825271Y8255658D01*
X-22825270Y8255657D01*
X-22981340Y8113381D01*
X-23108594Y7944867D01*
X-23108603Y7944852D01*
X-23202729Y7755821D01*
X-23260523Y7552702D01*
X-23280008Y7342421D01*
X-38771244Y7342421D01*
X-38790729Y7552700D01*
X-38848522Y7755818D01*
X-38942653Y7944859D01*
X-38981023Y7995670D01*
X-39069913Y8113381D01*
X-39069917Y8113385D01*
X-39225982Y8255657D01*
X-39405531Y8366829D01*
X-39602451Y8443116D01*
X-39602452Y8443117D01*
X-39602454Y8443117D01*
X-39810036Y8481920D01*
X-40021216Y8481920D01*
X-40228799Y8443117D01*
X-40301190Y8415073D01*
X-40425721Y8366829D01*
X-40605271Y8255658D01*
X-40605270Y8255657D01*
X-40761340Y8113381D01*
X-40888594Y7944867D01*
X-40888603Y7944852D01*
X-40982729Y7755821D01*
X-41040523Y7552702D01*
X-41060008Y7342420D01*
X-45234126Y7342420D01*
X-45234126Y8555966D01*
X-45215219Y8614157D01*
X-45205130Y8625970D01*
X-44374176Y9456924D01*
X-44319659Y9484701D01*
X-44304172Y9485920D01*
X-41267803Y9485920D01*
X-41052442Y9485920D01*
X-40994251Y9467013D01*
X-40963822Y9431049D01*
X-40888599Y9279981D01*
X-40888596Y9279976D01*
X-40888594Y9279974D01*
X-40761340Y9111460D01*
X-40761337Y9111457D01*
X-40761335Y9111455D01*
X-40605270Y8969183D01*
X-40425721Y8858011D01*
X-40228801Y8781724D01*
X-40021216Y8742920D01*
X-39810036Y8742920D01*
X-39602451Y8781724D01*
X-39405531Y8858011D01*
X-39225982Y8969183D01*
X-39069917Y9111455D01*
X-38942653Y9279981D01*
X-38848522Y9469022D01*
X-38790729Y9672140D01*
X-38771244Y9882420D01*
X-23280008Y9882420D01*
X-23260523Y9672140D01*
X-23202730Y9469022D01*
X-23108599Y9279981D01*
X-23108596Y9279976D01*
X-23108594Y9279974D01*
X-22981340Y9111460D01*
X-22981337Y9111457D01*
X-22981335Y9111455D01*
X-22825270Y8969183D01*
X-22645721Y8858011D01*
X-22448801Y8781724D01*
X-22241216Y8742920D01*
X-22030036Y8742920D01*
X-21822451Y8781724D01*
X-21625531Y8858011D01*
X-21445982Y8969183D01*
X-21289917Y9111455D01*
X-21162653Y9279981D01*
X-21068522Y9469022D01*
X-21010729Y9672140D01*
X-20991244Y9882420D01*
X-21010729Y10092700D01*
X-21068522Y10295818D01*
X-21162653Y10484859D01*
X-21162659Y10484867D01*
X-21289913Y10653381D01*
X-21291139Y10654499D01*
X-21445982Y10795657D01*
X-21625531Y10906829D01*
X-21822451Y10983116D01*
X-21822452Y10983117D01*
X-21822454Y10983117D01*
X-22030036Y11021920D01*
X-22241216Y11021920D01*
X-22448799Y10983117D01*
X-22521190Y10955073D01*
X-22645721Y10906829D01*
X-22773472Y10827729D01*
X-22825270Y10795657D01*
X-22981340Y10653381D01*
X-23108594Y10484867D01*
X-23108603Y10484852D01*
X-23202729Y10295821D01*
X-23260523Y10092702D01*
X-23280008Y9882421D01*
X-23280008Y9882420D01*
X-38771244Y9882420D01*
X-38790729Y10092700D01*
X-38848522Y10295818D01*
X-38942653Y10484859D01*
X-38942659Y10484867D01*
X-39069913Y10653381D01*
X-39071139Y10654499D01*
X-39225982Y10795657D01*
X-39405531Y10906829D01*
X-39602451Y10983116D01*
X-39602452Y10983117D01*
X-39602454Y10983117D01*
X-39810041Y11021921D01*
X-39810279Y11021943D01*
X-39810371Y11021983D01*
X-39814535Y11022761D01*
X-39814360Y11023701D01*
X-39866472Y11046149D01*
X-39897706Y11098762D01*
X-39900126Y11120519D01*
X-39900126Y15901328D01*
X-17289556Y15901328D01*
X-17289555Y15901316D01*
X-17275023Y15828264D01*
X-17275021Y15828258D01*
X-17219659Y15745401D01*
X-17219656Y15745398D01*
X-17189723Y15725398D01*
X-17136796Y15690034D01*
X-17081248Y15678985D01*
X-17063741Y15675502D01*
X-17063736Y15675502D01*
X-17063730Y15675500D01*
X-17063729Y15675500D01*
X-15314383Y15675500D01*
X-15314382Y15675500D01*
X-15241316Y15690034D01*
X-15158455Y15745399D01*
X-15103090Y15828260D01*
X-15088556Y15901326D01*
X-15088556Y16776000D01*
X-14754271Y16776000D01*
X-14735453Y16572917D01*
X-14689968Y16413054D01*
X-14679637Y16376748D01*
X-14603701Y16224246D01*
X-14588729Y16194179D01*
X-14465820Y16031421D01*
X-14315097Y15894019D01*
X-14141693Y15786652D01*
X-13951512Y15712976D01*
X-13751032Y15675500D01*
X-13547080Y15675500D01*
X-13346600Y15712976D01*
X-13156419Y15786652D01*
X-12983015Y15894019D01*
X-12832292Y16031421D01*
X-12709383Y16194179D01*
X-12618474Y16376750D01*
X-12562659Y16572917D01*
X-12545694Y16756000D01*
X12565729Y16756000D01*
X12584547Y16552917D01*
X12640362Y16356750D01*
X12731271Y16174179D01*
X12854180Y16011421D01*
X13004903Y15874019D01*
X13178307Y15766652D01*
X13368488Y15692976D01*
X13568968Y15655500D01*
X13772920Y15655500D01*
X13973400Y15692976D01*
X14163581Y15766652D01*
X14336985Y15874019D01*
X14345003Y15881328D01*
X15110444Y15881328D01*
X15110445Y15881316D01*
X15124977Y15808264D01*
X15124979Y15808258D01*
X15180341Y15725401D01*
X15180344Y15725398D01*
X15228868Y15692976D01*
X15263204Y15670034D01*
X15318752Y15658985D01*
X15336259Y15655502D01*
X15336264Y15655502D01*
X15336270Y15655500D01*
X15336271Y15655500D01*
X17085617Y15655500D01*
X17085618Y15655500D01*
X17158684Y15670034D01*
X17241545Y15725399D01*
X17296910Y15808260D01*
X17311444Y15881326D01*
X17311444Y17630674D01*
X17296910Y17703740D01*
X17241545Y17786601D01*
X17241543Y17786603D01*
X17158686Y17841965D01*
X17158684Y17841966D01*
X17158681Y17841967D01*
X17158680Y17841967D01*
X17085628Y17856499D01*
X17085618Y17856500D01*
X15336270Y17856500D01*
X15336269Y17856500D01*
X15336259Y17856499D01*
X15263207Y17841967D01*
X15263201Y17841965D01*
X15180344Y17786603D01*
X15180341Y17786600D01*
X15124979Y17703743D01*
X15124977Y17703737D01*
X15110445Y17630685D01*
X15110444Y17630673D01*
X15110444Y15881328D01*
X14345003Y15881328D01*
X14487708Y16011421D01*
X14610617Y16174179D01*
X14701526Y16356750D01*
X14757341Y16552917D01*
X14776159Y16756000D01*
X14757341Y16959083D01*
X14701526Y17155250D01*
X14610617Y17337821D01*
X14487708Y17500579D01*
X14336985Y17637981D01*
X14163581Y17745348D01*
X13973400Y17819024D01*
X13973399Y17819025D01*
X13973397Y17819025D01*
X13772920Y17856500D01*
X13568968Y17856500D01*
X13368490Y17819025D01*
X13298576Y17791941D01*
X13178307Y17745348D01*
X13111108Y17703740D01*
X13004903Y17637981D01*
X12854181Y17500580D01*
X12731272Y17337823D01*
X12731267Y17337814D01*
X12640363Y17155253D01*
X12640362Y17155250D01*
X12584547Y16959083D01*
X12565729Y16756000D01*
X-12545694Y16756000D01*
X-12543841Y16776000D01*
X-12562659Y16979083D01*
X-12618474Y17175250D01*
X-12709383Y17357821D01*
X-12832292Y17520579D01*
X-12983015Y17657981D01*
X-13156419Y17765348D01*
X-13346600Y17839024D01*
X-13346601Y17839025D01*
X-13346603Y17839025D01*
X-13547080Y17876500D01*
X-13751032Y17876500D01*
X-13951510Y17839025D01*
X-14003136Y17819025D01*
X-14141693Y17765348D01*
X-14241198Y17703737D01*
X-14315097Y17657981D01*
X-14345052Y17630673D01*
X-14465820Y17520579D01*
X-14480923Y17500579D01*
X-14588728Y17357823D01*
X-14588733Y17357814D01*
X-14679637Y17175253D01*
X-14679638Y17175250D01*
X-14735453Y16979083D01*
X-14754271Y16776000D01*
X-15088556Y16776000D01*
X-15088556Y17650674D01*
X-15103090Y17723740D01*
X-15145091Y17786600D01*
X-15158454Y17806600D01*
X-15158457Y17806603D01*
X-15241314Y17861965D01*
X-15241316Y17861966D01*
X-15241319Y17861967D01*
X-15241320Y17861967D01*
X-15314372Y17876499D01*
X-15314382Y17876500D01*
X-17063730Y17876500D01*
X-17063731Y17876500D01*
X-17063741Y17876499D01*
X-17136793Y17861967D01*
X-17136799Y17861965D01*
X-17219656Y17806603D01*
X-17219659Y17806600D01*
X-17275021Y17723743D01*
X-17275023Y17723737D01*
X-17289555Y17650685D01*
X-17289556Y17650673D01*
X-17289556Y15901328D01*
X-39900126Y15901328D01*
X-39900126Y16578920D01*
X-39881219Y16637111D01*
X-39871130Y16648924D01*
X-35062267Y21457787D01*
X-28173012Y21457787D01*
X-28153930Y21105830D01*
X-28096906Y20757994D01*
X-28002614Y20418387D01*
X-28002612Y20418382D01*
X-28002611Y20418378D01*
X-28002609Y20418373D01*
X-27872145Y20090933D01*
X-27707043Y19779518D01*
X-27509239Y19487779D01*
X-27509235Y19487774D01*
X-27509234Y19487773D01*
X-27281057Y19219142D01*
X-27281047Y19219132D01*
X-27025162Y18976744D01*
X-27025158Y18976741D01*
X-26744556Y18763433D01*
X-26442536Y18581713D01*
X-26122639Y18433713D01*
X-25788616Y18321168D01*
X-25788611Y18321167D01*
X-25788608Y18321166D01*
X-25444388Y18245397D01*
X-25444387Y18245397D01*
X-25444383Y18245396D01*
X-25177510Y18216372D01*
X-25093976Y18207287D01*
X-25093975Y18207287D01*
X-24741500Y18207287D01*
X-24674047Y18214624D01*
X-24391093Y18245396D01*
X-24046869Y18321166D01*
X-24046868Y18321166D01*
X-24046866Y18321167D01*
X-24046860Y18321168D01*
X-23712837Y18433713D01*
X-23392940Y18581713D01*
X-23090920Y18763433D01*
X-22810318Y18976741D01*
X-22554424Y19219137D01*
X-22472148Y19316000D01*
X-17294271Y19316000D01*
X-17275453Y19112917D01*
X-17269763Y19092918D01*
X-17219637Y18916748D01*
X-17192354Y18861955D01*
X-17128729Y18734179D01*
X-17005820Y18571421D01*
X-16855097Y18434019D01*
X-16681693Y18326652D01*
X-16491512Y18252976D01*
X-16291032Y18215500D01*
X-16087080Y18215500D01*
X-15886600Y18252976D01*
X-15696419Y18326652D01*
X-15523015Y18434019D01*
X-15372292Y18571421D01*
X-15249383Y18734179D01*
X-15158474Y18916750D01*
X-15102659Y19112917D01*
X-15083841Y19316000D01*
X-14754271Y19316000D01*
X-14735453Y19112917D01*
X-14729763Y19092918D01*
X-14679637Y18916748D01*
X-14652354Y18861955D01*
X-14588729Y18734179D01*
X-14465820Y18571421D01*
X-14315097Y18434019D01*
X-14141693Y18326652D01*
X-13951512Y18252976D01*
X-13751032Y18215500D01*
X-13547080Y18215500D01*
X-13346600Y18252976D01*
X-13156419Y18326652D01*
X-12983015Y18434019D01*
X-12832292Y18571421D01*
X-12709383Y18734179D01*
X-12618474Y18916750D01*
X-12562659Y19112917D01*
X-12545694Y19296000D01*
X12565729Y19296000D01*
X12584547Y19092917D01*
X12640362Y18896750D01*
X12731271Y18714179D01*
X12854180Y18551421D01*
X13004903Y18414019D01*
X13178307Y18306652D01*
X13368488Y18232976D01*
X13568968Y18195500D01*
X13772920Y18195500D01*
X13973400Y18232976D01*
X14163581Y18306652D01*
X14336985Y18414019D01*
X14487708Y18551421D01*
X14610617Y18714179D01*
X14701526Y18896750D01*
X14757341Y19092917D01*
X14776159Y19296000D01*
X15105729Y19296000D01*
X15124547Y19092917D01*
X15180362Y18896750D01*
X15271271Y18714179D01*
X15394180Y18551421D01*
X15544903Y18414019D01*
X15718307Y18306652D01*
X15908488Y18232976D01*
X16108968Y18195500D01*
X16312920Y18195500D01*
X16513400Y18232976D01*
X16703581Y18306652D01*
X16876985Y18414019D01*
X17027708Y18551421D01*
X17150617Y18714179D01*
X17241526Y18896750D01*
X17297341Y19092917D01*
X17316159Y19296000D01*
X17297341Y19499083D01*
X17241526Y19695250D01*
X17150617Y19877821D01*
X17027708Y20040579D01*
X16876985Y20177981D01*
X16703581Y20285348D01*
X16513400Y20359024D01*
X16513399Y20359025D01*
X16513397Y20359025D01*
X16312920Y20396500D01*
X16108968Y20396500D01*
X15908490Y20359025D01*
X15838576Y20331941D01*
X15718307Y20285348D01*
X15544903Y20177981D01*
X15394180Y20040579D01*
X15354331Y19987812D01*
X15271272Y19877823D01*
X15271267Y19877814D01*
X15180363Y19695253D01*
X15180362Y19695250D01*
X15124547Y19499083D01*
X15105729Y19296000D01*
X14776159Y19296000D01*
X14757341Y19499083D01*
X14701526Y19695250D01*
X14610617Y19877821D01*
X14487708Y20040579D01*
X14336985Y20177981D01*
X14163581Y20285348D01*
X13973400Y20359024D01*
X13973399Y20359025D01*
X13973397Y20359025D01*
X13772920Y20396500D01*
X13568968Y20396500D01*
X13368490Y20359025D01*
X13298576Y20331941D01*
X13178307Y20285348D01*
X13004903Y20177981D01*
X12854180Y20040579D01*
X12814331Y19987812D01*
X12731272Y19877823D01*
X12731267Y19877814D01*
X12640363Y19695253D01*
X12640362Y19695250D01*
X12584547Y19499083D01*
X12565729Y19296000D01*
X-12545694Y19296000D01*
X-12543841Y19316000D01*
X-12562659Y19519083D01*
X-12618474Y19715250D01*
X-12709383Y19897821D01*
X-12832292Y20060579D01*
X-12983015Y20197981D01*
X-13156419Y20305348D01*
X-13346600Y20379024D01*
X-13346601Y20379025D01*
X-13346603Y20379025D01*
X-13547080Y20416500D01*
X-13751032Y20416500D01*
X-13951510Y20379025D01*
X-13971773Y20371175D01*
X-14141693Y20305348D01*
X-14315097Y20197981D01*
X-14465820Y20060579D01*
X-14480923Y20040579D01*
X-14588728Y19897823D01*
X-14588733Y19897814D01*
X-14670423Y19733757D01*
X-14679638Y19715250D01*
X-14735453Y19519083D01*
X-14754271Y19316000D01*
X-15083841Y19316000D01*
X-15102659Y19519083D01*
X-15158474Y19715250D01*
X-15249383Y19897821D01*
X-15372292Y20060579D01*
X-15523015Y20197981D01*
X-15696419Y20305348D01*
X-15886600Y20379024D01*
X-15886601Y20379025D01*
X-15886603Y20379025D01*
X-16087080Y20416500D01*
X-16291032Y20416500D01*
X-16491510Y20379025D01*
X-16511773Y20371175D01*
X-16681693Y20305348D01*
X-16855097Y20197981D01*
X-17005820Y20060579D01*
X-17020923Y20040579D01*
X-17128728Y19897823D01*
X-17128733Y19897814D01*
X-17210423Y19733757D01*
X-17219638Y19715250D01*
X-17275453Y19519083D01*
X-17294271Y19316000D01*
X-22472148Y19316000D01*
X-22326237Y19487779D01*
X-22128433Y19779518D01*
X-21963331Y20090933D01*
X-21832867Y20418373D01*
X-21832863Y20418387D01*
X-21738571Y20757994D01*
X-21720757Y20866653D01*
X-21681547Y21105830D01*
X-21662464Y21457787D01*
X-21681547Y21809744D01*
X-21685852Y21836001D01*
X-21689131Y21856000D01*
X-17294271Y21856000D01*
X-17275453Y21652917D01*
X-17219638Y21456750D01*
X-17128729Y21274179D01*
X-17005820Y21111421D01*
X-16855097Y20974019D01*
X-16681693Y20866652D01*
X-16491512Y20792976D01*
X-16291032Y20755500D01*
X-16087080Y20755500D01*
X-15886600Y20792976D01*
X-15696419Y20866652D01*
X-15523015Y20974019D01*
X-15372292Y21111421D01*
X-15249383Y21274179D01*
X-15158474Y21456750D01*
X-15102659Y21652917D01*
X-15083841Y21856000D01*
X-14754271Y21856000D01*
X-14735453Y21652917D01*
X-14679638Y21456750D01*
X-14588729Y21274179D01*
X-14465820Y21111421D01*
X-14315097Y20974019D01*
X-14141693Y20866652D01*
X-13951512Y20792976D01*
X-13751032Y20755500D01*
X-13547080Y20755500D01*
X-13346600Y20792976D01*
X-13156419Y20866652D01*
X-12983015Y20974019D01*
X-12832292Y21111421D01*
X-12709383Y21274179D01*
X-12618474Y21456750D01*
X-12562659Y21652917D01*
X-12545694Y21836000D01*
X12565729Y21836000D01*
X12584547Y21632917D01*
X12634671Y21456750D01*
X12640363Y21436748D01*
X12688170Y21340737D01*
X12731271Y21254179D01*
X12854180Y21091421D01*
X13004903Y20954019D01*
X13178307Y20846652D01*
X13368488Y20772976D01*
X13568968Y20735500D01*
X13772920Y20735500D01*
X13973400Y20772976D01*
X14163581Y20846652D01*
X14336985Y20954019D01*
X14487708Y21091421D01*
X14610617Y21254179D01*
X14701526Y21436750D01*
X14757341Y21632917D01*
X14776159Y21836000D01*
X14757341Y22039083D01*
X14701526Y22235250D01*
X14610617Y22417821D01*
X14487708Y22580579D01*
X14336985Y22717981D01*
X14163581Y22825348D01*
X13973400Y22899024D01*
X13973399Y22899025D01*
X13973397Y22899025D01*
X13772920Y22936500D01*
X13568968Y22936500D01*
X13368490Y22899025D01*
X13298576Y22871941D01*
X13178307Y22825348D01*
X13037204Y22737981D01*
X13004903Y22717981D01*
X12854181Y22580580D01*
X12731272Y22417823D01*
X12731267Y22417814D01*
X12640363Y22235253D01*
X12640362Y22235250D01*
X12584547Y22039083D01*
X12565729Y21836000D01*
X-12545694Y21836000D01*
X-12543841Y21856000D01*
X-12562659Y22059083D01*
X-12618474Y22255250D01*
X-12709383Y22437821D01*
X-12832292Y22600579D01*
X-12983015Y22737981D01*
X-13156419Y22845348D01*
X-13346600Y22919024D01*
X-13346601Y22919025D01*
X-13346603Y22919025D01*
X-13547080Y22956500D01*
X-13751032Y22956500D01*
X-13951510Y22919025D01*
X-14003136Y22899025D01*
X-14141693Y22845348D01*
X-14315097Y22737981D01*
X-14465820Y22600579D01*
X-14480923Y22580579D01*
X-14588728Y22437823D01*
X-14588733Y22437814D01*
X-14679637Y22255253D01*
X-14679638Y22255250D01*
X-14735453Y22059083D01*
X-14754271Y21856000D01*
X-15083841Y21856000D01*
X-15102659Y22059083D01*
X-15158474Y22255250D01*
X-15249383Y22437821D01*
X-15372292Y22600579D01*
X-15523015Y22737981D01*
X-15696419Y22845348D01*
X-15886600Y22919024D01*
X-15886601Y22919025D01*
X-15886603Y22919025D01*
X-16087080Y22956500D01*
X-16291032Y22956500D01*
X-16491510Y22919025D01*
X-16543136Y22899025D01*
X-16681693Y22845348D01*
X-16855097Y22737981D01*
X-17005820Y22600579D01*
X-17020923Y22580579D01*
X-17128728Y22437823D01*
X-17128733Y22437814D01*
X-17219637Y22255253D01*
X-17219638Y22255250D01*
X-17275453Y22059083D01*
X-17294271Y21856000D01*
X-21689131Y21856000D01*
X-21738571Y22157581D01*
X-21832863Y22497188D01*
X-21832865Y22497193D01*
X-21832867Y22497201D01*
X-21963331Y22824641D01*
X-22128433Y23136056D01*
X-22326237Y23427795D01*
X-22399477Y23514020D01*
X-22554420Y23696433D01*
X-22554430Y23696443D01*
X-22810315Y23938831D01*
X-23090916Y24152138D01*
X-23090917Y24152139D01*
X-23090920Y24152141D01*
X-23392940Y24333861D01*
X-23527251Y24396000D01*
X-17294271Y24396000D01*
X-17275453Y24192917D01*
X-17219638Y23996750D01*
X-17128729Y23814179D01*
X-17005820Y23651421D01*
X-16855097Y23514019D01*
X-16681693Y23406652D01*
X-16491512Y23332976D01*
X-16291032Y23295500D01*
X-16087080Y23295500D01*
X-15886600Y23332976D01*
X-15696419Y23406652D01*
X-15523015Y23514019D01*
X-15372292Y23651421D01*
X-15249383Y23814179D01*
X-15158474Y23996750D01*
X-15102659Y24192917D01*
X-15083841Y24396000D01*
X-14754271Y24396000D01*
X-14735453Y24192917D01*
X-14679638Y23996750D01*
X-14588729Y23814179D01*
X-14465820Y23651421D01*
X-14315097Y23514019D01*
X-14141693Y23406652D01*
X-13951512Y23332976D01*
X-13751032Y23295500D01*
X-13547080Y23295500D01*
X-13346600Y23332976D01*
X-13156419Y23406652D01*
X-12983015Y23514019D01*
X-12832292Y23651421D01*
X-12709383Y23814179D01*
X-12618474Y23996750D01*
X-12562659Y24192917D01*
X-12545694Y24376000D01*
X12565729Y24376000D01*
X12584547Y24172917D01*
X12640362Y23976750D01*
X12731271Y23794179D01*
X12854180Y23631421D01*
X13004903Y23494019D01*
X13178307Y23386652D01*
X13368488Y23312976D01*
X13568968Y23275500D01*
X13772920Y23275500D01*
X13973400Y23312976D01*
X14163581Y23386652D01*
X14336985Y23494019D01*
X14487708Y23631421D01*
X14610617Y23794179D01*
X14701526Y23976750D01*
X14757341Y24172917D01*
X14776159Y24376000D01*
X14757341Y24579083D01*
X14701526Y24775250D01*
X14610617Y24957821D01*
X14487708Y25120579D01*
X14336985Y25257981D01*
X14163581Y25365348D01*
X13973400Y25439024D01*
X13973399Y25439025D01*
X13973397Y25439025D01*
X13772920Y25476500D01*
X13568968Y25476500D01*
X13368490Y25439025D01*
X13298576Y25411941D01*
X13178307Y25365348D01*
X13037204Y25277981D01*
X13004903Y25257981D01*
X12854181Y25120580D01*
X12731272Y24957823D01*
X12731267Y24957814D01*
X12640363Y24775253D01*
X12640362Y24775250D01*
X12584547Y24579083D01*
X12565729Y24376000D01*
X-12545694Y24376000D01*
X-12543841Y24396000D01*
X-12562659Y24599083D01*
X-12618474Y24795250D01*
X-12709383Y24977821D01*
X-12832292Y25140579D01*
X-12983015Y25277981D01*
X-13156419Y25385348D01*
X-13346600Y25459024D01*
X-13346601Y25459025D01*
X-13346603Y25459025D01*
X-13547080Y25496500D01*
X-13751032Y25496500D01*
X-13951510Y25459025D01*
X-14003136Y25439025D01*
X-14141693Y25385348D01*
X-14315097Y25277981D01*
X-14465820Y25140579D01*
X-14480923Y25120579D01*
X-14588728Y24977823D01*
X-14588733Y24977814D01*
X-14679637Y24795253D01*
X-14679638Y24795250D01*
X-14735453Y24599083D01*
X-14754271Y24396000D01*
X-15083841Y24396000D01*
X-15102659Y24599083D01*
X-15158474Y24795250D01*
X-15249383Y24977821D01*
X-15372292Y25140579D01*
X-15523015Y25277981D01*
X-15696419Y25385348D01*
X-15886600Y25459024D01*
X-15886601Y25459025D01*
X-15886603Y25459025D01*
X-16087080Y25496500D01*
X-16291032Y25496500D01*
X-16491510Y25459025D01*
X-16543136Y25439025D01*
X-16681693Y25385348D01*
X-16855097Y25277981D01*
X-17005820Y25140579D01*
X-17020923Y25120579D01*
X-17128728Y24977823D01*
X-17128733Y24977814D01*
X-17219637Y24795253D01*
X-17219638Y24795250D01*
X-17275453Y24599083D01*
X-17294271Y24396000D01*
X-23527251Y24396000D01*
X-23712832Y24481859D01*
X-23712835Y24481860D01*
X-23712837Y24481861D01*
X-24046860Y24594406D01*
X-24046861Y24594407D01*
X-24046869Y24594409D01*
X-24391089Y24670178D01*
X-24391088Y24670178D01*
X-24741500Y24708287D01*
X-24741501Y24708287D01*
X-25093975Y24708287D01*
X-25093976Y24708287D01*
X-25444389Y24670178D01*
X-25788607Y24594409D01*
X-25788609Y24594409D01*
X-26122645Y24481859D01*
X-26442528Y24333865D01*
X-26442534Y24333862D01*
X-26744556Y24152141D01*
X-26744561Y24152138D01*
X-27025162Y23938831D01*
X-27281047Y23696443D01*
X-27281057Y23696433D01*
X-27509234Y23427802D01*
X-27509239Y23427796D01*
X-27509239Y23427795D01*
X-27707043Y23136056D01*
X-27861167Y22845348D01*
X-27872145Y22824641D01*
X-28002612Y22497193D01*
X-28002614Y22497188D01*
X-28096906Y22157581D01*
X-28153930Y21809745D01*
X-28173012Y21457787D01*
X-35062267Y21457787D01*
X-29584054Y26936000D01*
X-17294271Y26936000D01*
X-17275453Y26732917D01*
X-17219638Y26536750D01*
X-17128729Y26354179D01*
X-17005820Y26191421D01*
X-16855097Y26054019D01*
X-16681693Y25946652D01*
X-16491512Y25872976D01*
X-16291032Y25835500D01*
X-16087080Y25835500D01*
X-15886600Y25872976D01*
X-15696419Y25946652D01*
X-15523015Y26054019D01*
X-15372292Y26191421D01*
X-15249383Y26354179D01*
X-15158474Y26536750D01*
X-15102659Y26732917D01*
X-15083841Y26936000D01*
X-14754271Y26936000D01*
X-14735453Y26732917D01*
X-14679638Y26536750D01*
X-14588729Y26354179D01*
X-14465820Y26191421D01*
X-14315097Y26054019D01*
X-14141693Y25946652D01*
X-13951512Y25872976D01*
X-13751032Y25835500D01*
X-13547080Y25835500D01*
X-13346600Y25872976D01*
X-13156419Y25946652D01*
X-12983015Y26054019D01*
X-12832292Y26191421D01*
X-12709383Y26354179D01*
X-12618474Y26536750D01*
X-12562659Y26732917D01*
X-12545694Y26916000D01*
X12565729Y26916000D01*
X12584547Y26712917D01*
X12640362Y26516750D01*
X12731271Y26334179D01*
X12854180Y26171421D01*
X13004903Y26034019D01*
X13178307Y25926652D01*
X13368488Y25852976D01*
X13568968Y25815500D01*
X13772920Y25815500D01*
X13973400Y25852976D01*
X14163581Y25926652D01*
X14336985Y26034019D01*
X14487708Y26171421D01*
X14610617Y26334179D01*
X14701526Y26516750D01*
X14757341Y26712917D01*
X14776159Y26916000D01*
X15105729Y26916000D01*
X15124547Y26712917D01*
X15180362Y26516750D01*
X15271271Y26334179D01*
X15394180Y26171421D01*
X15544903Y26034019D01*
X15718307Y25926652D01*
X15908488Y25852976D01*
X16108968Y25815500D01*
X16312920Y25815500D01*
X16513400Y25852976D01*
X16703581Y25926652D01*
X16876985Y26034019D01*
X17027708Y26171421D01*
X17150617Y26334179D01*
X17241526Y26516750D01*
X17297341Y26712917D01*
X17316159Y26916000D01*
X17297341Y27119083D01*
X17241526Y27315250D01*
X17150617Y27497821D01*
X17027708Y27660579D01*
X16876985Y27797981D01*
X16703581Y27905348D01*
X16513400Y27979024D01*
X16513399Y27979025D01*
X16513397Y27979025D01*
X16312920Y28016500D01*
X16108968Y28016500D01*
X15908490Y27979025D01*
X15838576Y27951941D01*
X15718307Y27905348D01*
X15577204Y27817981D01*
X15544903Y27797981D01*
X15394181Y27660580D01*
X15271272Y27497823D01*
X15271267Y27497814D01*
X15180363Y27315253D01*
X15180362Y27315250D01*
X15124547Y27119083D01*
X15105729Y26916000D01*
X14776159Y26916000D01*
X14757341Y27119083D01*
X14701526Y27315250D01*
X14610617Y27497821D01*
X14487708Y27660579D01*
X14336985Y27797981D01*
X14163581Y27905348D01*
X13973400Y27979024D01*
X13973399Y27979025D01*
X13973397Y27979025D01*
X13772920Y28016500D01*
X13568968Y28016500D01*
X13368490Y27979025D01*
X13298576Y27951941D01*
X13178307Y27905348D01*
X13037204Y27817981D01*
X13004903Y27797981D01*
X12854181Y27660580D01*
X12731272Y27497823D01*
X12731267Y27497814D01*
X12640363Y27315253D01*
X12640362Y27315250D01*
X12584547Y27119083D01*
X12565729Y26916000D01*
X-12545694Y26916000D01*
X-12543841Y26936000D01*
X-12562659Y27139083D01*
X-12618474Y27335250D01*
X-12709383Y27517821D01*
X-12832292Y27680579D01*
X-12983015Y27817981D01*
X-13156419Y27925348D01*
X-13346600Y27999024D01*
X-13346601Y27999025D01*
X-13346603Y27999025D01*
X-13547080Y28036500D01*
X-13751032Y28036500D01*
X-13951510Y27999025D01*
X-14003136Y27979025D01*
X-14141693Y27925348D01*
X-14315097Y27817981D01*
X-14465820Y27680579D01*
X-14480923Y27660579D01*
X-14588728Y27517823D01*
X-14588733Y27517814D01*
X-14679637Y27335253D01*
X-14679638Y27335250D01*
X-14735453Y27139083D01*
X-14754271Y26936000D01*
X-15083841Y26936000D01*
X-15102659Y27139083D01*
X-15158474Y27335250D01*
X-15249383Y27517821D01*
X-15372292Y27680579D01*
X-15523015Y27817981D01*
X-15696419Y27925348D01*
X-15886600Y27999024D01*
X-15886601Y27999025D01*
X-15886603Y27999025D01*
X-16087080Y28036500D01*
X-16291032Y28036500D01*
X-16491510Y27999025D01*
X-16543136Y27979025D01*
X-16681693Y27925348D01*
X-16855097Y27817981D01*
X-17005820Y27680579D01*
X-17020923Y27660579D01*
X-17128728Y27517823D01*
X-17128733Y27517814D01*
X-17219637Y27335253D01*
X-17219638Y27335250D01*
X-17275453Y27139083D01*
X-17294271Y26936000D01*
X-29584054Y26936000D01*
X-27044054Y29476000D01*
X-17294271Y29476000D01*
X-17275453Y29272917D01*
X-17219638Y29076750D01*
X-17128729Y28894179D01*
X-17005820Y28731421D01*
X-16855097Y28594019D01*
X-16681693Y28486652D01*
X-16491512Y28412976D01*
X-16291032Y28375500D01*
X-16087080Y28375500D01*
X-15886600Y28412976D01*
X-15696419Y28486652D01*
X-15523015Y28594019D01*
X-15372292Y28731421D01*
X-15249383Y28894179D01*
X-15158474Y29076750D01*
X-15102659Y29272917D01*
X-15083841Y29476000D01*
X-14754271Y29476000D01*
X-14735453Y29272917D01*
X-14679638Y29076750D01*
X-14588729Y28894179D01*
X-14465820Y28731421D01*
X-14315097Y28594019D01*
X-14141693Y28486652D01*
X-13951512Y28412976D01*
X-13751032Y28375500D01*
X-13547080Y28375500D01*
X-13346600Y28412976D01*
X-13156419Y28486652D01*
X-12983015Y28594019D01*
X-12832292Y28731421D01*
X-12709383Y28894179D01*
X-12618474Y29076750D01*
X-12562659Y29272917D01*
X-12545694Y29456000D01*
X12565729Y29456000D01*
X12584547Y29252917D01*
X12640362Y29056750D01*
X12731271Y28874179D01*
X12854180Y28711421D01*
X13004903Y28574019D01*
X13178307Y28466652D01*
X13368488Y28392976D01*
X13568968Y28355500D01*
X13772920Y28355500D01*
X13973400Y28392976D01*
X14163581Y28466652D01*
X14336985Y28574019D01*
X14487708Y28711421D01*
X14610617Y28874179D01*
X14701526Y29056750D01*
X14757341Y29252917D01*
X14776159Y29456000D01*
X15105729Y29456000D01*
X15124547Y29252917D01*
X15180362Y29056750D01*
X15271271Y28874179D01*
X15394180Y28711421D01*
X15544903Y28574019D01*
X15718307Y28466652D01*
X15908488Y28392976D01*
X16108968Y28355500D01*
X16312920Y28355500D01*
X16513400Y28392976D01*
X16703581Y28466652D01*
X16876985Y28574019D01*
X17027708Y28711421D01*
X17150617Y28874179D01*
X17241526Y29056750D01*
X17297341Y29252917D01*
X17316159Y29456000D01*
X17297341Y29659083D01*
X17241526Y29855250D01*
X17150617Y30037821D01*
X17027708Y30200579D01*
X16876985Y30337981D01*
X16703581Y30445348D01*
X16513400Y30519024D01*
X16513399Y30519025D01*
X16513397Y30519025D01*
X16312920Y30556500D01*
X16108968Y30556500D01*
X15908490Y30519025D01*
X15838576Y30491941D01*
X15718307Y30445348D01*
X15577204Y30357981D01*
X15544903Y30337981D01*
X15394181Y30200580D01*
X15271272Y30037823D01*
X15271267Y30037814D01*
X15180363Y29855253D01*
X15180362Y29855250D01*
X15124547Y29659083D01*
X15105729Y29456000D01*
X14776159Y29456000D01*
X14757341Y29659083D01*
X14701526Y29855250D01*
X14610617Y30037821D01*
X14487708Y30200579D01*
X14336985Y30337981D01*
X14163581Y30445348D01*
X13973400Y30519024D01*
X13973399Y30519025D01*
X13973397Y30519025D01*
X13772920Y30556500D01*
X13568968Y30556500D01*
X13368490Y30519025D01*
X13298576Y30491941D01*
X13178307Y30445348D01*
X13037204Y30357981D01*
X13004903Y30337981D01*
X12854181Y30200580D01*
X12731272Y30037823D01*
X12731267Y30037814D01*
X12640363Y29855253D01*
X12640362Y29855250D01*
X12584547Y29659083D01*
X12565729Y29456000D01*
X-12545694Y29456000D01*
X-12543841Y29476000D01*
X-12562659Y29679083D01*
X-12618474Y29875250D01*
X-12709383Y30057821D01*
X-12832292Y30220579D01*
X-12983015Y30357981D01*
X-13156419Y30465348D01*
X-13346600Y30539024D01*
X-13346601Y30539025D01*
X-13346603Y30539025D01*
X-13547080Y30576500D01*
X-13751032Y30576500D01*
X-13951510Y30539025D01*
X-14003136Y30519025D01*
X-14141693Y30465348D01*
X-14315097Y30357981D01*
X-14465820Y30220579D01*
X-14480923Y30200579D01*
X-14588728Y30057823D01*
X-14588733Y30057814D01*
X-14679637Y29875253D01*
X-14679638Y29875250D01*
X-14735453Y29679083D01*
X-14754271Y29476000D01*
X-15083841Y29476000D01*
X-15102659Y29679083D01*
X-15158474Y29875250D01*
X-15249383Y30057821D01*
X-15372292Y30220579D01*
X-15523015Y30357981D01*
X-15696419Y30465348D01*
X-15886600Y30539024D01*
X-15886601Y30539025D01*
X-15886603Y30539025D01*
X-16087080Y30576500D01*
X-16291032Y30576500D01*
X-16491510Y30539025D01*
X-16543136Y30519025D01*
X-16681693Y30465348D01*
X-16855097Y30357981D01*
X-17005820Y30220579D01*
X-17020923Y30200579D01*
X-17128728Y30057823D01*
X-17128733Y30057814D01*
X-17219637Y29875253D01*
X-17219638Y29875250D01*
X-17275453Y29679083D01*
X-17294271Y29476000D01*
X-27044054Y29476000D01*
X-24504054Y32016000D01*
X-17294271Y32016000D01*
X-17275453Y31812917D01*
X-17219638Y31616750D01*
X-17128729Y31434179D01*
X-17005820Y31271421D01*
X-16855097Y31134019D01*
X-16681693Y31026652D01*
X-16491512Y30952976D01*
X-16291032Y30915500D01*
X-16087080Y30915500D01*
X-15886600Y30952976D01*
X-15696419Y31026652D01*
X-15523015Y31134019D01*
X-15372292Y31271421D01*
X-15249383Y31434179D01*
X-15158474Y31616750D01*
X-15102659Y31812917D01*
X-15083841Y32016000D01*
X-14754271Y32016000D01*
X-14735453Y31812917D01*
X-14679638Y31616750D01*
X-14588729Y31434179D01*
X-14465820Y31271421D01*
X-14315097Y31134019D01*
X-14141693Y31026652D01*
X-13951512Y30952976D01*
X-13751032Y30915500D01*
X-13547080Y30915500D01*
X-13346600Y30952976D01*
X-13156419Y31026652D01*
X-12983015Y31134019D01*
X-12832292Y31271421D01*
X-12709383Y31434179D01*
X-12618474Y31616750D01*
X-12562659Y31812917D01*
X-12545694Y31996000D01*
X12565729Y31996000D01*
X12584547Y31792917D01*
X12640362Y31596750D01*
X12731271Y31414179D01*
X12854180Y31251421D01*
X13004903Y31114019D01*
X13178307Y31006652D01*
X13368488Y30932976D01*
X13568968Y30895500D01*
X13772920Y30895500D01*
X13973400Y30932976D01*
X14163581Y31006652D01*
X14336985Y31114019D01*
X14487708Y31251421D01*
X14610617Y31414179D01*
X14701526Y31596750D01*
X14757341Y31792917D01*
X14776159Y31996000D01*
X15105729Y31996000D01*
X15124547Y31792917D01*
X15180362Y31596750D01*
X15271271Y31414179D01*
X15394180Y31251421D01*
X15544903Y31114019D01*
X15718307Y31006652D01*
X15908488Y30932976D01*
X16108968Y30895500D01*
X16312920Y30895500D01*
X16513400Y30932976D01*
X16703581Y31006652D01*
X16876985Y31114019D01*
X17027708Y31251421D01*
X17150617Y31414179D01*
X17241526Y31596750D01*
X17297341Y31792917D01*
X17316159Y31996000D01*
X17297341Y32199083D01*
X17241526Y32395250D01*
X17150617Y32577821D01*
X17027708Y32740579D01*
X16876985Y32877981D01*
X16703581Y32985348D01*
X16513400Y33059024D01*
X16513399Y33059025D01*
X16513397Y33059025D01*
X16312920Y33096500D01*
X16108968Y33096500D01*
X15908490Y33059025D01*
X15838576Y33031941D01*
X15718307Y32985348D01*
X15577204Y32897981D01*
X15544903Y32877981D01*
X15394181Y32740580D01*
X15271272Y32577823D01*
X15271267Y32577814D01*
X15180363Y32395253D01*
X15180362Y32395250D01*
X15124547Y32199083D01*
X15105729Y31996000D01*
X14776159Y31996000D01*
X14757341Y32199083D01*
X14701526Y32395250D01*
X14610617Y32577821D01*
X14487708Y32740579D01*
X14336985Y32877981D01*
X14163581Y32985348D01*
X13973400Y33059024D01*
X13973399Y33059025D01*
X13973397Y33059025D01*
X13772920Y33096500D01*
X13568968Y33096500D01*
X13368490Y33059025D01*
X13298576Y33031941D01*
X13178307Y32985348D01*
X13037204Y32897981D01*
X13004903Y32877981D01*
X12854181Y32740580D01*
X12731272Y32577823D01*
X12731267Y32577814D01*
X12640363Y32395253D01*
X12640362Y32395250D01*
X12584547Y32199083D01*
X12565729Y31996000D01*
X-12545694Y31996000D01*
X-12543841Y32016000D01*
X-12562659Y32219083D01*
X-12618474Y32415250D01*
X-12709383Y32597821D01*
X-12832292Y32760579D01*
X-12983015Y32897981D01*
X-13156419Y33005348D01*
X-13346600Y33079024D01*
X-13346601Y33079025D01*
X-13346603Y33079025D01*
X-13547080Y33116500D01*
X-13751032Y33116500D01*
X-13951510Y33079025D01*
X-14003136Y33059025D01*
X-14141693Y33005348D01*
X-14315097Y32897981D01*
X-14465820Y32760579D01*
X-14480923Y32740579D01*
X-14588728Y32597823D01*
X-14588733Y32597814D01*
X-14679637Y32415253D01*
X-14679638Y32415250D01*
X-14735453Y32219083D01*
X-14754271Y32016000D01*
X-15083841Y32016000D01*
X-15102659Y32219083D01*
X-15158474Y32415250D01*
X-15249383Y32597821D01*
X-15372292Y32760579D01*
X-15523015Y32897981D01*
X-15696419Y33005348D01*
X-15886600Y33079024D01*
X-15886601Y33079025D01*
X-15886603Y33079025D01*
X-16087080Y33116500D01*
X-16291032Y33116500D01*
X-16491510Y33079025D01*
X-16543136Y33059025D01*
X-16681693Y33005348D01*
X-16855097Y32897981D01*
X-17005820Y32760579D01*
X-17020923Y32740579D01*
X-17128728Y32597823D01*
X-17128733Y32597814D01*
X-17219637Y32415253D01*
X-17219638Y32415250D01*
X-17275453Y32219083D01*
X-17294271Y32016000D01*
X-24504054Y32016000D01*
X-19509550Y37010504D01*
X-19455033Y37038281D01*
X-19439546Y37039500D01*
X-17093510Y37039500D01*
X-17035319Y37020593D01*
X-17023506Y37010504D01*
X-14771422Y34758420D01*
X-14743645Y34703903D01*
X-14742848Y34679282D01*
X-14754271Y34556000D01*
X-14735453Y34352917D01*
X-14679638Y34156750D01*
X-14588729Y33974179D01*
X-14465820Y33811421D01*
X-14315097Y33674019D01*
X-14141693Y33566652D01*
X-13951512Y33492976D01*
X-13751032Y33455500D01*
X-13547080Y33455500D01*
X-13346600Y33492976D01*
X-13156419Y33566652D01*
X-12983015Y33674019D01*
X-12832292Y33811421D01*
X-12709383Y33974179D01*
X-12618474Y34156750D01*
X-12562659Y34352917D01*
X-12545694Y34536000D01*
X12565729Y34536000D01*
X12584547Y34332917D01*
X12640362Y34136750D01*
X12731271Y33954179D01*
X12854180Y33791421D01*
X13004903Y33654019D01*
X13178307Y33546652D01*
X13368488Y33472976D01*
X13568968Y33435500D01*
X13772920Y33435500D01*
X13973400Y33472976D01*
X14163581Y33546652D01*
X14336985Y33654019D01*
X14487708Y33791421D01*
X14610617Y33954179D01*
X14701526Y34136750D01*
X14757341Y34332917D01*
X14776159Y34536000D01*
X15105729Y34536000D01*
X15124547Y34332917D01*
X15180362Y34136750D01*
X15271271Y33954179D01*
X15394180Y33791421D01*
X15544903Y33654019D01*
X15718307Y33546652D01*
X15908488Y33472976D01*
X16108968Y33435500D01*
X16312920Y33435500D01*
X16513400Y33472976D01*
X16703581Y33546652D01*
X16876985Y33654019D01*
X17027708Y33791421D01*
X17150617Y33954179D01*
X17241526Y34136750D01*
X17297341Y34332917D01*
X17316159Y34536000D01*
X17297341Y34739083D01*
X17241526Y34935250D01*
X17150617Y35117821D01*
X17027708Y35280579D01*
X16876985Y35417981D01*
X16703581Y35525348D01*
X16513400Y35599024D01*
X16513399Y35599025D01*
X16513397Y35599025D01*
X16312920Y35636500D01*
X16108968Y35636500D01*
X15908490Y35599025D01*
X15878444Y35587385D01*
X15718307Y35525348D01*
X15544903Y35417981D01*
X15394180Y35280579D01*
X15385529Y35269123D01*
X15271272Y35117823D01*
X15271267Y35117814D01*
X15187659Y34949905D01*
X15180362Y34935250D01*
X15174968Y34916292D01*
X15124547Y34739083D01*
X15111170Y34594714D01*
X15105729Y34536000D01*
X14776159Y34536000D01*
X14757341Y34739083D01*
X14701526Y34935250D01*
X14610617Y35117821D01*
X14487708Y35280579D01*
X14336985Y35417981D01*
X14163581Y35525348D01*
X13973400Y35599024D01*
X13973399Y35599025D01*
X13973397Y35599025D01*
X13772920Y35636500D01*
X13568968Y35636500D01*
X13368490Y35599025D01*
X13338444Y35587385D01*
X13178307Y35525348D01*
X13004903Y35417981D01*
X12854180Y35280579D01*
X12845529Y35269123D01*
X12731272Y35117823D01*
X12731267Y35117814D01*
X12647659Y34949905D01*
X12640362Y34935250D01*
X12634968Y34916292D01*
X12584547Y34739083D01*
X12571170Y34594714D01*
X12565729Y34536000D01*
X-12545694Y34536000D01*
X-12543841Y34556000D01*
X-12562659Y34759083D01*
X-12618474Y34955250D01*
X-12709383Y35137821D01*
X-12832292Y35300579D01*
X-12983015Y35437981D01*
X-13156419Y35545348D01*
X-13227209Y35572772D01*
X-1691342Y35572772D01*
X-1691216Y35572772D01*
X-1691216Y35566787D01*
X-1682736Y35496947D01*
X-1675818Y35423765D01*
X-1674458Y35417683D01*
X-1674634Y35417644D01*
X-1674159Y35415651D01*
X-1673608Y35415786D01*
X-1672176Y35409976D01*
X-1646097Y35341211D01*
X-1620147Y35269129D01*
X-1620146Y35269127D01*
X-1620144Y35269123D01*
X-1620013Y35268930D01*
X-1617133Y35264126D01*
X-1616157Y35262265D01*
X-1572543Y35199081D01*
X-1530913Y35137823D01*
X-1527763Y35133189D01*
X-1466949Y35079574D01*
X-1408178Y35027508D01*
X-1408177Y35027508D01*
X-1407210Y35026651D01*
X-1404667Y35024665D01*
X-1404479Y35024499D01*
X-1334783Y34988987D01*
X-1268303Y34954095D01*
X-1268301Y34954095D01*
X-1263004Y34952085D01*
X-1258083Y34949906D01*
X-1258038Y34949883D01*
X-1184758Y34933504D01*
X-1114923Y34916291D01*
X-1114918Y34916291D01*
X-1108975Y34915569D01*
X-1109017Y34915224D01*
X-1101585Y34914404D01*
X-1097642Y34914032D01*
X-1097641Y34914031D01*
X-1097641Y34914032D01*
X-1097640Y34914031D01*
X-1048706Y34915569D01*
X-1025734Y34916291D01*
X-956953Y34916291D01*
X-956952Y34916291D01*
X-956299Y34916371D01*
X-936452Y34919097D01*
X-933910Y34919178D01*
X-933368Y34919194D01*
X-867307Y34938387D01*
X-803573Y34954095D01*
X-800422Y34955750D01*
X-782016Y34963166D01*
X-775539Y34965047D01*
X-720073Y34997851D01*
X-717950Y34999035D01*
X-663698Y35027508D01*
X-658292Y35032299D01*
X-643031Y35043413D01*
X-634073Y35048710D01*
X-590916Y35091869D01*
X-588777Y35093884D01*
X-545455Y35132261D01*
X-539274Y35141217D01*
X-527810Y35154975D01*
X1260140Y36942924D01*
X1314657Y36970701D01*
X1330144Y36971920D01*
X4254628Y36971920D01*
X4271726Y36970033D01*
X4275669Y36969661D01*
X4275670Y36969660D01*
X4275670Y36969661D01*
X4275671Y36969660D01*
X4311623Y36970790D01*
X4347577Y36971920D01*
X4378299Y36971920D01*
X4386173Y36972916D01*
X4390791Y36973279D01*
X4439943Y36974823D01*
X4462204Y36981291D01*
X4477416Y36984442D01*
X4500432Y36987349D01*
X4546164Y37005457D01*
X4550547Y37006957D01*
X4597772Y37020676D01*
X4617739Y37032486D01*
X4631680Y37039315D01*
X4653245Y37047852D01*
X4693020Y37076751D01*
X4696913Y37079308D01*
X4739239Y37104339D01*
X4755635Y37120737D01*
X4767447Y37130826D01*
X4786211Y37144457D01*
X4817554Y37182347D01*
X4820670Y37185772D01*
X5088285Y37453385D01*
X5088285Y37453386D01*
X5088286Y37453386D01*
X6062681Y38427782D01*
X6586843Y38951945D01*
X6600231Y38962668D01*
X6603309Y38965216D01*
X6603314Y38965218D01*
X6652564Y39017665D01*
X6674286Y39039386D01*
X6679147Y39045655D01*
X6682153Y39049175D01*
X6715822Y39085027D01*
X6726994Y39105352D01*
X6735514Y39118323D01*
X6749737Y39136657D01*
X6769275Y39181810D01*
X6771307Y39185956D01*
X6795001Y39229052D01*
X6800767Y39251514D01*
X6805798Y39266210D01*
X6815010Y39287494D01*
X6822702Y39336064D01*
X6823640Y39340600D01*
X6835874Y39388243D01*
X6835874Y39411434D01*
X6837093Y39426919D01*
X6838357Y39434901D01*
X6840721Y39449825D01*
X6837449Y39484439D01*
X6836094Y39498781D01*
X6835874Y39503442D01*
X6835874Y39794635D01*
X21499647Y39794635D01*
X21518729Y39442678D01*
X21575753Y39094842D01*
X21670045Y38755235D01*
X21670047Y38755230D01*
X21670048Y38755226D01*
X21670050Y38755221D01*
X21800514Y38427781D01*
X21965616Y38116366D01*
X22163420Y37824627D01*
X22163424Y37824622D01*
X22163425Y37824621D01*
X22391602Y37555990D01*
X22391612Y37555980D01*
X22647497Y37313592D01*
X22647501Y37313589D01*
X22928103Y37100281D01*
X23230123Y36918561D01*
X23550020Y36770561D01*
X23884043Y36658016D01*
X23884048Y36658015D01*
X23884051Y36658014D01*
X24228271Y36582245D01*
X24228272Y36582245D01*
X24228276Y36582244D01*
X24495149Y36553220D01*
X24578683Y36544135D01*
X24578684Y36544135D01*
X24931159Y36544135D01*
X24998612Y36551472D01*
X25281566Y36582244D01*
X25330713Y36593062D01*
X25396310Y36607502D01*
X25625790Y36658014D01*
X25625791Y36658014D01*
X25625793Y36658015D01*
X25625799Y36658016D01*
X25959822Y36770561D01*
X26279719Y36918561D01*
X26581739Y37100281D01*
X26862341Y37313589D01*
X27118235Y37555985D01*
X27346422Y37824627D01*
X27544226Y38116366D01*
X27709328Y38427781D01*
X27839792Y38755221D01*
X27884805Y38917343D01*
X27934088Y39094842D01*
X27965737Y39287892D01*
X27991112Y39442678D01*
X28010195Y39794635D01*
X27991112Y40146592D01*
X27960205Y40335117D01*
X27934088Y40494429D01*
X27839796Y40834036D01*
X27839794Y40834041D01*
X27839792Y40834049D01*
X27709328Y41161489D01*
X27544226Y41472904D01*
X27346422Y41764643D01*
X27268999Y41855792D01*
X27118239Y42033281D01*
X27118229Y42033291D01*
X26862344Y42275679D01*
X26581743Y42488986D01*
X26581742Y42488987D01*
X26581739Y42488989D01*
X26279719Y42670709D01*
X26100218Y42753755D01*
X25959827Y42818707D01*
X25959824Y42818708D01*
X25959822Y42818709D01*
X25625799Y42931254D01*
X25625798Y42931255D01*
X25625790Y42931257D01*
X25281570Y43007026D01*
X25281571Y43007026D01*
X24931159Y43045135D01*
X24931158Y43045135D01*
X24578684Y43045135D01*
X24578683Y43045135D01*
X24228270Y43007026D01*
X23884052Y42931257D01*
X23884050Y42931257D01*
X23550014Y42818707D01*
X23230131Y42670713D01*
X23230125Y42670710D01*
X23230123Y42670709D01*
X23181092Y42641208D01*
X22928103Y42488989D01*
X22928098Y42488986D01*
X22647497Y42275679D01*
X22391612Y42033291D01*
X22391602Y42033281D01*
X22163425Y41764650D01*
X22163420Y41764644D01*
X22163420Y41764643D01*
X21965616Y41472904D01*
X21800514Y41161489D01*
X21752346Y41040595D01*
X21670047Y40834041D01*
X21670045Y40834036D01*
X21575753Y40494429D01*
X21518729Y40146593D01*
X21499647Y39794635D01*
X6835874Y39794635D01*
X6835874Y43226920D01*
X6854781Y43285111D01*
X6904281Y43321075D01*
X6934874Y43325920D01*
X7060047Y43325920D01*
X7060048Y43325920D01*
X7133114Y43340454D01*
X7215975Y43395819D01*
X7271340Y43478680D01*
X7285874Y43551746D01*
X7285874Y45301094D01*
X7271340Y45374160D01*
X7215975Y45457021D01*
X7215973Y45457023D01*
X7133116Y45512385D01*
X7133114Y45512386D01*
X7133111Y45512387D01*
X7133110Y45512387D01*
X7060058Y45526919D01*
X7060048Y45526920D01*
X5310700Y45526920D01*
X5310699Y45526920D01*
X5310689Y45526919D01*
X5237637Y45512387D01*
X5237631Y45512385D01*
X5154774Y45457023D01*
X5154771Y45457020D01*
X5099409Y45374163D01*
X5099407Y45374157D01*
X5084875Y45301105D01*
X5084874Y45301093D01*
X5084874Y43551748D01*
X5084875Y43551736D01*
X5099407Y43478684D01*
X5099409Y43478678D01*
X5154771Y43395821D01*
X5154774Y43395818D01*
X5175353Y43382068D01*
X5237634Y43340454D01*
X5293182Y43329405D01*
X5310689Y43325922D01*
X5310694Y43325922D01*
X5310700Y43325920D01*
X5435874Y43325920D01*
X5494065Y43307013D01*
X5530029Y43257513D01*
X5534874Y43226920D01*
X5534874Y39780874D01*
X5515967Y39722683D01*
X5505878Y39710871D01*
X4197508Y38402501D01*
X4197509Y38402501D01*
X4096924Y38301916D01*
X4042407Y38274139D01*
X4026920Y38272920D01*
X1102436Y38272920D01*
X1085341Y38274808D01*
X1081392Y38275181D01*
X1009473Y38272920D01*
X978760Y38272920D01*
X970905Y38271929D01*
X966260Y38271563D01*
X917120Y38270018D01*
X917115Y38270017D01*
X894849Y38263548D01*
X879638Y38260398D01*
X856635Y38257493D01*
X810924Y38239395D01*
X806512Y38237885D01*
X759296Y38224166D01*
X759294Y38224165D01*
X759292Y38224165D01*
X759292Y38224164D01*
X753009Y38220448D01*
X739329Y38212358D01*
X725385Y38205527D01*
X703819Y38196988D01*
X703818Y38196988D01*
X703817Y38196987D01*
X664040Y38168089D01*
X660142Y38165529D01*
X617824Y38140501D01*
X617821Y38140499D01*
X601422Y38124100D01*
X589617Y38114018D01*
X570856Y38100387D01*
X570850Y38100381D01*
X539518Y38062507D01*
X536378Y38059057D01*
X-1480948Y36041728D01*
X-1483125Y36039679D01*
X-1526420Y36001323D01*
X-1560248Y35952317D01*
X-1561872Y35950098D01*
X-1600302Y35900555D01*
X-1600302Y35900554D01*
X-1603714Y35892670D01*
X-1613087Y35875766D01*
X-1616157Y35871319D01*
X-1638471Y35812485D01*
X-1639324Y35810382D01*
X-1665574Y35749718D01*
X-1665574Y35749716D01*
X-1666345Y35744847D01*
X-1671553Y35725251D01*
X-1672173Y35723617D01*
X-1672175Y35723608D01*
X-1680277Y35656891D01*
X-1691285Y35587387D01*
X-1691285Y35587385D01*
X-1691165Y35586114D01*
X-1691342Y35572772D01*
X-13227209Y35572772D01*
X-13346600Y35619024D01*
X-13346601Y35619025D01*
X-13346603Y35619025D01*
X-13547080Y35656500D01*
X-13751032Y35656500D01*
X-13765942Y35653713D01*
X-13826616Y35661608D01*
X-13854134Y35681024D01*
X-16264576Y38091466D01*
X-16275342Y38104904D01*
X-16277852Y38107938D01*
X-16284327Y38114018D01*
X-16330301Y38157191D01*
X-16352021Y38178911D01*
X-16358277Y38183764D01*
X-16361823Y38186793D01*
X-16397664Y38220449D01*
X-16417985Y38231620D01*
X-16430969Y38240149D01*
X-16449292Y38254362D01*
X-16494405Y38273885D01*
X-16498593Y38275936D01*
X-16541682Y38299624D01*
X-16541690Y38299628D01*
X-16564159Y38305397D01*
X-16578850Y38310427D01*
X-16600130Y38319635D01*
X-16600132Y38319636D01*
X-16648683Y38327326D01*
X-16653251Y38328272D01*
X-16700874Y38340499D01*
X-16700877Y38340500D01*
X-16700879Y38340500D01*
X-16700882Y38340500D01*
X-16724069Y38340500D01*
X-16739556Y38341719D01*
X-16743780Y38342388D01*
X-16762461Y38345347D01*
X-16762462Y38345347D01*
X-16811413Y38340720D01*
X-16816074Y38340500D01*
X-19667255Y38340500D01*
X-19684354Y38342388D01*
X-19688299Y38342761D01*
X-19758138Y38340565D01*
X-19760204Y38340500D01*
X-19790930Y38340500D01*
X-19798793Y38339508D01*
X-19803438Y38339142D01*
X-19847050Y38337771D01*
X-19852570Y38337597D01*
X-19852572Y38337597D01*
X-19852578Y38337596D01*
X-19874847Y38331127D01*
X-19890046Y38327979D01*
X-19913059Y38325071D01*
X-19913060Y38325071D01*
X-19958767Y38306975D01*
X-19963179Y38305464D01*
X-20010394Y38291746D01*
X-20010401Y38291743D01*
X-20030367Y38279936D01*
X-20044311Y38273105D01*
X-20065871Y38264569D01*
X-20065874Y38264567D01*
X-20105641Y38235675D01*
X-20109538Y38233115D01*
X-20151864Y38208082D01*
X-20151869Y38208079D01*
X-20168268Y38191680D01*
X-20180073Y38181598D01*
X-20198834Y38167967D01*
X-20198840Y38167961D01*
X-20230172Y38130087D01*
X-20233312Y38126637D01*
X-40952095Y17407853D01*
X-40965508Y17397107D01*
X-40968567Y17394576D01*
X-41017817Y17342130D01*
X-41039534Y17320413D01*
X-41039542Y17320404D01*
X-41044399Y17314144D01*
X-41047421Y17310607D01*
X-41081074Y17274768D01*
X-41086676Y17264579D01*
X-41092249Y17254442D01*
X-41100772Y17241466D01*
X-41114989Y17223138D01*
X-41134511Y17178025D01*
X-41136563Y17173836D01*
X-41160250Y17130749D01*
X-41160254Y17130738D01*
X-41166022Y17108275D01*
X-41171052Y17093583D01*
X-41180262Y17072300D01*
X-41187952Y17023749D01*
X-41188898Y17019181D01*
X-41201125Y16971558D01*
X-41201126Y16971549D01*
X-41201126Y16948362D01*
X-41202345Y16932876D01*
X-41205973Y16909970D01*
X-41205973Y16909968D01*
X-41201347Y16861019D01*
X-41201127Y16856359D01*
X-41201126Y10885920D01*
X-41220033Y10827729D01*
X-41269533Y10791765D01*
X-41300126Y10786920D01*
X-44531881Y10786920D01*
X-44548980Y10788808D01*
X-44552925Y10789181D01*
X-44622764Y10786985D01*
X-44624830Y10786920D01*
X-44655556Y10786920D01*
X-44663419Y10785928D01*
X-44668064Y10785562D01*
X-44711676Y10784191D01*
X-44717196Y10784017D01*
X-44717198Y10784017D01*
X-44717204Y10784016D01*
X-44739473Y10777547D01*
X-44754672Y10774399D01*
X-44777685Y10771491D01*
X-44777686Y10771491D01*
X-44823393Y10753395D01*
X-44827805Y10751884D01*
X-44875020Y10738166D01*
X-44875027Y10738163D01*
X-44894993Y10726356D01*
X-44908937Y10719525D01*
X-44930497Y10710989D01*
X-44930500Y10710987D01*
X-44970267Y10682095D01*
X-44974164Y10679535D01*
X-45016490Y10654502D01*
X-45016495Y10654499D01*
X-45032894Y10638100D01*
X-45044699Y10628018D01*
X-45063460Y10614387D01*
X-45063466Y10614381D01*
X-45094798Y10576507D01*
X-45097938Y10573057D01*
X-46286095Y9384899D01*
X-46299508Y9374153D01*
X-46302567Y9371622D01*
X-46351817Y9319176D01*
X-46373534Y9297459D01*
X-46373542Y9297450D01*
X-46378399Y9291190D01*
X-46381421Y9287653D01*
X-46415074Y9251814D01*
X-46420676Y9241625D01*
X-46426249Y9231488D01*
X-46434772Y9218512D01*
X-46448989Y9200184D01*
X-46468511Y9155071D01*
X-46470563Y9150882D01*
X-46494250Y9107795D01*
X-46494254Y9107784D01*
X-46500022Y9085321D01*
X-46505052Y9070629D01*
X-46514262Y9049346D01*
X-46521952Y9000795D01*
X-46522898Y8996227D01*
X-46535125Y8948604D01*
X-46535126Y8948595D01*
X-46535126Y8925408D01*
X-46536345Y8909922D01*
X-46539973Y8887016D01*
X-46539973Y8887014D01*
X-46535347Y8838065D01*
X-46535127Y8833405D01*
X-46535127Y8019920D01*
X-46535126Y7271920D01*
X-46554033Y7213729D01*
X-46603533Y7177765D01*
X-46634126Y7172920D01*
X-46759300Y7172920D01*
X-46759301Y7172920D01*
X-46759311Y7172919D01*
X-46832363Y7158387D01*
X-46832369Y7158385D01*
X-46915226Y7103023D01*
X-46915229Y7103020D01*
X-46970591Y7020163D01*
X-46970593Y7020157D01*
X-46985125Y6947105D01*
X-46985126Y6947093D01*
X-46985126Y5197748D01*
X-54379500Y5197748D01*
X-54379500Y17317603D01*
X-49342342Y17317603D01*
X-49323260Y16965646D01*
X-49266236Y16617810D01*
X-49171944Y16278203D01*
X-49171942Y16278198D01*
X-49171941Y16278194D01*
X-49171939Y16278189D01*
X-49041475Y15950749D01*
X-48876373Y15639334D01*
X-48678569Y15347595D01*
X-48678565Y15347590D01*
X-48678564Y15347589D01*
X-48450387Y15078958D01*
X-48450377Y15078948D01*
X-48194492Y14836560D01*
X-48194488Y14836557D01*
X-47913886Y14623249D01*
X-47611866Y14441529D01*
X-47291969Y14293529D01*
X-46957946Y14180984D01*
X-46957941Y14180983D01*
X-46957938Y14180982D01*
X-46613718Y14105213D01*
X-46613717Y14105213D01*
X-46613713Y14105212D01*
X-46346840Y14076188D01*
X-46263306Y14067103D01*
X-46263305Y14067103D01*
X-45910830Y14067103D01*
X-45843377Y14074440D01*
X-45560423Y14105212D01*
X-45216199Y14180982D01*
X-45216198Y14180982D01*
X-45216196Y14180983D01*
X-45216190Y14180984D01*
X-44882167Y14293529D01*
X-44562270Y14441529D01*
X-44260250Y14623249D01*
X-43979648Y14836557D01*
X-43723754Y15078953D01*
X-43495567Y15347595D01*
X-43297763Y15639334D01*
X-43132661Y15950749D01*
X-43002197Y16278189D01*
X-42995746Y16301422D01*
X-42907901Y16617810D01*
X-42850877Y16965646D01*
X-42850148Y16979083D01*
X-42831794Y17317603D01*
X-42850877Y17669560D01*
X-42863302Y17745348D01*
X-42907901Y18017397D01*
X-43002193Y18357004D01*
X-43002195Y18357009D01*
X-43002197Y18357017D01*
X-43132661Y18684457D01*
X-43297763Y18995872D01*
X-43495567Y19287611D01*
X-43665586Y19487773D01*
X-43723750Y19556249D01*
X-43723760Y19556259D01*
X-43979645Y19798647D01*
X-44260246Y20011954D01*
X-44260247Y20011955D01*
X-44260250Y20011957D01*
X-44562270Y20193677D01*
X-44727192Y20269978D01*
X-44882162Y20341675D01*
X-44882165Y20341676D01*
X-44882167Y20341677D01*
X-45216190Y20454222D01*
X-45216191Y20454223D01*
X-45216199Y20454225D01*
X-45560419Y20529994D01*
X-45560418Y20529994D01*
X-45910830Y20568103D01*
X-45910831Y20568103D01*
X-46263305Y20568103D01*
X-46263306Y20568103D01*
X-46613719Y20529994D01*
X-46957937Y20454225D01*
X-46957939Y20454225D01*
X-47291975Y20341675D01*
X-47611858Y20193681D01*
X-47611864Y20193678D01*
X-47611866Y20193677D01*
X-47782627Y20090933D01*
X-47913886Y20011957D01*
X-47913891Y20011954D01*
X-48194492Y19798647D01*
X-48450377Y19556259D01*
X-48450387Y19556249D01*
X-48678564Y19287618D01*
X-48678569Y19287612D01*
X-48678569Y19287611D01*
X-48876373Y18995872D01*
X-49041475Y18684457D01*
X-49141380Y18433713D01*
X-49171942Y18357009D01*
X-49171944Y18357004D01*
X-49266236Y18017397D01*
X-49323260Y17669561D01*
X-49342342Y17317603D01*
X-54379500Y17317603D01*
X-54379500Y33915941D01*
X-54379496Y33916064D01*
X-54379497Y33917962D01*
X-54379495Y33917968D01*
X-54379500Y34034471D01*
X-54379399Y34037635D01*
X-54367445Y34224278D01*
X-54366636Y34230565D01*
X-54346743Y34332917D01*
X-54331259Y34412593D01*
X-54329657Y34418713D01*
X-54271329Y34594742D01*
X-54268959Y34600604D01*
X-54193122Y34758420D01*
X-54188642Y34767743D01*
X-54185539Y34773265D01*
X-54084539Y34928789D01*
X-54080771Y34933851D01*
X-53959910Y35076192D01*
X-53957833Y35078486D01*
X-53876638Y35162560D01*
X-53876636Y35162565D01*
X-53875548Y35163690D01*
X-53875506Y35163739D01*
X-49574909Y39617137D01*
X-27807933Y39617137D01*
X-27788851Y39265179D01*
X-27731827Y38917343D01*
X-27637535Y38577736D01*
X-27637533Y38577731D01*
X-27637532Y38577727D01*
X-27637530Y38577722D01*
X-27507066Y38250282D01*
X-27341964Y37938867D01*
X-27144160Y37647128D01*
X-27144156Y37647123D01*
X-27144155Y37647122D01*
X-26915978Y37378491D01*
X-26915968Y37378481D01*
X-26660083Y37136093D01*
X-26660079Y37136090D01*
X-26379477Y36922782D01*
X-26077457Y36741062D01*
X-25757560Y36593062D01*
X-25423537Y36480517D01*
X-25423532Y36480516D01*
X-25423529Y36480515D01*
X-25079309Y36404746D01*
X-25079308Y36404746D01*
X-25079304Y36404745D01*
X-24812431Y36375721D01*
X-24728897Y36366636D01*
X-24728896Y36366636D01*
X-24376421Y36366636D01*
X-24308968Y36373973D01*
X-24026014Y36404745D01*
X-23681790Y36480515D01*
X-23681789Y36480515D01*
X-23681787Y36480516D01*
X-23681781Y36480517D01*
X-23347758Y36593062D01*
X-23027861Y36741062D01*
X-22725841Y36922782D01*
X-22445239Y37136090D01*
X-22189345Y37378486D01*
X-21961158Y37647128D01*
X-21763354Y37938867D01*
X-21598252Y38250282D01*
X-21467788Y38577722D01*
X-21418503Y38755230D01*
X-21373492Y38917343D01*
X-21352459Y39045637D01*
X-21316468Y39265179D01*
X-21297385Y39617136D01*
X-21316468Y39969093D01*
X-21373491Y40316924D01*
X-21373492Y40316925D01*
X-21373492Y40316930D01*
X-21467784Y40656537D01*
X-21467786Y40656542D01*
X-21467788Y40656550D01*
X-21598252Y40983990D01*
X-21763354Y41295405D01*
X-21961158Y41587144D01*
X-21979980Y41609303D01*
X-22189341Y41855782D01*
X-22189351Y41855792D01*
X-22445236Y42098180D01*
X-22725837Y42311487D01*
X-22725838Y42311488D01*
X-22725841Y42311490D01*
X-23027861Y42493210D01*
X-23137725Y42544039D01*
X-23347753Y42641208D01*
X-23347756Y42641209D01*
X-23347758Y42641210D01*
X-23681781Y42753755D01*
X-23681782Y42753756D01*
X-23681790Y42753758D01*
X-24026010Y42829527D01*
X-24026009Y42829527D01*
X-24376421Y42867636D01*
X-24376422Y42867636D01*
X-24728896Y42867636D01*
X-24728897Y42867636D01*
X-25079310Y42829527D01*
X-25423528Y42753758D01*
X-25423530Y42753758D01*
X-25757566Y42641208D01*
X-26077449Y42493214D01*
X-26077455Y42493211D01*
X-26379477Y42311490D01*
X-26379482Y42311487D01*
X-26660083Y42098180D01*
X-26915968Y41855792D01*
X-26915978Y41855782D01*
X-27144155Y41587151D01*
X-27144162Y41587141D01*
X-27329787Y41313364D01*
X-27341964Y41295405D01*
X-27444213Y41102543D01*
X-27507066Y40983990D01*
X-27637533Y40656542D01*
X-27637535Y40656537D01*
X-27731827Y40316930D01*
X-27788851Y39969094D01*
X-27807933Y39617137D01*
X-49574909Y39617137D01*
X-44930639Y44426420D01*
X-7619841Y44426420D01*
X-7601023Y44223337D01*
X-7545208Y44027170D01*
X-7454299Y43844599D01*
X-7331390Y43681841D01*
X-7180667Y43544439D01*
X-7007263Y43437072D01*
X-6817082Y43363396D01*
X-6616602Y43325920D01*
X-6412650Y43325920D01*
X-6212170Y43363396D01*
X-6021989Y43437072D01*
X-5848585Y43544439D01*
X-5697862Y43681841D01*
X-5574953Y43844599D01*
X-5484044Y44027170D01*
X-5428229Y44223337D01*
X-5409411Y44426420D01*
X-5079841Y44426420D01*
X-5061023Y44223337D01*
X-5005208Y44027170D01*
X-4914299Y43844599D01*
X-4791390Y43681841D01*
X-4640667Y43544439D01*
X-4467263Y43437072D01*
X-4277082Y43363396D01*
X-4076602Y43325920D01*
X-3872650Y43325920D01*
X-3672170Y43363396D01*
X-3481989Y43437072D01*
X-3308585Y43544439D01*
X-3157862Y43681841D01*
X-3034953Y43844599D01*
X-2944044Y44027170D01*
X-2888229Y44223337D01*
X-2869411Y44426420D01*
X-2539841Y44426420D01*
X-2521023Y44223337D01*
X-2465208Y44027170D01*
X-2374299Y43844599D01*
X-2251390Y43681841D01*
X-2100667Y43544439D01*
X-1927263Y43437072D01*
X-1927259Y43437071D01*
X-1927258Y43437070D01*
X-1873364Y43416192D01*
X-1825933Y43377542D01*
X-1810126Y43323877D01*
X-1810126Y41323631D01*
X-1812233Y41303316D01*
X-1814993Y41290153D01*
X-1810507Y41254156D01*
X-1810127Y41248037D01*
X-1810126Y41243306D01*
X-1810126Y41243302D01*
X-1810125Y41243296D01*
X-1806284Y41220280D01*
X-1799492Y41165794D01*
X-1799492Y41165793D01*
X-1799491Y41165790D01*
X-1797255Y41158276D01*
X-1794691Y41150808D01*
X-1777278Y41118632D01*
X-1768571Y41102543D01*
X-1744450Y41053205D01*
X-1739890Y41046819D01*
X-1735046Y41040595D01*
X-1694655Y41003412D01*
X-1542452Y40851208D01*
X-182939Y39491696D01*
X-170064Y39475840D01*
X-162710Y39464584D01*
X-134084Y39442304D01*
X-129487Y39438244D01*
X-126144Y39434901D01*
X-107143Y39421335D01*
X-63815Y39387611D01*
X-63812Y39387610D01*
X-56914Y39383876D01*
X-49828Y39380412D01*
X-49825Y39380410D01*
X2779Y39364749D01*
X54714Y39346920D01*
X54716Y39346920D01*
X62453Y39345629D01*
X70278Y39344654D01*
X70285Y39344652D01*
X125129Y39346920D01*
X1954186Y39346920D01*
X2012377Y39328013D01*
X2035662Y39304158D01*
X2046889Y39287892D01*
X2046890Y39287891D01*
X2046891Y39287890D01*
X2165134Y39183137D01*
X2305009Y39109724D01*
X2458389Y39071920D01*
X2458392Y39071920D01*
X2616356Y39071920D01*
X2616359Y39071920D01*
X2769739Y39109724D01*
X2909614Y39183137D01*
X3027857Y39287890D01*
X3117594Y39417897D01*
X3173611Y39565602D01*
X3192652Y39722420D01*
X3185554Y39780874D01*
X3173611Y39879237D01*
X3173611Y39879238D01*
X3117594Y40026943D01*
X3027857Y40156950D01*
X2909614Y40261703D01*
X2804401Y40316924D01*
X2769738Y40335117D01*
X2616361Y40372920D01*
X2616359Y40372920D01*
X2458389Y40372920D01*
X2458386Y40372920D01*
X2305009Y40335117D01*
X2165132Y40261702D01*
X2046889Y40156949D01*
X2035662Y40140682D01*
X1987046Y40103532D01*
X1954186Y40097920D01*
X313920Y40097920D01*
X255729Y40116827D01*
X243916Y40126916D01*
X-285718Y40656550D01*
X-989108Y41359940D01*
X-989111Y41359942D01*
X-1030131Y41400962D01*
X-1057908Y41455479D01*
X-1059127Y41470966D01*
X-1059127Y42311490D01*
X-1059127Y43323880D01*
X-1040220Y43382068D01*
X-995891Y43416191D01*
X-941989Y43437072D01*
X-768585Y43544439D01*
X-617862Y43681841D01*
X-494953Y43844599D01*
X-404044Y44027170D01*
X-348229Y44223337D01*
X-329411Y44426420D01*
X159Y44426420D01*
X18977Y44223337D01*
X74792Y44027170D01*
X165701Y43844599D01*
X288610Y43681841D01*
X439333Y43544439D01*
X612737Y43437072D01*
X802918Y43363396D01*
X1003398Y43325920D01*
X1207350Y43325920D01*
X1407830Y43363396D01*
X1598011Y43437072D01*
X1771415Y43544439D01*
X1922138Y43681841D01*
X2045047Y43844599D01*
X2135956Y44027170D01*
X2191771Y44223337D01*
X2210589Y44426420D01*
X2191771Y44629503D01*
X2135956Y44825670D01*
X2045047Y45008241D01*
X1922138Y45170999D01*
X1771415Y45308401D01*
X1598011Y45415768D01*
X1407830Y45489444D01*
X1407829Y45489445D01*
X1407827Y45489445D01*
X1207350Y45526920D01*
X1003398Y45526920D01*
X802920Y45489445D01*
X733006Y45462361D01*
X612737Y45415768D01*
X545538Y45374160D01*
X439333Y45308401D01*
X288611Y45171000D01*
X165702Y45008243D01*
X165697Y45008234D01*
X74793Y44825673D01*
X74792Y44825670D01*
X18977Y44629503D01*
X159Y44426420D01*
X-329411Y44426420D01*
X-348229Y44629503D01*
X-404044Y44825670D01*
X-494953Y45008241D01*
X-617862Y45170999D01*
X-768585Y45308401D01*
X-941989Y45415768D01*
X-1132170Y45489444D01*
X-1132171Y45489445D01*
X-1132173Y45489445D01*
X-1332650Y45526920D01*
X-1536602Y45526920D01*
X-1737080Y45489445D01*
X-1806994Y45462361D01*
X-1927263Y45415768D01*
X-1994462Y45374160D01*
X-2100667Y45308401D01*
X-2251389Y45171000D01*
X-2374298Y45008243D01*
X-2374303Y45008234D01*
X-2465207Y44825673D01*
X-2465208Y44825670D01*
X-2521023Y44629503D01*
X-2539841Y44426420D01*
X-2869411Y44426420D01*
X-2888229Y44629503D01*
X-2944044Y44825670D01*
X-3034953Y45008241D01*
X-3157862Y45170999D01*
X-3308585Y45308401D01*
X-3481989Y45415768D01*
X-3672170Y45489444D01*
X-3672171Y45489445D01*
X-3672173Y45489445D01*
X-3872650Y45526920D01*
X-4076602Y45526920D01*
X-4277080Y45489445D01*
X-4346994Y45462361D01*
X-4467263Y45415768D01*
X-4534462Y45374160D01*
X-4640667Y45308401D01*
X-4791389Y45171000D01*
X-4914298Y45008243D01*
X-4914303Y45008234D01*
X-5005207Y44825673D01*
X-5005208Y44825670D01*
X-5061023Y44629503D01*
X-5079841Y44426420D01*
X-5409411Y44426420D01*
X-5428229Y44629503D01*
X-5484044Y44825670D01*
X-5574953Y45008241D01*
X-5697862Y45170999D01*
X-5848585Y45308401D01*
X-6021989Y45415768D01*
X-6212170Y45489444D01*
X-6212171Y45489445D01*
X-6212173Y45489445D01*
X-6412650Y45526920D01*
X-6616602Y45526920D01*
X-6817080Y45489445D01*
X-6886994Y45462361D01*
X-7007263Y45415768D01*
X-7074462Y45374160D01*
X-7180667Y45308401D01*
X-7331389Y45171000D01*
X-7454298Y45008243D01*
X-7454303Y45008234D01*
X-7545207Y44825673D01*
X-7545208Y44825670D01*
X-7601023Y44629503D01*
X-7619841Y44426420D01*
X-44930639Y44426420D01*
X-42703040Y46733166D01*
X-42703013Y46733190D01*
X-42699337Y46736998D01*
X-42699334Y46736999D01*
X-42618424Y46820787D01*
X-42616088Y46823048D01*
X-42471151Y46954321D01*
X-42465973Y46958415D01*
X-42306194Y47068232D01*
X-42300511Y47071602D01*
X-42127509Y47159123D01*
X-42121421Y47161706D01*
X-42029862Y47193533D01*
X-41938303Y47225359D01*
X-41931928Y47227107D01*
X-41741941Y47265764D01*
X-41735396Y47266645D01*
X-41540898Y47279680D01*
X-41537594Y47279790D01*
X41660581Y47279790D01*
X41777009Y47279790D01*
X41780319Y47279679D01*
G37*
%TD.AperFunction*%
%TD*%
M02*
