%TF.GenerationSoftware,KiCad,Pcbnew,7.0.7*%
%TF.CreationDate,2024-02-23T14:56:57+08:00*%
%TF.ProjectId,l3,6c332e6b-6963-4616-945f-706362585858,rev?*%
%TF.SameCoordinates,Original*%
%TF.FileFunction,Soldermask,Bot*%
%TF.FilePolarity,Negative*%
%FSLAX46Y46*%
G04 Gerber Fmt 4.6, Leading zero omitted, Abs format (unit mm)*
G04 Created by KiCad (PCBNEW 7.0.7) date 2024-02-23 14:56:57*
%MOMM*%
%LPD*%
G01*
G04 APERTURE LIST*
%ADD10R,1.700000X1.700000*%
%ADD11O,1.700000X1.700000*%
%ADD12C,0.800000*%
%ADD13C,6.000000*%
%ADD14C,1.778000*%
%ADD15C,6.400000*%
G04 APERTURE END LIST*
D10*
%TO.C,J3*%
X45555374Y-5103580D03*
D11*
X45555374Y-2563580D03*
X45555374Y-23580D03*
X45555374Y2516420D03*
X45555374Y5056420D03*
X45555374Y7596420D03*
%TD*%
D12*
%TO.C,H10*%
X-48337068Y17317603D03*
X-47678058Y18908593D03*
X-47678058Y15726613D03*
X-46087068Y19567603D03*
D13*
X-46087068Y17317603D03*
D12*
X-46087068Y15067603D03*
X-44496078Y18908593D03*
X-44496078Y15726613D03*
X-43837068Y17317603D03*
%TD*%
%TO.C,H2*%
X-27167738Y21457787D03*
X-26508728Y23048777D03*
X-26508728Y19866797D03*
X-24917738Y23707787D03*
D13*
X-24917738Y21457787D03*
D12*
X-24917738Y19207787D03*
X-23326748Y23048777D03*
X-23326748Y19866797D03*
X-22667738Y21457787D03*
%TD*%
%TO.C,H1*%
X22504921Y39794635D03*
X23163931Y41385625D03*
X23163931Y38203645D03*
X24754921Y42044635D03*
D13*
X24754921Y39794635D03*
D12*
X24754921Y37544635D03*
X26345911Y41385625D03*
X26345911Y38203645D03*
X27004921Y39794635D03*
%TD*%
%TO.C,H9*%
X-26802659Y39617136D03*
X-26143649Y41208126D03*
X-26143649Y38026146D03*
X-24552659Y41867136D03*
D13*
X-24552659Y39617136D03*
D12*
X-24552659Y37367136D03*
X-22961669Y41208126D03*
X-22961669Y38026146D03*
X-22302659Y39617136D03*
%TD*%
D10*
%TO.C,J2*%
X6185374Y44426420D03*
D11*
X3645374Y44426420D03*
X1105374Y44426420D03*
X-1434626Y44426420D03*
X-3974626Y44426420D03*
X-6514626Y44426420D03*
%TD*%
D10*
%TO.C,J1*%
X-10849500Y-33259580D03*
D11*
X-8309500Y-33259580D03*
X-5769500Y-33259580D03*
X-3229500Y-33259580D03*
X-689500Y-33259580D03*
X1850500Y-33259580D03*
X4390500Y-33259580D03*
X6930500Y-33259580D03*
%TD*%
D12*
%TO.C,H3*%
X22832262Y21457787D03*
X23491272Y23048777D03*
X23491272Y19866797D03*
X25082262Y23707787D03*
D13*
X25082262Y21457787D03*
D12*
X25082262Y19207787D03*
X26673252Y23048777D03*
X26673252Y19866797D03*
X27332262Y21457787D03*
%TD*%
%TO.C,H12*%
X22542659Y-40056559D03*
X23201669Y-38465569D03*
X23201669Y-41647549D03*
X24792659Y-37806559D03*
D13*
X24792659Y-40056559D03*
D12*
X24792659Y-42306559D03*
X26383649Y-38465569D03*
X26383649Y-41647549D03*
X27042659Y-40056559D03*
%TD*%
D10*
%TO.C,J4*%
X-8546626Y-43965580D03*
D11*
X-6006626Y-43965580D03*
X-3466626Y-43965580D03*
X-926626Y-43965580D03*
X1613374Y-43965580D03*
X4153374Y-43965580D03*
%TD*%
D12*
%TO.C,H8*%
X-26840397Y-39879060D03*
X-26181387Y-38288070D03*
X-26181387Y-41470050D03*
X-24590397Y-37629060D03*
D13*
X-24590397Y-39879060D03*
D12*
X-24590397Y-42129060D03*
X-22999407Y-38288070D03*
X-22999407Y-41470050D03*
X-22340397Y-39879060D03*
%TD*%
D14*
%TO.C,U2*%
X-39915626Y9882420D03*
X-39915626Y7342420D03*
X-39915626Y4802420D03*
X-39915626Y2262420D03*
X-39915626Y-277580D03*
X-39915626Y-2817580D03*
X-22135626Y9882420D03*
X-22135626Y7342420D03*
X-22135626Y4802420D03*
X-22135626Y2262420D03*
X-22135626Y-277580D03*
X-22135626Y-2817580D03*
%TD*%
D10*
%TO.C,U3*%
X23660000Y9120420D03*
D11*
X23660000Y6580420D03*
X23660000Y4040420D03*
X23660000Y1500420D03*
X23660000Y-1039580D03*
X23660000Y-3579580D03*
X23660000Y-6119580D03*
X39825000Y-6119580D03*
X39825000Y-3579580D03*
X39825000Y-1039580D03*
X39825000Y1500420D03*
X39825000Y4040420D03*
X39825000Y6580420D03*
D10*
X39825000Y9120420D03*
%TD*%
D12*
%TO.C,H7*%
X22832262Y-21542213D03*
X23491272Y-19951223D03*
X23491272Y-23133203D03*
X25082262Y-19292213D03*
D13*
X25082262Y-21542213D03*
D12*
X25082262Y-23792213D03*
X26673252Y-19951223D03*
X26673252Y-23133203D03*
X27332262Y-21542213D03*
%TD*%
D10*
%TO.C,J6*%
X-45884626Y6072420D03*
D11*
X-45884626Y3532420D03*
X-45884626Y992420D03*
X-45884626Y-1547580D03*
X-45884626Y-4087580D03*
X-45884626Y-6627580D03*
%TD*%
D12*
%TO.C,H4*%
X44039331Y17495101D03*
X44698341Y19086091D03*
X44698341Y15904111D03*
X46289331Y19745101D03*
D13*
X46289331Y17495101D03*
D12*
X46289331Y15245101D03*
X47880321Y19086091D03*
X47880321Y15904111D03*
X48539331Y17495101D03*
%TD*%
%TO.C,H5*%
X-48374807Y-17579526D03*
X-47715797Y-15988536D03*
X-47715797Y-19170516D03*
X-46124807Y-15329526D03*
D13*
X-46124807Y-17579526D03*
D12*
X-46124807Y-19829526D03*
X-44533817Y-15988536D03*
X-44533817Y-19170516D03*
X-43874807Y-17579526D03*
%TD*%
D10*
%TO.C,J5*%
X16210944Y16756000D03*
D11*
X13670944Y16756000D03*
X16210944Y19296000D03*
X13670944Y19296000D03*
X16210944Y21836000D03*
X13670944Y21836000D03*
X16210944Y24376000D03*
X13670944Y24376000D03*
X16210944Y26916000D03*
X13670944Y26916000D03*
X16210944Y29456000D03*
X13670944Y29456000D03*
X16210944Y31996000D03*
X13670944Y31996000D03*
X16210944Y34536000D03*
X13670944Y34536000D03*
X-13649056Y16776000D03*
D10*
X-16189056Y16776000D03*
D11*
X-13649056Y19316000D03*
X-16189056Y19316000D03*
X-13649056Y21856000D03*
X-16189056Y21856000D03*
X-13649056Y24396000D03*
X-16189056Y24396000D03*
X-13649056Y26936000D03*
X-16189056Y26936000D03*
X-13649056Y29476000D03*
X-16189056Y29476000D03*
X-13649056Y32016000D03*
X-16189056Y32016000D03*
X-13649056Y34556000D03*
X-16189056Y34556000D03*
D12*
X17092944Y-5207000D03*
X16390000Y-6904056D03*
X16390000Y-3509944D03*
X14692944Y-7607000D03*
D15*
X14692944Y-5207000D03*
D12*
X14692944Y-2807000D03*
X12995888Y-6904056D03*
X12995888Y-3509944D03*
X12292944Y-5207000D03*
X-12371056Y-5207000D03*
X-13074000Y-6904056D03*
X-13074000Y-3509944D03*
X-14771056Y-7607000D03*
D15*
X-14771056Y-5207000D03*
D12*
X-14771056Y-2807000D03*
X-16468112Y-6904056D03*
X-16468112Y-3509944D03*
X-17171056Y-5207000D03*
%TD*%
%TO.C,H6*%
X-27167738Y-21542213D03*
X-26508728Y-19951223D03*
X-26508728Y-23133203D03*
X-24917738Y-19292213D03*
D13*
X-24917738Y-21542213D03*
D12*
X-24917738Y-23792213D03*
X-23326748Y-19951223D03*
X-23326748Y-23133203D03*
X-22667738Y-21542213D03*
%TD*%
%TO.C,H11*%
X44077070Y-17757024D03*
X44736080Y-16166034D03*
X44736080Y-19348014D03*
X46327070Y-15507024D03*
D13*
X46327070Y-17757024D03*
D12*
X46327070Y-20007024D03*
X47918060Y-16166034D03*
X47918060Y-19348014D03*
X48577070Y-17757024D03*
%TD*%
M02*
