M48
INCH
T1C0.0157
T2C0.0197
T3C0.0394
T4C0.1181
T5C0.1260
%
G90
G05
T1
X-1.3065Y-0.8009
X-1.2565Y-0.7609
X-0.0408Y1.4003
X0.0999Y1.5639
X0.1835Y-1.5109
X0.2035Y-0.0809
X0.5735Y-1.5109
X0.9635Y-1.2909
X0.97Y-1.2
T2
X-1.9045Y-0.6921
X-1.903Y0.6818
X-1.8786Y-0.6295
X-1.8786Y-0.7547
X-1.8771Y0.7444
X-1.8771Y0.6192
X-1.8159Y-0.6035
X-1.8159Y-0.7807
X-1.8145Y0.7704
X-1.8145Y0.5932
X-1.7533Y-0.6295
X-1.7533Y-0.7547
X-1.7518Y0.7444
X-1.7518Y0.6192
X-1.7274Y-0.6921
X-1.7259Y0.6818
X-1.0696Y0.8448
X-1.0696Y-0.8481
X-1.0567Y-1.57
X-1.0552Y1.5597
X-1.0437Y0.9074
X-1.0437Y0.7822
X-1.0437Y-0.7855
X-1.0437Y-0.9108
X-1.0308Y-1.5074
X-1.0308Y-1.6327
X-1.0293Y1.6224
X-1.0293Y1.4971
X-0.981Y0.9334
X-0.981Y0.7562
X-0.981Y-0.7595
X-0.981Y-0.9367
X-0.9681Y-1.4815
X-0.9681Y-1.6586
X-0.9666Y1.6483
X-0.9666Y1.4711
X-0.9184Y0.9074
X-0.9184Y0.7822
X-0.9184Y-0.7855
X-0.9184Y-0.9108
X-0.9055Y-1.5074
X-0.9055Y-1.6327
X-0.904Y1.6224
X-0.904Y1.4971
X-0.8924Y0.8448
X-0.8924Y-0.8481
X-0.8795Y-1.57
X-0.8781Y1.5597
X-0.676Y-0.205
X-0.6484Y-0.1382
X-0.6484Y-0.2718
X-0.5815Y-0.1105
X-0.5815Y-0.2995
X-0.5147Y-0.1382
X-0.5147Y-0.2718
X-0.487Y-0.205
X0.484Y-0.205
X0.5116Y-0.1382
X0.5116Y-0.2718
X0.5785Y-0.1105
X0.5785Y-0.2995
X0.6453Y-0.1382
X0.6453Y-0.2718
X0.673Y-0.205
X0.886Y1.5667
X0.8875Y-1.577
X0.8989Y0.8448
X0.8989Y-0.8481
X0.912Y1.6294
X0.912Y1.5041
X0.9135Y-1.5144
X0.9135Y-1.6397
X0.9249Y0.9074
X0.9249Y0.7822
X0.9249Y-0.7855
X0.9249Y-0.9108
X0.9746Y1.6553
X0.9746Y1.4781
X0.9761Y-1.4884
X0.9761Y-1.6656
X0.9875Y0.9334
X0.9875Y0.7562
X0.9875Y-0.7595
X0.9875Y-0.9367
X1.0372Y1.6294
X1.0372Y1.5041
X1.0387Y-1.5144
X1.0387Y-1.6397
X1.0501Y0.9074
X1.0501Y0.7822
X1.0501Y-0.7855
X1.0501Y-0.9108
X1.0632Y1.5667
X1.0647Y-1.577
X1.0761Y0.8448
X1.0761Y-0.8481
X1.7338Y0.6888
X1.7353Y-0.6991
X1.7598Y0.7514
X1.7598Y0.6261
X1.7613Y-0.6365
X1.7613Y-0.7617
X1.8224Y0.7774
X1.8224Y0.6002
X1.8239Y-0.6105
X1.8239Y-0.7877
X1.8851Y0.7514
X1.8851Y0.6261
X1.8865Y-0.6365
X1.8865Y-0.7617
X1.911Y0.6888
X1.9125Y-0.6991
T3
X-1.8065Y0.2391
X-1.8065Y0.1391
X-1.8065Y0.0391
X-1.8065Y-0.0609
X-1.8065Y-0.1609
X-1.8065Y-0.2609
X-1.5715Y0.3891
X-1.5715Y0.2891
X-1.5715Y0.1891
X-1.5715Y0.0891
X-1.5715Y-0.0109
X-1.5715Y-0.1109
X-0.8715Y0.3891
X-0.8715Y0.2891
X-0.8715Y0.1891
X-0.8715Y0.0891
X-0.8715Y-0.0109
X-0.8715Y-0.1109
X-0.6374Y1.3605
X-0.6374Y1.2605
X-0.6374Y1.1605
X-0.6374Y1.0605
X-0.6374Y0.9605
X-0.6374Y0.8605
X-0.6374Y0.7605
X-0.6374Y0.6605
X-0.5374Y1.3605
X-0.5374Y1.2605
X-0.5374Y1.1605
X-0.5374Y1.0605
X-0.5374Y0.9605
X-0.5374Y0.8605
X-0.5374Y0.7605
X-0.5374Y0.6605
X-0.4271Y-1.3094
X-0.3365Y-1.7309
X-0.3271Y-1.3094
X-0.2565Y1.7491
X-0.2365Y-1.7309
X-0.2271Y-1.3094
X-0.1565Y1.7491
X-0.1365Y-1.7309
X-0.1271Y-1.3094
X-0.0565Y1.7491
X-0.0365Y-1.7309
X-0.0271Y-1.3094
X0.0435Y1.7491
X0.0635Y-1.7309
X0.0729Y-1.3094
X0.1435Y1.7491
X0.1635Y-1.7309
X0.1729Y-1.3094
X0.2435Y1.7491
X0.2729Y-1.3094
X0.5382Y1.3597
X0.5382Y1.2597
X0.5382Y1.1597
X0.5382Y1.0597
X0.5382Y0.9597
X0.5382Y0.8597
X0.5382Y0.7597
X0.5382Y0.6597
X0.6382Y1.3597
X0.6382Y1.2597
X0.6382Y1.1597
X0.6382Y1.0597
X0.6382Y0.9597
X0.6382Y0.8597
X0.6382Y0.7597
X0.6382Y0.6597
X0.9315Y0.3591
X0.9315Y0.2591
X0.9315Y0.1591
X0.9315Y0.0591
X0.9315Y-0.0409
X0.9315Y-0.1409
X0.9315Y-0.2409
X1.5679Y0.3591
X1.5679Y0.2591
X1.5679Y0.1591
X1.5679Y0.0591
X1.5679Y-0.0409
X1.5679Y-0.1409
X1.5679Y-0.2409
X1.7935Y0.2991
X1.7935Y0.1991
X1.7935Y0.0991
X1.7935Y-0.0009
X1.7935Y-0.1009
X1.7935Y-0.2009
T4
X-1.8159Y-0.6921
X-1.8145Y0.6818
X-0.981Y0.8448
X-0.981Y-0.8481
X-0.9681Y-1.57
X-0.9666Y1.5597
X0.9746Y1.5667
X0.9761Y-1.577
X0.9875Y0.8448
X0.9875Y-0.8481
X1.8224Y0.6888
X1.8239Y-0.6991
T5
X-0.5815Y-0.205
X0.5785Y-0.205
T0
M30
